{
.appVersion = "1075";
classes = (
{
automatic = 1;

glyphs = (
{
glyphname = A;
lastChange = "2018-03-04 05:27:23 +0000";
layers = (
{
layerId = "4E366C66-7BF6-431B-9C64-252368655686";
paths = (
{
closed = 1;
nodes = (
"371 551 LINE",
"735 1325 LINE",
"801 551 LINE"
);
},
{
closed = 1;
nodes = (
"111 0 LINE",
"295 389 LINE",
"815 389 LINE",
"850 0 LINE",
"1051 0 LINE",
"885 1493 LINE",
"639 1493 LINE",
"-106 0 LINE"
);
}
);
width = 1233;
},
{
layerId = "024CB45B-04BA-4429-B396-A6A8F0C0F775";
paths = (
{
closed = 1;
nodes = (
"453 612 LINE",
"717 1219 LINE",
"737 612 LINE"
);
},
{
closed = 1;
nodes = (
"186 0 LINE",
"348 369 LINE",
"748 369 LINE",
"762 0 LINE",
"1055 0 LINE",
"942 1493 LINE",
"582 1493 LINE",
"-113 0 LINE"
);
}
);
width = 1233;
}
);
note = A;
unicode = 0041;
},
{
glyphname = "Ain-egyptological";
lastChange = "2018-03-04 05:27:23 +0000";
layers = (
{
layerId = "4E366C66-7BF6-431B-9C64-252368655686";
paths = (
{
closed = 1;
nodes = (
"461 1192 OFFCURVE",
"679 1301 OFFCURVE",
"1073 1301 CURVE",
"1115 1520 LINE",
"597 1520 OFFCURVE",
"303 1339 OFFCURVE",
"232 976 CURVE SMOOTH",
"205 835 OFFCURVE",
"218 662 OFFCURVE",
"271 459 CURVE",
"444 505 LINE",
"393 645 OFFCURVE",
"385 801 OFFCURVE",
"418 973 CURVE SMOOTH"
);
}
);
width = 1233;
},
{
layerId = "024CB45B-04BA-4429-B396-A6A8F0C0F775";
paths = (
{
closed = 1;
nodes = (
"526 1119 OFFCURVE",
"724 1190 OFFCURVE",
"1091 1189 CURVE",
"1155 1520 LINE",
"577 1520 OFFCURVE",
"253 1339 OFFCURVE",
"182 976 CURVE SMOOTH",
"155 835 OFFCURVE",
"168 662 OFFCURVE",
"221 459 CURVE",
"502 537 LINE",
"471 686 OFFCURVE",
"470 832 OFFCURVE",
"498 976 CURVE SMOOTH"
);
}
);
width = 1233;
}
);
note = uniA724;
unicode = A724;
},
{
glyphname = "Alef-egyptological";
lastChange = "2018-03-04 05:27:23 +0000";
layers = (
{
layerId = "4E366C66-7BF6-431B-9C64-252368655686";
paths = (
{
closed = 1;
nodes = (
"626 0 OFFCURVE",
"840 141 OFFCURVE",
"888 422 CURVE SMOOTH",
"918 596 OFFCURVE",
"879 719 OFFCURVE",
"770 792 CURVE",
"1027 924 OFFCURVE",
"1254 1492 OFFCURVE",
"466 1492 CURVE",
"435 1330 LINE",
"968 1330 OFFCURVE",
"903 877 OFFCURVE",
"396 877 CURVE",
"365 714 LINE",
"872 714 OFFCURVE",
"785 163 OFFCURVE",
"278 163 CURVE",
"246 0 LINE"
);
}
);
width = 1233;
},
{
layerId = "024CB45B-04BA-4429-B396-A6A8F0C0F775";
paths = (
{
closed = 1;
nodes = (
"642 0 OFFCURVE",
"896 141 OFFCURVE",
"944 422 CURVE SMOOTH",
"974 596 OFFCURVE",
"935 719 OFFCURVE",
"826 792 CURVE",
"955 858 OFFCURVE",
"1031 967 OFFCURVE",
"1055 1120 CURVE SMOOTH",
"1094 1368 OFFCURVE",
"876 1492 OFFCURVE",
"402 1492 CURVE",
"353 1241 LINE",
"846 1241 OFFCURVE",
"803 897 OFFCURVE",
"336 897 CURVE",
"287 644 LINE",
"754 644 OFFCURVE",
"698 251 OFFCURVE",
"231 251 CURVE",
"182 0 LINE"
);
}
);
width = 1233;
}
);
note = uniA722;
unicode = A722;
},
{
glyphname = "Alpha-latin";
lastChange = "2018-03-04 05:27:23 +0000";
layers = (
{
layerId = "4E366C66-7BF6-431B-9C64-252368655686";
paths = (
{
closed = 1;
nodes = (
"86 644 OFFCURVE",
"76 541 OFFCURVE",
"76 443 CURVE SMOOTH",
"76 246 OFFCURVE",
"139 -29 OFFCURVE",
"441 -29 CURVE SMOOTH",
"592 -29 OFFCURVE",
"716 45 OFFCURVE",
"815 193 CURVE",
"777 0 LINE",
"961 0 LINE",
"1251 1493 LINE",
"1067 1493 LINE",
"1039 1345 LINE",
"994 1462 OFFCURVE",
"895 1520 OFFCURVE",
"744 1520 CURVE SMOOTH",
"441 1520 OFFCURVE",
"200 1230 OFFCURVE",
"107 751 CURVE SMOOTH"
);
},
{
closed = 1;
nodes = (
"955 954 OFFCURVE",
"944 858 OFFCURVE",
"922 746 CURVE SMOOTH",
"843 343 OFFCURVE",
"697 135 OFFCURVE",
"500 135 CURVE SMOOTH",
"356 135 OFFCURVE",
"284 242 OFFCURVE",
"284 456 CURVE SMOOTH",
"284 537 OFFCURVE",
"295 634 OFFCURVE",
"317 746 CURVE SMOOTH",
"396 1149 OFFCURVE",
"541 1356 OFFCURVE",
"738 1356 CURVE SMOOTH",
"883 1356 OFFCURVE",
"955 1249 OFFCURVE",
"955 1035 CURVE SMOOTH"
);
}
);
width = 1233;
},
{
layerId = "024CB45B-04BA-4429-B396-A6A8F0C0F775";
paths = (
{
closed = 1;
nodes = (
"73 626 OFFCURVE",
"61 518 OFFCURVE",
"61 422 CURVE SMOOTH",
"61 230 OFFCURVE",
"105 -29 OFFCURVE",
"390 -29 CURVE SMOOTH",
"533 -29 OFFCURVE",
"651 37 OFFCURVE",
"746 169 CURVE",
"713 0 LINE",
"1005 0 LINE",
"1295 1493 LINE",
"1003 1493 LINE",
"972 1334 LINE",
"919 1458 OFFCURVE",
"824 1520 OFFCURVE",
"687 1520 CURVE SMOOTH",
"413 1520 OFFCURVE",
"193 1245 OFFCURVE",
"96 746 CURVE SMOOTH"
);
},
{
closed = 1;
nodes = (
"464 1063 OFFCURVE",
"587 1255 OFFCURVE",
"728 1255 CURVE SMOOTH",
"833 1255 OFFCURVE",
"885 1161 OFFCURVE",
"885 972 CURVE SMOOTH",
"885 912 OFFCURVE",
"876 837 OFFCURVE",
"858 746 CURVE SMOOTH",
"795 426 OFFCURVE",
"671 236 OFFCURVE",
"530 236 CURVE SMOOTH",
"427 236 OFFCURVE",
"376 330 OFFCURVE",
"376 518 CURVE SMOOTH",
"376 578 OFFCURVE",
"385 654 OFFCURVE",
"403 746 CURVE SMOOTH"
);
}
);
width = 1233;
}
);
note = uni2C6D;
unicode = 2C6D;
},
{
glyphname = "Alphaturned-latin";
lastChange = "2018-03-04 05:27:23 +0000";
layers = (
{
layerId = "4E366C66-7BF6-431B-9C64-252368655686";
paths = (
{
closed = 1;
nodes = (
"1126 847 OFFCURVE",
"1136 950 OFFCURVE",
"1136 1049 CURVE SMOOTH",
"1136 1245 OFFCURVE",
"1074 1520 OFFCURVE",
"772 1520 CURVE SMOOTH",
"621 1520 OFFCURVE",
"496 1446 OFFCURVE",
"397 1298 CURVE",
"435 1491 LINE",
"251 1491 LINE",
"-39 -2 LINE",
"145 -2 LINE",
"173 146 LINE",
"218 29 OFFCURVE",
"317 -29 OFFCURVE",
"468 -29 CURVE SMOOTH",
"771 -29 OFFCURVE",
"1012 261 OFFCURVE",
"1105 740 CURVE SMOOTH"
);
},
{
closed = 1;
nodes = (
"257 537 OFFCURVE",
"268 634 OFFCURVE",
"290 746 CURVE SMOOTH",
"369 1149 OFFCURVE",
"515 1356 OFFCURVE",
"712 1356 CURVE SMOOTH",
"856 1356 OFFCURVE",
"928 1249 OFFCURVE",
"928 1035 CURVE SMOOTH",
"928 954 OFFCURVE",
"917 858 OFFCURVE",
"895 746 CURVE SMOOTH",
"816 343 OFFCURVE",
"671 135 OFFCURVE",
"474 135 CURVE SMOOTH",
"329 135 OFFCURVE",
"257 242 OFFCURVE",
"257 456 CURVE SMOOTH"
);
}
);
width = 1233;
},
{
layerId = "024CB45B-04BA-4429-B396-A6A8F0C0F775";
paths = (
{
closed = 1;
nodes = (
"1173 866 OFFCURVE",
"1185 974 OFFCURVE",
"1185 1070 CURVE SMOOTH",
"1185 1261 OFFCURVE",
"1142 1520 OFFCURVE",
"856 1520 CURVE SMOOTH",
"713 1520 OFFCURVE",
"594 1454 OFFCURVE",
"500 1322 CURVE",
"533 1491 LINE",
"241 1491 LINE",
"-49 -2 LINE",
"243 -2 LINE",
"274 157 LINE",
"327 33 OFFCURVE",
"423 -29 OFFCURVE",
"560 -29 CURVE SMOOTH",
"834 -29 OFFCURVE",
"1053 246 OFFCURVE",
"1150 745 CURVE SMOOTH"
);
},
{
closed = 1;
nodes = (
"782 428 OFFCURVE",
"659 236 OFFCURVE",
"518 236 CURVE SMOOTH",
"413 236 OFFCURVE",
"361 330 OFFCURVE",
"361 519 CURVE SMOOTH",
"361 579 OFFCURVE",
"370 654 OFFCURVE",
"388 745 CURVE SMOOTH",
"419 905 OFFCURVE",
"464 1030 OFFCURVE",
"523 1120 CURVE SMOOTH",
"639 1300 OFFCURVE",
"870 1348 OFFCURVE",
"870 972 CURVE SMOOTH",
"870 912 OFFCURVE",
"861 836 OFFCURVE",
"843 745 CURVE SMOOTH"
);
}
);
width = 1233;
}
);
note = uni2C70;
unicode = 2C70;
},
{
glyphname = Aring;
lastChange = "2018-03-04 05:27:23 +0000";
layers = (
{
layerId = "4E366C66-7BF6-431B-9C64-252368655686";
paths = (
{
closed = 1;
nodes = (
"924 1542 OFFCURVE",
"856 1475 OFFCURVE",
"772 1475 CURVE SMOOTH",
"687 1475 OFFCURVE",
"621 1542 OFFCURVE",
"621 1626 CURVE SMOOTH",
"621 1713 OFFCURVE",
"687 1778 OFFCURVE",
"772 1778 CURVE SMOOTH",
"856 1778 OFFCURVE",
"924 1710 OFFCURVE",
"924 1626 CURVE SMOOTH"
);
},
{
closed = 1;
nodes = (
"371 551 LINE",
"735 1325 LINE",
"801 551 LINE"
);
},
{
closed = 1;
nodes = (
"111 0 LINE",
"295 389 LINE",
"815 389 LINE",
"850 0 LINE",
"1051 0 LINE",
"897 1386 LINE",
"990 1429 OFFCURVE",
"1047 1518 OFFCURVE",
"1047 1626 CURVE SMOOTH",
"1047 1778 OFFCURVE",
"924 1901 OFFCURVE",
"772 1901 CURVE SMOOTH",
"619 1901 OFFCURVE",
"498 1778 OFFCURVE",
"498 1626 CURVE SMOOTH",
"498 1534 OFFCURVE",
"532 1462 OFFCURVE",
"600 1415 CURVE",
"-106 0 LINE"
);
}
);
width = 1233;
},
{
layerId = "024CB45B-04BA-4429-B396-A6A8F0C0F775";
paths = (
{
closed = 1;
nodes = (
"623 1688 OFFCURVE",
"682 1747 OFFCURVE",
"754 1747 CURVE SMOOTH",
"825 1747 OFFCURVE",
"885 1688 OFFCURVE",
"885 1616 CURVE SMOOTH",
"885 1544 OFFCURVE",
"826 1485 OFFCURVE",
"754 1485 CURVE SMOOTH",
"682 1485 OFFCURVE",
"623 1544 OFFCURVE",
"623 1616 CURVE SMOOTH"
);
},
{
closed = 1;
nodes = (
"1005 1462 OFFCURVE",
"1038 1537 OFFCURVE",
"1038 1616 CURVE SMOOTH",
"1038 1772 OFFCURVE",
"909 1901 OFFCURVE",
"754 1901 CURVE SMOOTH",
"597 1901 OFFCURVE",
"469 1772 OFFCURVE",
"469 1616 CURVE SMOOTH",
"469 1545 OFFCURVE",
"499 1469 OFFCURVE",
"547 1421 CURVE",
"-113 0 LINE",
"182 0 LINE",
"344 369 LINE",
"739 369 LINE",
"760 0 LINE",
"1055 0 LINE",
"948 1409 LINE"
);
},
{
closed = 1;
nodes = (
"451 612 LINE",
"709 1223 LINE",
"729 612 LINE"
);
}
);
width = 1233;
}
);
note = Aring;
unicode = 00C5;
},
{
glyphname = Astroke;
lastChange = "2018-03-04 05:27:23 +0000";
layers = (
{
layerId = "4E366C66-7BF6-431B-9C64-252368655686";
paths = (
{
closed = 1;
nodes = (
"-136 0 LINE",
"-46 -70 LINE",
"16 0 LINE",
"102 0 LINE",
"198 203 LINE",
"364 389 LINE",
"809 389 LINE",
"843 0 LINE",
"1052 0 LINE",
"937 1029 LINE",
"1345 1485 LINE",
"1259 1559 LINE",
"920 1180 LINE",
"885 1493 LINE",
"640 1493 LINE",
"-70 74 LINE"
);
},
{
closed = 1;
nodes = (
"792 551 LINE",
"509 551 LINE",
"768 840 LINE"
);
},
{
closed = 1;
nodes = (
"728 1315 LINE",
"755 995 LINE",
"377 572 LINE"
);
}
);
width = 1233;
},
{
layerId = "024CB45B-04BA-4429-B396-A6A8F0C0F775";
paths = (
{
closed = 1;
nodes = (
"-140 51 LINE",
"-102 20 LINE",
"-111 0 LINE",
"-78 0 LINE",
"-1 -63 LINE",
"56 0 LINE",
"184 0 LINE",
"304 275 LINE",
"389 369 LINE",
"740 369 LINE",
"761 0 LINE",
"1056 0 LINE",
"978 1023 LINE",
"1357 1444 LINE",
"1218 1559 LINE",
"959 1272 LINE",
"943 1493 LINE",
"582 1493 LINE",
"-32 172 LINE"
);
},
{
closed = 1;
nodes = (
"709 1223 LINE",
"717 1003 LINE",
"528 793 LINE"
);
},
{
closed = 1;
nodes = (
"731 612 LINE",
"608 612 LINE",
"726 743 LINE"
);
}
);
width = 1233;
}
);
note = uni023A;
unicode = 023A;
},
{
glyphname = Aturned;
lastChange = "2018-03-04 05:27:23 +0000";
layers = (
{
layerId = "4E366C66-7BF6-431B-9C64-252368655686";
paths = (
{
closed = 1;
nodes = (
"868 942 LINE",
"506 178 LINE",
"442 942 LINE"
);
},
{
closed = 1;
nodes = (
"1132 1493 LINE",
"948 1104 LINE",
"425 1104 LINE",
"391 1493 LINE",
"182 1493 LINE",
"349 0 LINE",
"594 0 LINE",
"1341 1493 LINE"
);
}
);
width = 1233;
},
{
layerId = "024CB45B-04BA-4429-B396-A6A8F0C0F775";
paths = (
{
closed = 1;
nodes = (
"927 881 LINE",
"669 270 LINE",
"648 881 LINE"
);
},
{
closed = 1;
nodes = (
"1195 1493 LINE",
"1033 1124 LINE",
"638 1124 LINE",
"618 1493 LINE",
"323 1493 LINE",
"436 0 LINE",
"797 0 LINE",
"1490 1493 LINE"
);
}
);
width = 1233;
}
);
note = uni2C6F;
unicode = 2C6F;
},
{
glyphname = AE;
lastChange = "2018-03-04 05:27:23 +0000";
layers = (
{
layerId = "4E366C66-7BF6-431B-9C64-252368655686";
paths = (
{
closed = 1;
nodes = (
"-145 0 LINE",
"39 0 LINE",
"215 383 LINE",
"567 383 LINE",
"492 0 LINE",
"1034 0 LINE",
"1067 170 LINE",
"711 170 LINE",
"817 711 LINE",
"1124 711 LINE",
"1157 881 LINE",
"850 881 LINE",
"936 1323 LINE",
"1274 1323 LINE",
"1307 1493 LINE",
"555 1493 LINE"
);
},
{
closed = 1;
nodes = (
"600 551 LINE",
"291 551 LINE",
"647 1323 LINE",
"750 1323 LINE"
);
}
);
width = 1233;
},
{
layerId = "024CB45B-04BA-4429-B396-A6A8F0C0F775";
paths = (
{
closed = 1;
nodes = (
"-150 0 LINE",
"109 0 LINE",
"264 362 LINE",
"547 362 LINE",
"475 0 LINE",
"1038 0 LINE",
"1090 260 LINE",
"780 260 LINE",
"858 662 LINE",
"1118 662 LINE",
"1169 922 LINE",
"909 922 LINE",
"969 1233 LINE",
"1260 1233 LINE",
"1311 1493 LINE",
"502 1493 LINE"
);
},
{
closed = 1;
nodes = (
"592 598 LINE",
"365 598 LINE",
"637 1233 LINE",
"717 1233 LINE"
);
}
);
width = 1233;
}
);
note = AE;
unicode = 00C6;
},
{
glyphname = B;
lastChange = "2018-03-04 05:27:23 +0000";
layers = (
{
layerId = "4E366C66-7BF6-431B-9C64-252368655686";
paths = (
{
closed = 1;
nodes = (
"797 713 OFFCURVE",
"885 647 OFFCURVE",
"885 504 CURVE SMOOTH",
"885 285 OFFCURVE",
"751 166 OFFCURVE",
"506 166 CURVE SMOOTH",
"258 166 LINE",
"365 713 LINE",
"606 713 LINE SMOOTH"
);
},
{
closed = 1;
nodes = (
"894 1327 OFFCURVE",
"963 1274 OFFCURVE",
"963 1149 CURVE SMOOTH",
"963 980 OFFCURVE",
"840 877 OFFCURVE",
"639 877 CURVE SMOOTH",
"395 877 LINE",
"483 1327 LINE",
"727 1327 LINE SMOOTH"
);
},
{
closed = 1;
nodes = (
"475 0 LINE SMOOTH",
"863 0 OFFCURVE",
"1085 182 OFFCURVE",
"1085 494 CURVE SMOOTH",
"1085 659 OFFCURVE",
"994 768 OFFCURVE",
"827 799 CURVE",
"1035 826 OFFCURVE",
"1167 975 OFFCURVE",
"1167 1180 CURVE SMOOTH",
"1167 1385 OFFCURVE",
"1027 1493 OFFCURVE",
"756 1493 CURVE SMOOTH",
"313 1493 LINE",
"23 0 LINE"
);
}
);
width = 1233;
},
{
layerId = "024CB45B-04BA-4429-B396-A6A8F0C0F775";
paths = (
{
closed = 1;
nodes = (
"742 678 OFFCURVE",
"811 625 OFFCURVE",
"811 510 CURVE SMOOTH",
"811 322 OFFCURVE",
"716 236 OFFCURVE",
"508 236 CURVE SMOOTH",
"311 236 LINE",
"397 678 LINE",
"594 678 LINE SMOOTH"
);
},
{
closed = 1;
nodes = (
"827 1260 OFFCURVE",
"883 1219 OFFCURVE",
"883 1128 CURVE SMOOTH",
"883 987 OFFCURVE",
"800 913 OFFCURVE",
"639 913 CURVE SMOOTH",
"442 913 LINE",
"510 1260 LINE",
"707 1260 LINE SMOOTH"
);
},
{
closed = 1;
nodes = (
"461 0 LINE SMOOTH",
"721 0 OFFCURVE",
"861 38 OFFCURVE",
"961 127 CURVE SMOOTH",
"1053 211 OFFCURVE",
"1106 341 OFFCURVE",
"1106 485 CURVE SMOOTH",
"1106 660 OFFCURVE",
"998 770 OFFCURVE",
"813 786 CURVE",
"1046 813 OFFCURVE",
"1178 950 OFFCURVE",
"1178 1165 CURVE SMOOTH",
"1178 1384 OFFCURVE",
"1033 1495 OFFCURVE",
"752 1495 CURVE SMOOTH",
"270 1495 LINE",
"-20 0 LINE"
);
}
);
width = 1233;
}
);
note = B;
unicode = 0042;
},
{
glyphname = Bhook;
lastChange = "2018-03-04 05:27:23 +0000";
layers = (
{
layerId = "4E366C66-7BF6-431B-9C64-252368655686";
paths = (
{
closed = 1;
nodes = (
"965 1327 OFFCURVE",
"1047 1253 OFFCURVE",
"1018 1102 CURVE SMOOTH",
"987 950 OFFCURVE",
"878 877 OFFCURVE",
"681 877 CURVE SMOOTH",
"565 877 LINE",
"652 1327 LINE",
"768 1327 LINE SMOOTH"
);
},
{
closed = 1;
nodes = (
"315 1493 OFFCURVE",
"145 1390 OFFCURVE",
"98 1149 CURVE SMOOTH",
"84 1079 LINE",
"240 1079 LINE",
"250 1128 LINE SMOOTH",
"279 1280 OFFCURVE",
"379 1327 OFFCURVE",
"450 1327 CURVE",
"192 0 LINE",
"545 0 LINE SMOOTH",
"880 0 OFFCURVE",
"1098 151 OFFCURVE",
"1150 418 CURVE SMOOTH",
"1189 621 OFFCURVE",
"1102 762 OFFCURVE",
"911 805 CURVE",
"1082 832 OFFCURVE",
"1189 941 OFFCURVE",
"1225 1124 CURVE SMOOTH",
"1270 1360 OFFCURVE",
"1124 1493 OFFCURVE",
"816 1493 CURVE SMOOTH",
"483 1493 LINE SMOOTH"
);
},
{
closed = 1;
nodes = (
"891 713 OFFCURVE",
"977 627 OFFCURVE",
"941 440 CURVE SMOOTH",
"905 255 OFFCURVE",
"785 166 OFFCURVE",
"568 166 CURVE SMOOTH",
"427 166 LINE",
"533 713 LINE",
"674 713 LINE SMOOTH"
);
}
);
width = 1233;
},
{
layerId = "024CB45B-04BA-4429-B396-A6A8F0C0F775";
paths = (
{
closed = 1;
nodes = (
"1087 816 OFFCURVE",
"1205 923 OFFCURVE",
"1243 1118 CURVE SMOOTH",
"1292 1369 OFFCURVE",
"1148 1495 OFFCURVE",
"816 1495 CURVE SMOOTH",
"486 1495 LINE SMOOTH",
"251 1495 OFFCURVE",
"96 1392 OFFCURVE",
"48 1141 CURVE SMOOTH",
"34 1064 LINE",
"289 1064 LINE",
"293 1087 OFFCURVE",
"298 1108 OFFCURVE",
"303 1128 CURVE SMOOTH",
"313 1168 OFFCURVE",
"349 1216 OFFCURVE",
"432 1216 CURVE",
"196 0 LINE",
"526 0 LINE SMOOTH",
"721 0 OFFCURVE",
"869 32 OFFCURVE",
"968 97 CURVE SMOOTH",
"1166 226 OFFCURVE",
"1342 754 OFFCURVE",
"890 799 CURVE"
);
},
{
closed = 1;
nodes = (
"918 1260 OFFCURVE",
"967 1208 OFFCURVE",
"944 1085 CURVE SMOOTH",
"920 962 OFFCURVE",
"852 913 OFFCURVE",
"703 913 CURVE SMOOTH",
"658 913 LINE",
"726 1260 LINE",
"771 1260 LINE SMOOTH"
);
},
{
closed = 1;
nodes = (
"838 678 OFFCURVE",
"899 612 OFFCURVE",
"868 452 CURVE SMOOTH",
"836 292 OFFCURVE",
"760 236 OFFCURVE",
"572 236 CURVE SMOOTH",
"527 236 LINE",
"612 678 LINE",
"657 678 LINE SMOOTH"
);
}
);
width = 1233;
}
);
note = uni0181;
unicode = 0181;
},
{
glyphname = Bstroke;
lastChange = "2018-03-04 05:27:23 +0000";
layers = (
{
layerId = "4E366C66-7BF6-431B-9C64-252368655686";
paths = (
{
closed = 1;
nodes = (
"894 1327 OFFCURVE",
"963 1274 OFFCURVE",
"963 1149 CURVE SMOOTH",
"963 980 OFFCURVE",
"840 877 OFFCURVE",
"639 877 CURVE SMOOTH",
"395 877 LINE",
"483 1327 LINE",
"727 1327 LINE SMOOTH"
);
},
{
closed = 1;
nodes = (
"-37 515 LINE",
"-66 366 LINE",
"94 366 LINE",
"23 0 LINE",
"475 0 LINE SMOOTH",
"863 0 OFFCURVE",
"1085 182 OFFCURVE",
"1085 494 CURVE SMOOTH",
"1085 659 OFFCURVE",
"994 768 OFFCURVE",
"827 799 CURVE",
"1035 826 OFFCURVE",
"1167 975 OFFCURVE",
"1167 1180 CURVE SMOOTH",
"1167 1385 OFFCURVE",
"1027 1493 OFFCURVE",
"756 1493 CURVE SMOOTH",
"313 1493 LINE",
"123 515 LINE"
);
},
{
closed = 1;
nodes = (
"559 515 LINE",
"326 515 LINE",
"365 713 LINE",
"606 713 LINE SMOOTH",
"797 713 OFFCURVE",
"885 647 OFFCURVE",
"885 504 CURVE SMOOTH",
"885 285 OFFCURVE",
"751 166 OFFCURVE",
"506 166 CURVE SMOOTH",
"258 166 LINE",
"297 366 LINE",
"530 366 LINE"
);
}
);
width = 1233;
},
{
layerId = "024CB45B-04BA-4429-B396-A6A8F0C0F775";
paths = (
{
closed = 1;
nodes = (
"827 1260 OFFCURVE",
"883 1219 OFFCURVE",
"883 1128 CURVE SMOOTH",
"883 987 OFFCURVE",
"800 913 OFFCURVE",
"639 913 CURVE SMOOTH",
"442 913 LINE",
"510 1260 LINE",
"707 1260 LINE SMOOTH"
);
},
{
closed = 1;
nodes = (
"-34 575 LINE",
"-80 338 LINE",
"46 338 LINE",
"-20 0 LINE",
"461 0 LINE SMOOTH",
"721 0 OFFCURVE",
"861 38 OFFCURVE",
"961 127 CURVE SMOOTH",
"1053 211 OFFCURVE",
"1106 341 OFFCURVE",
"1106 485 CURVE SMOOTH",
"1106 660 OFFCURVE",
"998 770 OFFCURVE",
"813 786 CURVE",
"1046 813 OFFCURVE",
"1178 950 OFFCURVE",
"1178 1165 CURVE SMOOTH",
"1178 1384 OFFCURVE",
"1033 1495 OFFCURVE",
"752 1495 CURVE SMOOTH",
"270 1495 LINE",
"92 575 LINE"
);
},
{
closed = 1;
nodes = (
"609 575 LINE",
"377 575 LINE",
"397 678 LINE",
"594 678 LINE SMOOTH",
"742 678 OFFCURVE",
"811 625 OFFCURVE",
"811 510 CURVE SMOOTH",
"811 322 OFFCURVE",
"716 236 OFFCURVE",
"508 236 CURVE SMOOTH",
"311 236 LINE",
"331 338 LINE",
"563 338 LINE"
);
}
);
width = 1233;
}
);
note = uni0243;
unicode = 0243;
},
{
glyphname = C;
lastChange = "2018-03-04 05:27:23 +0000";
layers = (
{
layerId = "4E366C66-7BF6-431B-9C64-252368655686";
paths = (
{
closed = 1;
nodes = (
"866 179 OFFCURVE",
"742 135 OFFCURVE",
"629 135 CURVE SMOOTH",
"433 135 OFFCURVE",
"326 261 OFFCURVE",
"326 492 CURVE SMOOTH",
"326 749 OFFCURVE",
"418 1028 OFFCURVE",
"557 1192 CURVE SMOOTH",
"652 1303 OFFCURVE",
"758 1356 OFFCURVE",
"885 1356 CURVE SMOOTH",
"992 1356 OFFCURVE",
"1086 1315 OFFCURVE",
"1171 1231 CURVE",
"1212 1438 LINE",
"1112 1491 OFFCURVE",
"1006 1520 OFFCURVE",
"899 1520 CURVE SMOOTH",
"679 1520 OFFCURVE",
"512 1439 OFFCURVE",
"369 1266 CURVE SMOOTH",
"217 1083 OFFCURVE",
"115 770 OFFCURVE",
"115 477 CURVE SMOOTH",
"115 157 OFFCURVE",
"291 -29 OFFCURVE",
"598 -29 CURVE SMOOTH",
"719 -29 OFFCURVE",
"832 -2 OFFCURVE",
"944 53 CURVE",
"983 260 LINE"
);
}
);
width = 1233;
},
{
layerId = "024CB45B-04BA-4429-B396-A6A8F0C0F775";
paths = (
{
closed = 1;
nodes = (
"885 274 OFFCURVE",
"782 231 OFFCURVE",
"674 231 CURVE SMOOTH",
"517 231 OFFCURVE",
"430 337 OFFCURVE",
"430 532 CURVE SMOOTH",
"430 712 OFFCURVE",
"492 932 OFFCURVE",
"584 1075 CURVE SMOOTH",
"656 1188 OFFCURVE",
"765 1257 OFFCURVE",
"872 1257 CURVE SMOOTH",
"989 1257 OFFCURVE",
"1088 1211 OFFCURVE",
"1155 1120 CURVE",
"1219 1448 LINE",
"1116 1496 OFFCURVE",
"1012 1520 OFFCURVE",
"903 1520 CURVE SMOOTH",
"699 1520 OFFCURVE",
"522 1443 OFFCURVE",
"393 1296 CURVE SMOOTH",
"232 1113 OFFCURVE",
"131 813 OFFCURVE",
"131 506 CURVE SMOOTH",
"131 159 OFFCURVE",
"304 -29 OFFCURVE",
"623 -29 CURVE SMOOTH",
"736 -29 OFFCURVE",
"843 -5 OFFCURVE",
"946 43 CURVE",
"1010 371 LINE"
);
}
);
width = 1233;
}
);
note = C;
unicode = 0043;
},
{
glyphname = Chook;
lastChange = "2018-03-04 05:27:23 +0000";
layers = (
{
layerId = "4E366C66-7BF6-431B-9C64-252368655686";
paths = (
{
closed = 1;
nodes = (
"775 179 OFFCURVE",
"651 135 OFFCURVE",
"534 135 CURVE SMOOTH",
"271 135 OFFCURVE",
"180 337 OFFCURVE",
"259 745 CURVE SMOOTH",
"322 1064 OFFCURVE",
"495 1288 OFFCURVE",
"758 1288 CURVE SMOOTH",
"873 1288 OFFCURVE",
"980 1244 OFFCURVE",
"1064 1163 CURVE",
"1077 1233 LINE SMOOTH",
"1112 1413 OFFCURVE",
"1193 1483 OFFCURVE",
"1305 1483 CURVE",
"1335 1639 LINE",
"1315 1639 LINE SMOOTH",
"1205 1639 OFFCURVE",
"1113 1604 OFFCURVE",
"1040 1533 CURVE SMOOTH",
"1005 1500 OFFCURVE",
"976 1466 OFFCURVE",
"955 1432 CURVE",
"904 1445 OFFCURVE",
"849 1452 OFFCURVE",
"790 1452 CURVE SMOOTH",
"410 1452 OFFCURVE",
"125 1142 OFFCURVE",
"48 745 CURVE SMOOTH",
"-47 254 OFFCURVE",
"119 -29 OFFCURVE",
"502 -29 CURVE SMOOTH",
"623 -29 OFFCURVE",
"735 -2 OFFCURVE",
"848 53 CURVE",
"888 260 LINE"
);
}
);
width = 1233;
},
{
layerId = "024CB45B-04BA-4429-B396-A6A8F0C0F775";
paths = (
{
closed = 1;
nodes = (
"662 236 OFFCURVE",
"650 237 OFFCURVE",
"638 238 CURVE SMOOTH",
"449 257 OFFCURVE",
"385 426 OFFCURVE",
"447 745 CURVE SMOOTH",
"512 1082 OFFCURVE",
"657 1255 OFFCURVE",
"873 1255 CURVE SMOOTH",
"972 1255 OFFCURVE",
"1062 1210 OFFCURVE",
"1142 1120 CURVE",
"1153 1176 LINE SMOOTH",
"1189 1364 OFFCURVE",
"1258 1418 OFFCURVE",
"1382 1418 CURVE SMOOTH",
"1397 1418 LINE",
"1440 1643 LINE",
"1344 1643 LINE SMOOTH",
"1191 1643 OFFCURVE",
"1078 1600 OFFCURVE",
"1003 1514 CURVE",
"973 1518 OFFCURVE",
"942 1520 OFFCURVE",
"911 1520 CURVE SMOOTH",
"798 1520 OFFCURVE",
"696 1499 OFFCURVE",
"603 1456 CURVE SMOOTH",
"365 1347 OFFCURVE",
"211 1110 OFFCURVE",
"140 745 CURVE SMOOTH",
"43 244 OFFCURVE",
"206 -29 OFFCURVE",
"609 -29 CURVE SMOOTH",
"722 -29 OFFCURVE",
"829 -5 OFFCURVE",
"932 43 CURVE",
"996 371 LINE",
"881 281 OFFCURVE",
"774 236 OFFCURVE",
"675 236 CURVE SMOOTH"
);
}
);
width = 1233;
}
);
note = uni0187;
unicode = 0187;
},
{
glyphname = Cstroke;
lastChange = "2018-03-04 05:27:23 +0000";
layers = (
{
layerId = "4E366C66-7BF6-431B-9C64-252368655686";
paths = (
{
closed = 1;
nodes = (
"326 584 OFFCURVE",
"335 661 OFFCURVE",
"351 745 CURVE SMOOTH",
"431 1154 OFFCURVE",
"600 1356 OFFCURVE",
"863 1356 CURVE SMOOTH",
"920 1356 OFFCURVE",
"975 1345 OFFCURVE",
"1028 1324 CURVE SMOOTH",
"1044 1318 LINE",
"324 514 LINE"
);
},
{
closed = 1;
nodes = (
"867 179 OFFCURVE",
"743 135 OFFCURVE",
"626 135 CURVE SMOOTH",
"495 135 OFFCURVE",
"406 186 OFFCURVE",
"360 287 CURVE SMOOTH",
"351 308 OFFCURVE",
"343 332 OFFCURVE",
"337 358 CURVE",
"1140 1256 LINE",
"1150 1248 OFFCURVE",
"1160 1240 OFFCURVE",
"1169 1231 CURVE",
"1183 1304 LINE",
"1345 1485 LINE",
"1259 1559 LINE",
"1170 1459 LINE",
"1101 1494 OFFCURVE",
"1016 1520 OFFCURVE",
"895 1520 CURVE SMOOTH",
"705 1520 OFFCURVE",
"544 1452 OFFCURVE",
"411 1316 CURVE SMOOTH",
"145 1043 OFFCURVE",
"74 542 OFFCURVE",
"135 303 CURVE",
"-136 0 LINE",
"-46 -70 LINE",
"182 185 LINE",
"188 174 LINE SMOOTH",
"267 39 OFFCURVE",
"403 -29 OFFCURVE",
"594 -29 CURVE SMOOTH",
"715 -29 OFFCURVE",
"827 -2 OFFCURVE",
"940 53 CURVE",
"980 260 LINE"
);
}
);
width = 1233;
},
{
layerId = "024CB45B-04BA-4429-B396-A6A8F0C0F775";
paths = (
{
closed = 1;
nodes = (
"456 714 OFFCURVE",
"458 717 OFFCURVE",
"459 720 CURVE",
"459 745 LINE",
"526 1082 OFFCURVE",
"670 1255 OFFCURVE",
"886 1255 CURVE SMOOTH",
"902 1255 OFFCURVE",
"920 1253 OFFCURVE",
"940 1250 CURVE",
"454 711 LINE"
);
},
{
closed = 1;
nodes = (
"889 278 OFFCURVE",
"788 236 OFFCURVE",
"687 236 CURVE SMOOTH",
"579 236 OFFCURVE",
"506 279 OFFCURVE",
"468 364 CURVE SMOOTH",
"459 385 OFFCURVE",
"451 408 OFFCURVE",
"446 433 CURVE",
"1108 1167 LINE",
"1123 1153 OFFCURVE",
"1139 1137 OFFCURVE",
"1154 1120 CURVE",
"1179 1246 LINE",
"1357 1444 LINE",
"1218 1559 LINE",
"1148 1482 LINE",
"1127 1490 OFFCURVE",
"1106 1497 OFFCURVE",
"1083 1502 CURVE SMOOTH",
"1033 1514 OFFCURVE",
"980 1520 OFFCURVE",
"923 1520 CURVE SMOOTH",
"722 1520 OFFCURVE",
"555 1454 OFFCURVE",
"424 1321 CURVE SMOOTH",
"160 1056 OFFCURVE",
"99 573 OFFCURVE",
"135 356 CURVE",
"-140 51 LINE",
"-1 -63 LINE",
"204 164 LINE",
"285 35 OFFCURVE",
"424 -29 OFFCURVE",
"622 -29 CURVE SMOOTH",
"735 -29 OFFCURVE",
"842 -5 OFFCURVE",
"945 43 CURVE",
"1009 371 LINE"
);
}
);
width = 1233;
}
);
note = uni023B;
unicode = 023B;
},
{
glyphname = D;
lastChange = "2018-03-04 05:27:23 +0000";
layers = (
{
layerId = "4E366C66-7BF6-431B-9C64-252368655686";
paths = (
{
closed = 1;
nodes = (
"453 1327 LINE",
"567 1327 LINE SMOOTH",
"824 1327 OFFCURVE",
"924 1234 OFFCURVE",
"924 999 CURVE SMOOTH",
"924 822 OFFCURVE",
"873 585 OFFCURVE",
"801 432 CURVE SMOOTH",
"710 244 OFFCURVE",
"571 166 OFFCURVE",
"324 166 CURVE SMOOTH",
"227 166 LINE"
);
},
{
closed = 1;
nodes = (
"-8 0 LINE",
"295 0 LINE SMOOTH",
"648 0 OFFCURVE",
"836 99 OFFCURVE",
"975 354 CURVE SMOOTH",
"1070 531 OFFCURVE",
"1130 777 OFFCURVE",
"1130 993 CURVE SMOOTH",
"1130 1329 OFFCURVE",
"950 1493 OFFCURVE",
"586 1493 CURVE SMOOTH",
"283 1493 LINE"
);
}
);
width = 1233;
},
{
layerId = "024CB45B-04BA-4429-B396-A6A8F0C0F775";
paths = (
{
closed = 1;
nodes = (
"778 1227 OFFCURVE",
"860 1143 OFFCURVE",
"860 967 CURVE SMOOTH",
"860 799 OFFCURVE",
"812 583 OFFCURVE",
"743 442 CURVE SMOOTH",
"686 325 OFFCURVE",
"583 266 OFFCURVE",
"434 266 CURVE SMOOTH",
"338 266 LINE",
"524 1227 LINE",
"606 1227 LINE SMOOTH"
);
},
{
closed = 1;
nodes = (
"322 0 LINE SMOOTH",
"614 0 OFFCURVE",
"772 49 OFFCURVE",
"897 172 CURVE SMOOTH",
"993 264 OFFCURVE",
"1061 401 OFFCURVE",
"1110 602 CURVE SMOOTH",
"1147 753 OFFCURVE",
"1165 883 OFFCURVE",
"1165 999 CURVE SMOOTH",
"1165 1330 OFFCURVE",
"978 1493 OFFCURVE",
"598 1493 CURVE SMOOTH",
"283 1493 LINE",
"-8 0 LINE"
);
}
);
width = 1233;
}
);
note = D;
unicode = 0044;
},
{
glyphname = Eth;
lastChange = "2018-03-04 05:27:23 +0000";
layers = (
{
layerId = "4E366C66-7BF6-431B-9C64-252368655686";
paths = (
{
closed = 1;
nodes = (
"334 709 LINE",
"600 709 LINE",
"629 858 LINE",
"362 858 LINE",
"453 1327 LINE",
"567 1327 LINE SMOOTH",
"824 1327 OFFCURVE",
"924 1234 OFFCURVE",
"924 999 CURVE SMOOTH",
"924 822 OFFCURVE",
"873 585 OFFCURVE",
"801 432 CURVE SMOOTH",
"710 244 OFFCURVE",
"571 166 OFFCURVE",
"324 166 CURVE SMOOTH",
"227 166 LINE"
);
},
{
closed = 1;
nodes = (
"160 858 LINE",
"31 858 LINE",
"2 709 LINE",
"129 709 LINE",
"-8 0 LINE",
"295 0 LINE SMOOTH",
"648 0 OFFCURVE",
"836 99 OFFCURVE",
"975 354 CURVE SMOOTH",
"1070 531 OFFCURVE",
"1130 777 OFFCURVE",
"1130 993 CURVE SMOOTH",
"1130 1329 OFFCURVE",
"950 1493 OFFCURVE",
"586 1493 CURVE SMOOTH",
"283 1493 LINE"
);
}
);
width = 1233;
},
{
layerId = "024CB45B-04BA-4429-B396-A6A8F0C0F775";
paths = (
{
closed = 1;
nodes = (
"31 901 LINE",
"-16 664 LINE",
"121 664 LINE",
"-8 0 LINE",
"322 0 LINE SMOOTH",
"614 0 OFFCURVE",
"772 49 OFFCURVE",
"897 172 CURVE SMOOTH",
"993 264 OFFCURVE",
"1061 401 OFFCURVE",
"1110 602 CURVE SMOOTH",
"1147 753 OFFCURVE",
"1165 883 OFFCURVE",
"1165 999 CURVE SMOOTH",
"1165 1330 OFFCURVE",
"978 1493 OFFCURVE",
"598 1493 CURVE SMOOTH",
"283 1493 LINE",
"166 901 LINE"
);
},
{
closed = 1;
nodes = (
"778 1227 OFFCURVE",
"860 1143 OFFCURVE",
"860 967 CURVE SMOOTH",
"860 799 OFFCURVE",
"812 583 OFFCURVE",
"743 442 CURVE SMOOTH",
"686 325 OFFCURVE",
"583 266 OFFCURVE",
"434 266 CURVE SMOOTH",
"338 266 LINE",
"416 664 LINE",
"627 664 LINE",
"672 901 LINE",
"461 901 LINE",
"524 1227 LINE",
"606 1227 LINE SMOOTH"
);
}
);
width = 1233;
}
);
note = Eth;
unicode = 00D0;
},
{
glyphname = Dhook;
lastChange = "2018-03-04 05:27:23 +0000";
layers = (
{
layerId = "4E366C66-7BF6-431B-9C64-252368655686";
paths = (
{
closed = 1;
nodes = (
"303 1493 OFFCURVE",
"133 1390 OFFCURVE",
"86 1149 CURVE SMOOTH",
"73 1079 LINE",
"229 1079 LINE",
"238 1128 LINE SMOOTH",
"267 1280 OFFCURVE",
"367 1327 OFFCURVE",
"439 1327 CURVE",
"181 0 LINE",
"414 0 LINE SMOOTH",
"870 0 OFFCURVE",
"1125 236 OFFCURVE",
"1225 745 CURVE SMOOTH",
"1324 1257 OFFCURVE",
"1160 1493 OFFCURVE",
"704 1493 CURVE SMOOTH",
"471 1493 LINE SMOOTH"
);
},
{
closed = 1;
nodes = (
"642 1327 LINE",
"668 1327 LINE SMOOTH",
"1009 1327 OFFCURVE",
"1097 1186 OFFCURVE",
"1012 745 CURVE SMOOTH",
"927 308 OFFCURVE",
"782 166 OFFCURVE",
"442 166 CURVE SMOOTH",
"416 166 LINE"
);
}
);
width = 1233;
},
{
layerId = "024CB45B-04BA-4429-B396-A6A8F0C0F775";
paths = (
{
closed = 1;
nodes = (
"373 0 LINE SMOOTH",
"861 0 OFFCURVE",
"1103 219 OFFCURVE",
"1206 748 CURVE SMOOTH",
"1309 1276 OFFCURVE",
"1151 1493 OFFCURVE",
"663 1493 CURVE SMOOTH",
"427 1493 LINE SMOOTH",
"410 1493 OFFCURVE",
"392 1492 OFFCURVE",
"375 1489 CURVE",
"188 1464 OFFCURVE",
"88 1341 OFFCURVE",
"49 1141 CURVE SMOOTH",
"34 1064 LINE",
"289 1064 LINE",
"293 1088 LINE",
"301 1125 OFFCURVE",
"332 1206 OFFCURVE",
"371 1206 CURVE",
"137 0 LINE"
);
},
{
closed = 1;
nodes = (
"902 1227 OFFCURVE",
"967 1096 OFFCURVE",
"899 748 CURVE SMOOTH",
"831 397 OFFCURVE",
"716 266 OFFCURVE",
"484 266 CURVE",
"670 1227 LINE"
);
}
);
width = 1233;
}
);
note = uni018A;
unicode = 018A;
},
{
glyphname = Dtopbar;
lastChange = "2018-03-04 05:27:23 +0000";
layers = (
{
layerId = "4E366C66-7BF6-431B-9C64-252368655686";
paths = (
{
closed = 1;
nodes = (
"582 166 LINE SMOOTH",
"347 166 OFFCURVE",
"271 242 OFFCURVE",
"307 430 CURVE SMOOTH",
"346 625 OFFCURVE",
"464 713 OFFCURVE",
"688 713 CURVE SMOOTH",
"927 713 LINE",
"821 166 LINE"
);
},
{
closed = 1;
nodes = (
"959 877 LINE",
"724 877 LINE",
"470 867 OFFCURVE",
"297 798 OFFCURVE",
"204 671 CURVE SMOOTH",
"156 604 OFFCURVE",
"122 517 OFFCURVE",
"101 410 CURVE SMOOTH",
"48 139 OFFCURVE",
"199 0 OFFCURVE",
"550 0 CURVE SMOOTH",
"992 0 LINE",
"1282 1493 LINE",
"380 1493 LINE",
"348 1327 LINE",
"1047 1327 LINE"
);
}
);
width = 1233;
},
{
layerId = "024CB45B-04BA-4429-B396-A6A8F0C0F775";
paths = (
{
closed = 1;
nodes = (
"579 236 LINE SMOOTH",
"391 236 OFFCURVE",
"335 292 OFFCURVE",
"366 451 CURVE SMOOTH",
"398 612 OFFCURVE",
"484 678 OFFCURVE",
"665 678 CURVE SMOOTH",
"861 678 LINE",
"775 236 LINE"
);
},
{
closed = 1;
nodes = (
"974 1260 LINE",
"906 913 LINE",
"710 913 LINE SMOOTH",
"529 911 OFFCURVE",
"382 861 OFFCURVE",
"269 763 CURVE",
"217 713 LINE SMOOTH",
"202 698 OFFCURVE",
"192 689 OFFCURVE",
"187 684 CURVE",
"129 630 OFFCURVE",
"88 545 OFFCURVE",
"63 429 CURVE",
"62 423 OFFCURVE",
"60 417 OFFCURVE",
"59 410 CURVE",
"4 122 OFFCURVE",
"142 0 OFFCURVE",
"533 0 CURVE SMOOTH",
"1014 0 LINE",
"1304 1493 LINE",
"352 1494 LINE",
"307 1260 LINE"
);
}
);
width = 1233;
}
);
note = uni018B;
unicode = 018B;
},
{
glyphname = E;
lastChange = "2018-03-04 05:27:23 +0000";
layers = (
{
layerId = "4E366C66-7BF6-431B-9C64-252368655686";
paths = (
{
closed = 1;
nodes = (
"958 0 LINE",
"991 170 LINE",
"289 170 LINE",
"393 711 LINE",
"1047 711 LINE",
"1079 881 LINE",
"426 881 LINE",
"512 1323 LINE",
"1196 1323 LINE",
"1229 1493 LINE",
"344 1493 LINE",
"53 0 LINE"
);
}
);
width = 1233;
},
{
layerId = "024CB45B-04BA-4429-B396-A6A8F0C0F775";
paths = (
{
closed = 1;
nodes = (
"375 260 LINE",
"451 651 LINE",
"1026 651 LINE",
"1075 911 LINE",
"500 911 LINE",
"563 1233 LINE",
"1198 1233 LINE",
"1249 1493 LINE",
"317 1493 LINE",
"29 0 LINE",
"958 0 LINE",
"1010 260 LINE"
);
}
);
width = 1233;
}
);
note = E;
unicode = 0045;
},
{
glyphname = Eopen;
lastChange = "2018-03-04 05:27:23 +0000";
layers = (
{
layerId = "4E366C66-7BF6-431B-9C64-252368655686";
paths = (
{
closed = 1;
nodes = (
"245 747 OFFCURVE",
"111 611 OFFCURVE",
"72 412 CURVE SMOOTH",
"19 137 OFFCURVE",
"181 -29 OFFCURVE",
"508 -29 CURVE SMOOTH",
"645 -29 OFFCURVE",
"796 -3 OFFCURVE",
"943 45 CURVE",
"982 246 LINE",
"833 175 OFFCURVE",
"694 141 OFFCURVE",
"563 141 CURVE SMOOTH",
"342 141 OFFCURVE",
"240 244 OFFCURVE",
"276 432 CURVE SMOOTH",
"309 605 OFFCURVE",
"458 715 OFFCURVE",
"661 715 CURVE SMOOTH",
"815 715 LINE",
"847 881 LINE",
"693 881 LINE SMOOTH",
"508 881 OFFCURVE",
"415 967 OFFCURVE",
"443 1112 CURVE SMOOTH",
"474 1265 OFFCURVE",
"590 1350 OFFCURVE",
"769 1350 CURVE SMOOTH",
"888 1350 OFFCURVE",
"1008 1323 OFFCURVE",
"1136 1270 CURVE",
"1172 1456 LINE",
"1019 1499 OFFCURVE",
"899 1520 OFFCURVE",
"802 1520 CURVE SMOOTH",
"511 1520 OFFCURVE",
"292 1361 OFFCURVE",
"245 1120 CURVE SMOOTH",
"213 956 OFFCURVE",
"285 844 OFFCURVE",
"450 799 CURVE"
);
}
);
width = 1233;
},
{
layerId = "024CB45B-04BA-4429-B396-A6A8F0C0F775";
paths = (
{
closed = 1;
nodes = (
"869 928 LINE",
"711 928 LINE SMOOTH",
"564 928 OFFCURVE",
"492 989 OFFCURVE",
"513 1094 CURVE SMOOTH",
"534 1205 OFFCURVE",
"631 1270 OFFCURVE",
"778 1270 CURVE SMOOTH",
"890 1270 OFFCURVE",
"1014 1241 OFFCURVE",
"1141 1188 CURVE",
"1193 1456 LINE",
"1064 1497 OFFCURVE",
"934 1520 OFFCURVE",
"811 1520 CURVE SMOOTH",
"496 1520 OFFCURVE",
"283 1374 OFFCURVE",
"235 1133 CURVE SMOOTH",
"200 956 OFFCURVE",
"284 840 OFFCURVE",
"465 805 CURVE",
"244 768 OFFCURVE",
"102 632 OFFCURVE",
"61 416 CURVE SMOOTH",
"5 127 OFFCURVE",
"164 -29 OFFCURVE",
"517 -29 CURVE SMOOTH",
"668 -29 OFFCURVE",
"821 -3 OFFCURVE",
"964 45 CURVE",
"1017 319 LINE",
"880 256 OFFCURVE",
"726 223 OFFCURVE",
"566 223 CURVE SMOOTH",
"406 223 OFFCURVE",
"322 303 OFFCURVE",
"346 428 CURVE SMOOTH",
"377 581 OFFCURVE",
"490 668 OFFCURVE",
"661 668 CURVE SMOOTH",
"819 668 LINE"
);
}
);
width = 1233;
}
);
note = uni0190;
unicode = 0190;
},
{
glyphname = Ereversed;
lastChange = "2018-03-04 05:27:23 +0000";
layers = (
{
layerId = "4E366C66-7BF6-431B-9C64-252368655686";
paths = (
{
closed = 1;
nodes = (
"328 1323 LINE",
"1012 1323 LINE",
"926 881 LINE",
"272 881 LINE",
"239 711 LINE",
"893 711 LINE",
"788 170 LINE",
"85 170 LINE",
"52 0 LINE",
"957 0 LINE",
"1247 1493 LINE",
"361 1493 LINE"
);
}
);
width = 1233;
},
{
layerId = "024CB45B-04BA-4429-B396-A6A8F0C0F775";
paths = (
{
closed = 1;
nodes = (
"1243 1493 LINE",
"313 1493 LINE",
"263 1233 LINE",
"898 1233 LINE",
"835 911 LINE",
"260 911 LINE",
"209 651 LINE",
"784 651 LINE",
"708 260 LINE",
"73 260 LINE",
"23 0 LINE",
"953 0 LINE"
);
}
);
width = 1233;
}
);
note = uni018E;
unicode = 018E;
},
{
glyphname = Ezh;
lastChange = "2018-03-04 05:27:23 +0000";
layers = (
{
layerId = "4E366C66-7BF6-431B-9C64-252368655686";
paths = (
{
closed = 1;
nodes = (
"-87 140 OFFCURVE",
"87 -28 OFFCURVE",
"476 -28 CURVE SMOOTH",
"663 -28 OFFCURVE",
"815 12 OFFCURVE",
"932 93 CURVE SMOOTH",
"1166 254 OFFCURVE",
"1197 538 OFFCURVE",
"1116 677 CURVE SMOOTH",
"1029 821 OFFCURVE",
"878 884 OFFCURVE",
"738 884 CURVE",
"1200 1325 LINE",
"1232 1493 LINE",
"263 1493 LINE",
"230 1323 LINE",
"967 1323 LINE",
"512 882 LINE",
"479 716 LINE",
"653 716 LINE SMOOTH",
"873 716 OFFCURVE",
"984 614 OFFCURVE",
"949 435 CURVE SMOOTH",
"912 244 OFFCURVE",
"755 142 OFFCURVE",
"503 142 CURVE SMOOTH",
"250 142 OFFCURVE",
"134 244 OFFCURVE",
"171 435 CURVE",
"-30 435 LINE"
);
}
);
width = 1233;
},
{
layerId = "024CB45B-04BA-4429-B396-A6A8F0C0F775";
paths = (
{
closed = 1;
nodes = (
"1183 525 OFFCURVE",
"1173 612 OFFCURVE",
"1134 685 CURVE SMOOTH",
"1062 818 OFFCURVE",
"953 836 OFFCURVE",
"762 848 CURVE",
"1241 1249 LINE",
"1289 1493 LINE",
"279 1493 LINE",
"228 1233 LINE",
"794 1233 LINE",
"351 864 LINE",
"308 646 LINE",
"563 646 LINE SMOOTH",
"589 646 OFFCURVE",
"613 645 OFFCURVE",
"635 642 CURVE SMOOTH",
"782 626 OFFCURVE",
"843 558 OFFCURVE",
"820 439 CURVE SMOOTH",
"816 418 OFFCURVE",
"810 399 OFFCURVE",
"801 380 CURVE SMOOTH",
"754 283 OFFCURVE",
"653 234 OFFCURVE",
"496 234 CURVE SMOOTH",
"365 234 OFFCURVE",
"244 296 OFFCURVE",
"272 439 CURVE",
"-46 439 LINE",
"-103 142 OFFCURVE",
"25 -28 OFFCURVE",
"476 -28 CURVE SMOOTH",
"767 -28 OFFCURVE",
"1092 50 OFFCURVE",
"1164 425 CURVE SMOOTH"
);
}
);
width = 1233;
}
);
note = uni01B7;
unicode = 01B7;
},
{
glyphname = Ezhreversed;
lastChange = "2018-03-04 05:27:23 +0000";
layers = (
{
layerId = "4E366C66-7BF6-431B-9C64-252368655686";
paths = (
{
closed = 1;
nodes = (
"912 244 OFFCURVE",
"755 142 OFFCURVE",
"503 142 CURVE SMOOTH",
"250 142 OFFCURVE",
"134 244 OFFCURVE",
"171 435 CURVE SMOOTH",
"206 614 OFFCURVE",
"355 716 OFFCURVE",
"575 716 CURVE SMOOTH",
"749 716 LINE",
"782 882 LINE",
"497 1323 LINE",
"1234 1323 LINE",
"1267 1493 LINE",
"298 1493 LINE",
"266 1325 LINE",
"556 884 LINE",
"486 884 OFFCURVE",
"404 865 OFFCURVE",
"311 828 CURVE SMOOTH",
"168 771 OFFCURVE",
"5 619 OFFCURVE",
"-30 435 CURVE SMOOTH",
"-87 140 OFFCURVE",
"91 -28 OFFCURVE",
"464 -28 CURVE SMOOTH",
"853 -28 OFFCURVE",
"1093 140 OFFCURVE",
"1150 435 CURVE",
"949 435 LINE"
);
}
);
width = 1233;
},
{
layerId = "024CB45B-04BA-4429-B396-A6A8F0C0F775";
paths = (
{
closed = 1;
nodes = (
"430 234 OFFCURVE",
"265 254 OFFCURVE",
"301 439 CURVE SMOOTH",
"328 577 OFFCURVE",
"440 646 OFFCURVE",
"638 646 CURVE SMOOTH",
"893 646 LINE",
"936 864 LINE",
"635 1233 LINE",
"1201 1233 LINE",
"1252 1493 LINE",
"242 1493 LINE",
"194 1249 LINE",
"517 848 LINE",
"322 836 OFFCURVE",
"205 821 OFFCURVE",
"70 670 CURVE SMOOTH",
"-51 534 OFFCURVE",
"-73 353 OFFCURVE",
"-52 246 CURVE SMOOTH",
"-14 63 OFFCURVE",
"158 -28 OFFCURVE",
"463 -28 CURVE SMOOTH",
"914 -28 OFFCURVE",
"1110 142 OFFCURVE",
"1167 439 CURVE",
"849 439 LINE",
"830 340 OFFCURVE",
"734 234 OFFCURVE",
"545 234 CURVE SMOOTH"
);
}
);
width = 1233;
}
);
note = uni01B8;
unicode = 01B8;
},
{
glyphname = F;
lastChange = "2018-03-04 05:27:23 +0000";
layers = (
{
layerId = "4E366C66-7BF6-431B-9C64-252368655686";
paths = (
{
closed = 1;
nodes = (
"295 0 LINE",
"434 713 LINE",
"1047 713 LINE",
"1079 883 LINE",
"467 883 LINE",
"553 1323 LINE",
"1229 1323 LINE",
"1262 1493 LINE",
"383 1493 LINE",
"92 0 LINE"
);
}
);
width = 1233;
},
{
layerId = "024CB45B-04BA-4429-B396-A6A8F0C0F775";
paths = (
{
closed = 1;
nodes = (
"338 1493 LINE",
"47 0 LINE",
"342 0 LINE",
"469 651 LINE",
"1047 651 LINE",
"1098 911 LINE",
"520 911 LINE",
"582 1233 LINE",
"1217 1233 LINE",
"1268 1493 LINE"
);
}
);
width = 1233;
}
);
note = F;
unicode = 0046;
},
{
glyphname = Fhook;
lastChange = "2018-03-04 05:27:23 +0000";
layers = (
{
layerId = "4E366C66-7BF6-431B-9C64-252368655686";
paths = (
{
closed = 1;
nodes = (
"241 -188 OFFCURVE",
"166 -270 OFFCURVE",
"46 -270 CURVE SMOOTH",
"-92 -270 LINE",
"-123 -426 LINE",
"53 -426 LINE SMOOTH",
"273 -426 OFFCURVE",
"427 -280 OFFCURVE",
"476 -20 CURVE SMOOTH",
"619 713 LINE",
"1143 713 LINE",
"1176 883 LINE",
"652 883 LINE",
"737 1323 LINE",
"1324 1323 LINE",
"1358 1493 LINE",
"568 1493 LINE",
"273 -20 LINE SMOOTH"
);
}
);
width = 1233;
},
{
layerId = "024CB45B-04BA-4429-B396-A6A8F0C0F775";
paths = (
{
closed = 1;
nodes = (
"478 1493 LINE",
"220 168 LINE",
"196 43 LINE SMOOTH",
"160 -140 OFFCURVE",
"106 -199 OFFCURVE",
"-33 -199 CURVE",
"-77 -424 LINE",
"9 -424 LINE SMOOTH",
"289 -424 OFFCURVE",
"415 -288 OFFCURVE",
"482 0 CURVE SMOOTH",
"491 43 LINE",
"515 168 LINE",
"609 651 LINE",
"1091 651 LINE",
"1142 911 LINE",
"659 911 LINE",
"722 1233 LINE",
"1262 1233 LINE",
"1312 1493 LINE"
);
}
);
width = 1233;
}
);
note = uni0191;
unicode = 0191;
},
{
glyphname = G;
lastChange = "2018-03-04 05:27:23 +0000";
layers = (
{
layerId = "4E366C66-7BF6-431B-9C64-252368655686";
paths = (
{
closed = 1;
nodes = (
"692 766 LINE",
"662 600 LINE",
"879 600 LINE",
"803 207 LINE",
"754 160 OFFCURVE",
"681 135 OFFCURVE",
"590 135 CURVE SMOOTH",
"397 135 OFFCURVE",
"287 264 OFFCURVE",
"287 492 CURVE SMOOTH",
"287 600 OFFCURVE",
"311 735 OFFCURVE",
"356 887 CURVE SMOOTH",
"396 1016 OFFCURVE",
"449 1123 OFFCURVE",
"508 1192 CURVE SMOOTH",
"599 1300 OFFCURVE",
"715 1356 OFFCURVE",
"846 1356 CURVE SMOOTH",
"954 1356 OFFCURVE",
"1048 1315 OFFCURVE",
"1135 1231 CURVE",
"1176 1438 LINE",
"1073 1491 OFFCURVE",
"967 1520 OFFCURVE",
"860 1520 CURVE SMOOTH",
"639 1520 OFFCURVE",
"471 1439 OFFCURVE",
"328 1266 CURVE SMOOTH",
"253 1177 OFFCURVE",
"190 1049 OFFCURVE",
"143 893 CURVE SMOOTH",
"100 745 OFFCURVE",
"78 609 OFFCURVE",
"78 489 CURVE SMOOTH",
"78 157 OFFCURVE",
"250 -29 OFFCURVE",
"559 -29 CURVE SMOOTH",
"715 -29 OFFCURVE",
"853 13 OFFCURVE",
"969 96 CURVE",
"1102 766 LINE"
);
}
);
width = 1233;
},
{
layerId = "024CB45B-04BA-4429-B396-A6A8F0C0F775";
paths = (
{
closed = 1;
nodes = (
"670 803 LINE",
"621 555 LINE",
"827 555 LINE",
"770 264 LINE",
"738 243 OFFCURVE",
"695 231 OFFCURVE",
"647 231 CURVE SMOOTH",
"492 231 OFFCURVE",
"403 340 OFFCURVE",
"403 532 CURVE SMOOTH",
"403 636 OFFCURVE",
"426 760 OFFCURVE",
"469 891 CURVE SMOOTH",
"502 994 OFFCURVE",
"549 1078 OFFCURVE",
"604 1141 CURVE SMOOTH",
"673 1217 OFFCURVE",
"761 1257 OFFCURVE",
"856 1257 CURVE SMOOTH",
"964 1257 OFFCURVE",
"1058 1209 OFFCURVE",
"1126 1120 CURVE",
"1192 1448 LINE",
"1089 1496 OFFCURVE",
"985 1520 OFFCURVE",
"877 1520 CURVE SMOOTH",
"674 1520 OFFCURVE",
"498 1442 OFFCURVE",
"367 1294 CURVE SMOOTH",
"207 1114 OFFCURVE",
"102 811 OFFCURVE",
"102 524 CURVE SMOOTH",
"102 173 OFFCURVE",
"287 -29 OFFCURVE",
"610 -29 CURVE SMOOTH",
"763 -29 OFFCURVE",
"898 15 OFFCURVE",
"991 94 CURVE",
"1130 803 LINE"
);
}
);
width = 1233;
}
);
note = G;
unicode = 0047;
},
{
glyphname = Ghook;
lastChange = "2018-03-04 05:27:23 +0000";
layers = (
{
layerId = "4E366C66-7BF6-431B-9C64-252368655686";
paths = (
{
closed = 1;
nodes = (
"636 766 LINE",
"604 600 LINE",
"821 600 LINE",
"743 199 LINE",
"679 155 OFFCURVE",
"610 135 OFFCURVE",
"521 135 CURVE SMOOTH",
"257 135 OFFCURVE",
"170 330 OFFCURVE",
"251 745 CURVE SMOOTH",
"330 1153 OFFCURVE",
"501 1356 OFFCURVE",
"764 1356 CURVE SMOOTH",
"891 1356 OFFCURVE",
"992 1309 OFFCURVE",
"1080 1206 CURVE",
"1086 1233 LINE SMOOTH",
"1121 1413 OFFCURVE",
"1201 1483 OFFCURVE",
"1313 1483 CURVE",
"1344 1639 LINE",
"1324 1639 LINE SMOOTH",
"1214 1639 OFFCURVE",
"1122 1604 OFFCURVE",
"1048 1533 CURVE SMOOTH",
"1031 1516 OFFCURVE",
"1015 1499 OFFCURVE",
"1002 1482 CURVE",
"970 1494 LINE",
"916 1511 OFFCURVE",
"858 1520 OFFCURVE",
"795 1520 CURVE SMOOTH",
"415 1520 OFFCURVE",
"135 1233 OFFCURVE",
"40 745 CURVE SMOOTH",
"-56 256 OFFCURVE",
"110 -29 OFFCURVE",
"489 -29 CURVE SMOOTH",
"646 -29 OFFCURVE",
"793 23 OFFCURVE",
"921 123 CURVE",
"1046 766 LINE"
);
}
);
width = 1233;
},
{
layerId = "024CB45B-04BA-4429-B396-A6A8F0C0F775";
paths = (
{
closed = 1;
nodes = (
"510 236 OFFCURVE",
"478 242 OFFCURVE",
"449 254 CURVE SMOOTH",
"318 307 OFFCURVE",
"280 470 OFFCURVE",
"333 745 CURVE SMOOTH",
"337 764 OFFCURVE",
"341 783 OFFCURVE",
"345 801 CURVE SMOOTH",
"416 1104 OFFCURVE",
"556 1255 OFFCURVE",
"766 1255 CURVE SMOOTH",
"894 1255 OFFCURVE",
"989 1203 OFFCURVE",
"1051 1098 CURVE",
"1054 1094 LINE",
"1070 1176 LINE SMOOTH",
"1106 1364 OFFCURVE",
"1175 1418 OFFCURVE",
"1299 1418 CURVE SMOOTH",
"1314 1418 LINE",
"1358 1643 LINE",
"1260 1643 LINE SMOOTH",
"1120 1643 OFFCURVE",
"1013 1607 OFFCURVE",
"940 1535 CURVE",
"931 1527 OFFCURVE",
"923 1518 OFFCURVE",
"915 1508 CURVE",
"876 1516 OFFCURVE",
"837 1520 OFFCURVE",
"797 1520 CURVE SMOOTH",
"683 1520 OFFCURVE",
"579 1498 OFFCURVE",
"484 1453 CURVE SMOOTH",
"249 1342 OFFCURVE",
"96 1106 OFFCURVE",
"26 745 CURVE SMOOTH",
"-70 250 OFFCURVE",
"94 -29 OFFCURVE",
"481 -29 CURVE SMOOTH",
"638 -29 OFFCURVE",
"783 20 OFFCURVE",
"917 119 CURVE",
"1050 803 LINE",
"590 803 LINE",
"542 555 LINE",
"744 555 LINE",
"689 270 LINE",
"656 247 OFFCURVE",
"609 236 OFFCURVE",
"547 236 CURVE SMOOTH"
);
}
);
width = 1233;
}
);
note = uni0193;
unicode = 0193;
},
{
glyphname = Glottalstop;
lastChange = "2018-03-04 05:27:23 +0000";
layers = (
{
layerId = "4E366C66-7BF6-431B-9C64-252368655686";
paths = (
{
closed = 1;
nodes = (
"970 1327 OFFCURVE",
"1060 1224 OFFCURVE",
"1025 1047 CURVE SMOOTH",
"990 870 OFFCURVE",
"860 766 OFFCURVE",
"673 766 CURVE SMOOTH",
"471 766 LINE",
"322 0 LINE",
"524 0 LINE",
"641 600 LINE",
"976 600 OFFCURVE",
"1179 752 OFFCURVE",
"1236 1047 CURVE SMOOTH",
"1292 1339 OFFCURVE",
"1147 1493 OFFCURVE",
"814 1493 CURVE SMOOTH",
"519 1493 LINE SMOOTH",
"351 1493 OFFCURVE",
"181 1390 OFFCURVE",
"134 1149 CURVE SMOOTH",
"120 1079 LINE",
"276 1079 LINE",
"286 1128 LINE SMOOTH",
"315 1280 OFFCURVE",
"415 1327 OFFCURVE",
"487 1327 CURVE SMOOTH",
"782 1327 LINE SMOOTH"
);
}
);
width = 1233;
},
{
layerId = "024CB45B-04BA-4429-B396-A6A8F0C0F775";
paths = (
{
closed = 1;
nodes = (
"900 1214 OFFCURVE",
"971 1139 OFFCURVE",
"945 1006 CURVE SMOOTH",
"919 873 OFFCURVE",
"819 797 OFFCURVE",
"670 797 CURVE SMOOTH",
"328 797 LINE",
"173 0 LINE",
"468 0 LINE",
"569 518 LINE",
"949 518 OFFCURVE",
"1193 693 OFFCURVE",
"1254 1006 CURVE SMOOTH",
"1314 1318 OFFCURVE",
"1137 1494 OFFCURVE",
"758 1493 CURVE SMOOTH",
"603 1492 LINE SMOOTH",
"558 1492 OFFCURVE",
"519 1491 OFFCURVE",
"486 1488 CURVE SMOOTH",
"392 1479 OFFCURVE",
"316 1453 OFFCURVE",
"258 1411 CURVE SMOOTH",
"233 1392 OFFCURVE",
"212 1375 OFFCURVE",
"197 1359 CURVE SMOOTH",
"156 1315 OFFCURVE",
"126 1241 OFFCURVE",
"106 1138 CURVE SMOOTH",
"91 1061 LINE",
"346 1061 LINE",
"351 1084 OFFCURVE",
"354 1099 OFFCURVE",
"356 1108 CURVE SMOOTH",
"372 1172 OFFCURVE",
"412 1213 OFFCURVE",
"469 1213 CURVE SMOOTH",
"470 1213 OFFCURVE",
"497 1213 OFFCURVE",
"549 1213 CURVE SMOOTH",
"751 1214 LINE SMOOTH"
);
}
);
width = 1233;
}
);
note = uni0241;
unicode = 0241;
},
{
glyphname = Yogh;
lastChange = "2018-03-04 05:27:23 +0000";
layers = (
{
layerId = "4E366C66-7BF6-431B-9C64-252368655686";
paths = (
{
closed = 1;
nodes = (
"1323 1397 OFFCURVE",
"1166 1520 OFFCURVE",
"938 1520 CURVE SMOOTH",
"801 1520 OFFCURVE",
"641 1465 OFFCURVE",
"458 1356 CURVE",
"418 1166 LINE",
"605 1289 OFFCURVE",
"761 1350 OFFCURVE",
"884 1350 CURVE SMOOTH",
"940 1350 OFFCURVE",
"990 1339 OFFCURVE",
"1038 1315 CURVE SMOOTH",
"1085 1290 OFFCURVE",
"1115 1240 OFFCURVE",
"1115 1173 CURVE SMOOTH",
"1115 1093 OFFCURVE",
"1083 1009 OFFCURVE",
"1019 925 CURVE SMOOTH",
"955 841 OFFCURVE",
"839 758 OFFCURVE",
"694 701 CURVE SMOOTH",
"423 595 LINE",
"387 424 LINE",
"565 496 LINE SMOOTH",
"656 532 OFFCURVE",
"732 548 OFFCURVE",
"793 545 CURVE SMOOTH",
"916 538 OFFCURVE",
"980 469 OFFCURVE",
"980 356 CURVE SMOOTH",
"980 315 OFFCURVE",
"970 274 OFFCURVE",
"951 233 CURVE SMOOTH",
"912 149 OFFCURVE",
"820 55 OFFCURVE",
"684 -29 CURVE SMOOTH",
"547 -114 OFFCURVE",
"332 -202 OFFCURVE",
"68 -270 CURVE",
"34 -430 LINE",
"771 -274 OFFCURVE",
"1185 43 OFFCURVE",
"1185 388 CURVE SMOOTH",
"1185 447 OFFCURVE",
"1171 498 OFFCURVE",
"1138 554 CURVE SMOOTH",
"1105 609 OFFCURVE",
"1036 653 OFFCURVE",
"943 674 CURVE",
"944 675 OFFCURVE",
"952 680 OFFCURVE",
"966 688 CURVE SMOOTH",
"979 696 OFFCURVE",
"992 703 OFFCURVE",
"1003 710 CURVE SMOOTH",
"1025 723 OFFCURVE",
"1068 754 OFFCURVE",
"1099 779 CURVE SMOOTH",
"1130 804 OFFCURVE",
"1173 846 OFFCURVE",
"1204 884 CURVE SMOOTH",
"1235 922 OFFCURVE",
"1268 974 OFFCURVE",
"1289 1024 CURVE SMOOTH",
"1309 1074 OFFCURVE",
"1323 1137 OFFCURVE",
"1323 1200 CURVE SMOOTH"
);
}
);
width = 1233;
},
{
layerId = "024CB45B-04BA-4429-B396-A6A8F0C0F775";
paths = (
{
closed = 1;
nodes = (
"1386 1203 OFFCURVE",
"1382 1235 OFFCURVE",
"1373 1266 CURVE SMOOTH",
"1355 1328 OFFCURVE",
"1307 1394 OFFCURVE",
"1238 1441 CURVE SMOOTH",
"1169 1488 OFFCURVE",
"1055 1520 OFFCURVE",
"916 1520 CURVE SMOOTH",
"759 1520 OFFCURVE",
"589 1465 OFFCURVE",
"406 1356 CURVE",
"352 1100 LINE",
"534 1204 OFFCURVE",
"675 1256 OFFCURVE",
"774 1256 CURVE SMOOTH",
"822 1256 OFFCURVE",
"869 1247 OFFCURVE",
"914 1226 CURVE SMOOTH",
"959 1205 OFFCURVE",
"989 1162 OFFCURVE",
"989 1106 CURVE SMOOTH",
"989 1086 OFFCURVE",
"987 1066 OFFCURVE",
"982 1045 CURVE SMOOTH",
"972 1004 OFFCURVE",
"938 943 OFFCURVE",
"886 892 CURVE SMOOTH",
"833 841 OFFCURVE",
"738 782 OFFCURVE",
"618 737 CURVE SMOOTH",
"363 642 LINE",
"309 388 LINE",
"544 473 LINE SMOOTH",
"589 490 OFFCURVE",
"631 498 OFFCURVE",
"669 498 CURVE SMOOTH",
"699 498 OFFCURVE",
"727 493 OFFCURVE",
"754 482 CURVE SMOOTH",
"806 461 OFFCURVE",
"848 410 OFFCURVE",
"848 342 CURVE SMOOTH",
"848 277 OFFCURVE",
"806 209 OFFCURVE",
"746 157 CURVE SMOOTH",
"686 104 OFFCURVE",
"595 51 OFFCURVE",
"511 13 CURVE SMOOTH",
"426 -25 OFFCURVE",
"321 -64 OFFCURVE",
"247 -87 CURVE SMOOTH",
"173 -110 OFFCURVE",
"86 -132 OFFCURVE",
"58 -139 CURVE",
"43 -142 OFFCURVE",
"32 -145 OFFCURVE",
"23 -147 CURVE",
"-37 -430 LINE",
"132 -387 OFFCURVE",
"279 -346 OFFCURVE",
"404 -307 CURVE SMOOTH",
"653 -228 OFFCURVE",
"865 -137 OFFCURVE",
"998 -40 CURVE SMOOTH",
"1131 57 OFFCURVE",
"1216 172 OFFCURVE",
"1245 311 CURVE SMOOTH",
"1250 334 OFFCURVE",
"1252 356 OFFCURVE",
"1252 379 CURVE SMOOTH",
"1252 516 OFFCURVE",
"1165 633 OFFCURVE",
"1004 674 CURVE",
"1065 702 OFFCURVE",
"1119 735 OFFCURVE",
"1166 773 CURVE SMOOTH",
"1260 849 OFFCURVE",
"1308 919 OFFCURVE",
"1343 996 CURVE SMOOTH",
"1378 1072 OFFCURVE",
"1386 1125 OFFCURVE",
"1386 1170 CURVE SMOOTH"
);
}
);
width = 1233;
}
);
note = uni021C;
unicode = 021C;
},
{
glyphname = H;
lastChange = "2018-03-04 05:27:23 +0000";
layers = (
{
layerId = "4E366C66-7BF6-431B-9C64-252368655686";
paths = (
{
closed = 1;
nodes = (
"195 0 LINE",
"332 711 LINE",
"887 711 LINE",
"748 0 LINE",
"950 0 LINE",
"1241 1493 LINE",
"1038 1493 LINE",
"920 881 LINE",
"367 881 LINE",
"485 1493 LINE",
"283 1493 LINE",
"-8 0 LINE"
);
}
);
width = 1233;
},
{
layerId = "024CB45B-04BA-4429-B396-A6A8F0C0F775";
paths = (
{
closed = 1;
nodes = (
"287 0 LINE",
"416 664 LINE",
"784 664 LINE",
"655 0 LINE",
"950 0 LINE",
"1241 1493 LINE",
"946 1493 LINE",
"836 924 LINE",
"467 924 LINE",
"578 1493 LINE",
"283 1493 LINE",
"-8 0 LINE"
);
}
);
width = 1233;
}
);
note = H;
unicode = 0048;
},
{
glyphname = Halfh;
lastChange = "2018-03-04 05:27:23 +0000";
layers = (
{
layerId = "4E366C66-7BF6-431B-9C64-252368655686";
paths = (
{
closed = 1;
nodes = (
"195 0 LINE",
"333 711 LINE",
"1089 711 LINE",
"1122 881 LINE",
"366 881 LINE",
"485 1493 LINE",
"282 1493 LINE",
"-8 0 LINE"
);
}
);
width = 1233;
},
{
layerId = "024CB45B-04BA-4429-B396-A6A8F0C0F775";
paths = (
{
closed = 1;
nodes = (
"287 0 LINE",
"416 664 LINE",
"1080 664 LINE",
"1131 924 LINE",
"467 924 LINE",
"577 1493 LINE",
"282 1493 LINE",
"-8 0 LINE"
);
}
);
width = 1233;
}
);
note = uni2C75;
unicode = 2C75;
},
{
glyphname = Hbar;
lastChange = "2018-03-04 05:27:23 +0000";
layers = (
{
layerId = "4E366C66-7BF6-431B-9C64-252368655686";
paths = (
{
closed = 1;
nodes = (
"105 1269 LINE",
"73 1105 LINE",
"207 1105 LINE",
"-8 0 LINE",
"194 0 LINE",
"332 711 LINE",
"886 711 LINE",
"748 0 LINE",
"950 0 LINE",
"1165 1105 LINE",
"1300 1105 LINE",
"1332 1269 LINE",
"1197 1269 LINE",
"1240 1493 LINE",
"1038 1493 LINE",
"995 1269 LINE",
"441 1269 LINE",
"484 1493 LINE",
"282 1493 LINE",
"239 1269 LINE"
);
},
{
closed = 1;
nodes = (
"919 881 LINE",
"365 881 LINE",
"409 1105 LINE",
"963 1105 LINE"
);
}
);
width = 1233;
},
{
layerId = "024CB45B-04BA-4429-B396-A6A8F0C0F775";
paths = (
{
closed = 1;
nodes = (
"105 1269 LINE",
"73 1105 LINE",
"207 1105 LINE",
"-8 0 LINE",
"287 0 LINE",
"416 664 LINE",
"785 664 LINE",
"656 0 LINE",
"950 0 LINE",
"1165 1105 LINE",
"1300 1105 LINE",
"1332 1269 LINE",
"1197 1269 LINE",
"1240 1493 LINE",
"946 1493 LINE",
"903 1269 LINE",
"534 1269 LINE",
"577 1493 LINE",
"282 1493 LINE",
"239 1269 LINE"
);
},
{
closed = 1;
nodes = (
"836 924 LINE",
"467 924 LINE",
"502 1105 LINE",
"871 1105 LINE"
);
}
);
width = 1233;
}
);
note = Hbar;
unicode = 0126;
},
{
glyphname = Heng;
lastChange = "2018-03-04 05:27:23 +0000";
layers = (
{
layerId = "4E366C66-7BF6-431B-9C64-252368655686";
paths = (
{
closed = 1;
nodes = (
"919 881 LINE",
"366 881 LINE",
"485 1493 LINE",
"282 1493 LINE",
"-8 0 LINE",
"195 0 LINE",
"333 711 LINE",
"886 711 LINE",
"748 0 LINE SMOOTH",
"711 -195 OFFCURVE",
"637 -270 OFFCURVE",
"517 -270 CURVE SMOOTH",
"350 -270 LINE",
"319 -426 LINE",
"524 -426 LINE SMOOTH",
"744 -426 OFFCURVE",
"896 -280 OFFCURVE",
"947 -20 CURVE SMOOTH",
"1241 1493 LINE",
"1038 1493 LINE"
);
}
);
width = 1233;
},
{
layerId = "024CB45B-04BA-4429-B396-A6A8F0C0F775";
paths = (
{
closed = 1;
nodes = (
"946 1493 LINE",
"836 924 LINE",
"467 924 LINE",
"577 1493 LINE",
"282 1493 LINE",
"-8 0 LINE",
"287 0 LINE",
"416 664 LINE",
"785 664 LINE",
"665 44 LINE SMOOTH",
"630 -133 OFFCURVE",
"569 -199 OFFCURVE",
"436 -199 CURVE SMOOTH",
"399 -199 LINE",
"355 -426 LINE",
"476 -426 LINE SMOOTH",
"753 -426 OFFCURVE",
"894 -297 OFFCURVE",
"962 58 CURVE SMOOTH",
"1241 1493 LINE"
);
}
);
width = 1233;
}
);
note = uniA726;
unicode = A726;
},
{
glyphname = Hhook;
lastChange = "2018-03-04 05:27:23 +0000";
layers = (
{
layerId = "4E366C66-7BF6-431B-9C64-252368655686";
paths = (
{
closed = 1;
nodes = (
"192 0 LINE",
"395 0 LINE",
"532 711 LINE",
"1087 711 LINE",
"948 0 LINE",
"1150 0 LINE",
"1441 1493 LINE",
"1238 1493 LINE",
"1120 881 LINE",
"567 881 LINE",
"685 1493 LINE",
"483 1493 LINE SMOOTH",
"315 1493 OFFCURVE",
"145 1390 OFFCURVE",
"98 1149 CURVE SMOOTH",
"84 1079 LINE",
"240 1079 LINE",
"250 1128 LINE SMOOTH",
"279 1280 OFFCURVE",
"378 1327 OFFCURVE",
"450 1327 CURVE"
);
}
);
width = 1233;
},
{
layerId = "024CB45B-04BA-4429-B396-A6A8F0C0F775";
paths = (
{
closed = 1;
nodes = (
"251 1495 OFFCURVE",
"96 1392 OFFCURVE",
"48 1141 CURVE SMOOTH",
"34 1064 LINE",
"289 1064 LINE",
"293 1087 OFFCURVE",
"298 1108 OFFCURVE",
"303 1128 CURVE SMOOTH",
"313 1168 OFFCURVE",
"349 1216 OFFCURVE",
"432 1216 CURVE",
"195 2 LINE",
"490 2 LINE",
"619 666 LINE",
"987 666 LINE",
"858 2 LINE",
"1153 2 LINE",
"1444 1495 LINE",
"1149 1495 LINE",
"1039 926 LINE",
"670 926 LINE",
"781 1495 LINE",
"486 1495 LINE SMOOTH"
);
}
);
width = 1233;
}
);
note = uniA7AA;
unicode = A7AA;
},
{
glyphname = Hwair;
lastChange = "2018-03-04 05:27:23 +0000";
layers = (
{
layerId = "4E366C66-7BF6-431B-9C64-252368655686";
paths = (
{
closed = 1;
nodes = (
"731 135 OFFCURVE",
"711 148 OFFCURVE",
"700 174 CURVE SMOOTH",
"663 267 OFFCURVE",
"663 404 OFFCURVE",
"698 586 CURVE SMOOTH",
"875 1493 LINE",
"692 1493 LINE",
"573 881 LINE",
"274 881 LINE",
"393 1493 LINE",
"211 1493 LINE",
"-80 0 LINE",
"103 0 LINE",
"241 711 LINE",
"540 711 LINE",
"511 561 LINE SMOOTH",
"465 325 OFFCURVE",
"477 156 OFFCURVE",
"546 54 CURVE SMOOTH",
"583 -1 OFFCURVE",
"645 -29 OFFCURVE",
"730 -29 CURVE SMOOTH",
"819 -29 OFFCURVE",
"887 -3 OFFCURVE",
"935 48 CURVE SMOOTH",
"1023 141 OFFCURVE",
"1091 312 OFFCURVE",
"1139 561 CURVE SMOOTH",
"1201 881 LINE",
"1019 881 LINE",
"961 586 LINE SMOOTH",
"926 406 OFFCURVE",
"892 282 OFFCURVE",
"857 214 CURVE SMOOTH",
"830 161 OFFCURVE",
"798 135 OFFCURVE",
"762 135 CURVE SMOOTH"
);
}
);
width = 1233;
},
{
layerId = "024CB45B-04BA-4429-B396-A6A8F0C0F775";
paths = (
{
closed = 1;
nodes = (
"135 0 LINE",
"264 664 LINE",
"486 664 LINE",
"464 551 LINE SMOOTH",
"385 146 OFFCURVE",
"510 -29 OFFCURVE",
"698 -29 CURVE SMOOTH",
"907 -29 OFFCURVE",
"1095 146 OFFCURVE",
"1174 551 CURVE SMOOTH",
"1246 924 LINE",
"995 924 LINE",
"908 477 LINE SMOOTH",
"876 310 OFFCURVE",
"842 238 OFFCURVE",
"750 238 CURVE SMOOTH",
"713 238 OFFCURVE",
"690 255 OFFCURVE",
"681 288 CURVE SMOOTH",
"674 313 OFFCURVE",
"681 376 OFFCURVE",
"700 477 CURVE SMOOTH",
"715 551 LINE",
"898 1493 LINE",
"647 1493 LINE",
"536 924 LINE",
"314 924 LINE",
"425 1493 LINE",
"174 1493 LINE",
"-116 0 LINE"
);
}
);
width = 1233;
}
);
note = uni01F6;
unicode = 01F6;
},
{
glyphname = I;
lastChange = "2018-03-04 05:27:23 +0000";
layers = (
{
layerId = "4E366C66-7BF6-431B-9C64-252368655686";
paths = (
{
closed = 1;
nodes = (
"627 1323 LINE",
"403 170 LINE",
"90 170 LINE",
"57 0 LINE",
"887 0 LINE",
"920 170 LINE",
"606 170 LINE",
"829 1323 LINE",
"1143 1323 LINE",
"1176 1493 LINE",
"346 1493 LINE",
"313 1323 LINE"
);
}
);
width = 1233;
},
{
layerId = "024CB45B-04BA-4429-B396-A6A8F0C0F775";
paths = (
{
closed = 1;
nodes = (
"375 260 LINE",
"78 260 LINE",
"27 0 LINE",
"915 0 LINE",
"967 260 LINE",
"670 260 LINE",
"858 1233 LINE",
"1155 1233 LINE",
"1206 1493 LINE",
"317 1493 LINE",
"266 1233 LINE",
"563 1233 LINE"
);
}
);
width = 1233;
}
);
note = I;
unicode = 0049;
},
{
glyphname = IJ;
lastChange = "2018-03-04 05:27:23 +0000";
layers = (
{
layerId = "4E366C66-7BF6-431B-9C64-252368655686";
paths = (
{
closed = 1;
nodes = (
"714 3 OFFCURVE",
"800 -28 OFFCURVE",
"885 -28 CURVE SMOOTH",
"1092 -28 OFFCURVE",
"1192 103 OFFCURVE",
"1261 488 CURVE SMOOTH",
"1443 1494 LINE",
"1062 1494 LINE",
"1031 1324 LINE",
"1280 1324 LINE",
"1129 488 LINE SMOOTH",
"1104 351 OFFCURVE",
"1075 258 OFFCURVE",
"1042 209 CURVE SMOOTH",
"1009 160 OFFCURVE",
"961 136 OFFCURVE",
"899 136 CURVE SMOOTH",
"808 136 OFFCURVE",
"729 193 OFFCURVE",
"672 298 CURVE",
"631 62 LINE"
);
},
{
closed = 1;
nodes = (
"470 1323 LINE",
"253 170 LINE",
"35 170 LINE",
"3 0 LINE",
"582 0 LINE",
"614 170 LINE",
"395 170 LINE",
"611 1323 LINE",
"830 1323 LINE",
"862 1493 LINE",
"283 1493 LINE",
"251 1323 LINE"
);
}
);
width = 1233;
},
{
layerId = "024CB45B-04BA-4429-B396-A6A8F0C0F775";
paths = (
{
closed = 1;
nodes = (
"720 2 OFFCURVE",
"809 -33 OFFCURVE",
"904 -33 CURVE SMOOTH",
"1001 -33 OFFCURVE",
"1081 5 OFFCURVE",
"1143 78 CURVE SMOOTH",
"1205 151 OFFCURVE",
"1241 248 OFFCURVE",
"1282 475 CURVE SMOOTH",
"1469 1489 LINE",
"1050 1489 LINE",
"1001 1229 LINE",
"1232 1229 LINE",
"1093 475 LINE SMOOTH",
"1060 288 OFFCURVE",
"1014 227 OFFCURVE",
"915 227 CURVE SMOOTH",
"827 227 OFFCURVE",
"756 290 OFFCURVE",
"697 418 CURVE",
"635 74 LINE"
);
},
{
closed = 1;
nodes = (
"255 260 LINE",
"65 260 LINE",
"17 0 LINE",
"586 0 LINE",
"634 260 LINE",
"444 260 LINE",
"621 1233 LINE",
"812 1233 LINE",
"859 1493 LINE",
"290 1493 LINE",
"243 1233 LINE",
"433 1233 LINE"
);
}
);
width = 1233;
}
);
note = IJ;
unicode = 0132;
},
{
glyphname = Iotaafrican;
lastChange = "2018-03-04 05:27:23 +0000";
layers = (
{
layerId = "4E366C66-7BF6-431B-9C64-252368655686";
paths = (
{
closed = 1;
nodes = (
"396 142 OFFCURVE",
"493 0 OFFCURVE",
"720 0 CURVE SMOOTH",
"937 0 LINE",
"969 171 LINE",
"784 171 LINE SMOOTH",
"664 171 OFFCURVE",
"621 252 OFFCURVE",
"654 421 CURVE SMOOTH",
"829 1323 LINE",
"1142 1323 LINE",
"1175 1493 LINE",
"346 1493 LINE",
"313 1323 LINE",
"626 1323 LINE",
"448 406 LINE SMOOTH"
);
}
);
width = 1233;
},
{
layerId = "024CB45B-04BA-4429-B396-A6A8F0C0F775";
paths = (
{
closed = 1;
nodes = (
"356 163 OFFCURVE",
"476 0 OFFCURVE",
"749 0 CURVE SMOOTH",
"983 0 LINE",
"1033 260 LINE",
"848 261 LINE SMOOTH",
"712 262 OFFCURVE",
"679 306 OFFCURVE",
"715 495 CURVE SMOOTH",
"859 1233 LINE",
"1156 1233 LINE",
"1206 1493 LINE",
"317 1493 LINE",
"267 1233 LINE",
"564 1233 LINE",
"415 462 LINE SMOOTH"
);
}
);
width = 1233;
}
);
note = uni0196;
unicode = 0196;
},
{
glyphname = Istroke;
lastChange = "2018-03-04 05:27:23 +0000";
layers = (
{
layerId = "4E366C66-7BF6-431B-9C64-252368655686";
paths = (
{
closed = 1;
nodes = (
"626 1323 LINE",
"514 747 LINE",
"251 747 LINE",
"218 577 LINE",
"481 577 LINE",
"402 170 LINE",
"89 170 LINE",
"56 0 LINE",
"885 0 LINE",
"918 170 LINE",
"605 170 LINE",
"684 577 LINE",
"951 577 LINE",
"984 747 LINE",
"717 747 LINE",
"829 1323 LINE",
"1142 1323 LINE",
"1175 1493 LINE",
"346 1493 LINE",
"313 1323 LINE"
);
}
);
width = 1233;
},
{
layerId = "024CB45B-04BA-4429-B396-A6A8F0C0F775";
paths = (
{
closed = 1;
nodes = (
"466 730 LINE",
"219 730 LINE",
"181 538 LINE",
"428 538 LINE",
"374 260 LINE",
"77 260 LINE",
"27 0 LINE",
"916 0 LINE",
"966 260 LINE",
"669 260 LINE",
"723 538 LINE",
"970 538 LINE",
"1008 730 LINE",
"761 730 LINE",
"859 1233 LINE",
"1156 1233 LINE",
"1206 1493 LINE",
"317 1493 LINE",
"267 1233 LINE",
"564 1233 LINE"
);
}
);
width = 1233;
}
);
note = uni0197;
unicode = 0197;
},
{
glyphname = J;
lastChange = "2018-03-04 05:27:23 +0000";
layers = (
{
layerId = "4E366C66-7BF6-431B-9C64-252368655686";
paths = (
{
closed = 1;
nodes = (
"107 2 OFFCURVE",
"242 -29 OFFCURVE",
"371 -29 CURVE SMOOTH",
"688 -29 OFFCURVE",
"830 102 OFFCURVE",
"905 487 CURVE SMOOTH",
"1102 1493 LINE",
"518 1493 LINE",
"485 1323 LINE",
"866 1323 LINE",
"702 487 LINE SMOOTH",
"649 212 OFFCURVE",
"568 135 OFFCURVE",
"379 135 CURVE SMOOTH",
"242 135 OFFCURVE",
"116 192 OFFCURVE",
"20 297 CURVE",
"-25 61 LINE"
);
}
);
width = 1233;
},
{
layerId = "024CB45B-04BA-4429-B396-A6A8F0C0F775";
paths = (
{
closed = 1;
nodes = (
"120 6 OFFCURVE",
"262 -29 OFFCURVE",
"410 -29 CURVE SMOOTH",
"561 -29 OFFCURVE",
"683 9 OFFCURVE",
"772 82 CURVE SMOOTH",
"861 155 OFFCURVE",
"910 252 OFFCURVE",
"954 479 CURVE SMOOTH",
"1153 1493 LINE",
"498 1493 LINE",
"446 1233 LINE",
"807 1233 LINE",
"659 479 LINE SMOOTH",
"623 292 OFFCURVE",
"558 231 OFFCURVE",
"403 231 CURVE SMOOTH",
"266 231 OFFCURVE",
"149 294 OFFCURVE",
"45 422 CURVE",
"-20 78 LINE"
);
}
);
width = 1233;
}
);
note = J;
unicode = 004A;
},
{
glyphname = K;
lastChange = "2018-03-04 05:27:23 +0000";
layers = (
{
layerId = "4E366C66-7BF6-431B-9C64-252368655686";
paths = (
{
closed = 1;
nodes = (
"195 0 LINE",
"307 573 LINE",
"500 741 LINE",
"860 0 LINE",
"1079 0 LINE",
"651 874 LINE",
"1354 1493 LINE",
"1100 1493 LINE",
"358 846 LINE",
"485 1493 LINE",
"283 1493 LINE",
"-8 0 LINE"
);
}
);
width = 1233;
},
{
layerId = "024CB45B-04BA-4429-B396-A6A8F0C0F775";
paths = (
{
closed = 1;
nodes = (
"276 0 LINE",
"371 500 LINE",
"543 670 LINE",
"797 0 LINE",
"1100 0 LINE",
"762 889 LINE",
"1368 1493 LINE",
"1020 1493 LINE",
"457 936 LINE",
"565 1493 LINE",
"270 1493 LINE",
"-18 0 LINE"
);
}
);
width = 1233;
}
);
note = K;
unicode = 004B;
},
{
glyphname = Khook;
lastChange = "2018-03-04 05:27:23 +0000";
layers = (
{
layerId = "4E366C66-7BF6-431B-9C64-252368655686";
paths = (
{
closed = 1;
nodes = (
"458 1493 LINE",
"255 1493 LINE",
"-35 0 LINE",
"168 0 LINE",
"281 584 LINE",
"467 748 LINE",
"809 0 LINE",
"1053 0 LINE",
"627 883 LINE",
"758 998 OFFCURVE",
"824 1055 OFFCURVE",
"824 1055 CURVE",
"999 1208 OFFCURVE",
"1096 1226 OFFCURVE",
"1156 1138 CURVE SMOOTH",
"1182 1101 LINE",
"1310 1215 LINE",
"1273 1266 LINE SMOOTH",
"1161 1418 OFFCURVE",
"990 1407 OFFCURVE",
"731 1180 CURVE SMOOTH",
"329 829 LINE"
);
}
);
width = 1233;
},
{
layerId = "024CB45B-04BA-4429-B396-A6A8F0C0F775";
paths = (
{
closed = 1;
nodes = (
"1007 1243 OFFCURVE",
"1070 1246 OFFCURVE",
"1155 1165 CURVE",
"1330 1341 LINE",
"1276 1392 LINE SMOOTH",
"1116 1543 OFFCURVE",
"954 1525 OFFCURVE",
"666 1230 CURVE SMOOTH",
"346 903 LINE",
"461 1493 LINE",
"166 1493 LINE",
"-125 0 LINE",
"170 0 LINE",
"269 506 LINE",
"432 672 LINE",
"655 0 LINE",
"983 0 LINE",
"671 905 LINE",
"826 1060 LINE SMOOTH"
);
}
);
width = 1233;
}
);
note = uni0198;
unicode = 0198;
},
{
glyphname = L;
lastChange = "2018-03-04 05:27:23 +0000";
layers = (
{
layerId = "4E366C66-7BF6-431B-9C64-252368655686";
paths = (
{
closed = 1;
nodes = (
"1001 0 LINE",
"1034 170 LINE",
"313 170 LINE",
"571 1493 LINE",
"369 1493 LINE",
"78 0 LINE"
);
}
);
width = 1233;
},
{
layerId = "024CB45B-04BA-4429-B396-A6A8F0C0F775";
paths = (
{
closed = 1;
nodes = (
"1057 260 LINE",
"426 260 LINE",
"666 1493 LINE",
"371 1493 LINE",
"80 0 LINE",
"1006 0 LINE"
);
}
);
width = 1233;
}
);
note = L;
unicode = 004C;
},
{
glyphname = Lbar;
lastChange = "2018-03-04 05:27:23 +0000";
layers = (
{
layerId = "4E366C66-7BF6-431B-9C64-252368655686";
paths = (
{
closed = 1;
nodes = (
"22 747 LINE",
"-11 577 LINE",
"256 577 LINE",
"144 0 LINE",
"1068 0 LINE",
"1101 170 LINE",
"380 170 LINE",
"459 577 LINE",
"722 577 LINE",
"755 747 LINE",
"492 747 LINE",
"637 1493 LINE",
"434 1493 LINE",
"289 747 LINE"
);
}
);
width = 1233;
},
{
layerId = "024CB45B-04BA-4429-B396-A6A8F0C0F775";
paths = (
{
closed = 1;
nodes = (
"-11 538 LINE",
"239 538 LINE",
"134 0 LINE",
"1060 0 LINE",
"1111 260 LINE",
"480 260 LINE",
"534 538 LINE",
"778 538 LINE",
"815 730 LINE",
"571 730 LINE",
"720 1493 LINE",
"425 1493 LINE",
"276 730 LINE",
"26 730 LINE"
);
}
);
width = 1233;
}
);
note = uni023D;
unicode = 023D;
},
{
glyphname = Lslash;
lastChange = "2018-03-04 05:27:23 +0000";
layers = (
{
layerId = "4E366C66-7BF6-431B-9C64-252368655686";
paths = (
{
closed = 1;
nodes = (
"-29 559 LINE",
"45 459 LINE",
"195 563 LINE",
"82 0 LINE",
"1006 0 LINE",
"1038 168 LINE",
"317 168 LINE",
"430 729 LINE",
"829 1008 LINE",
"756 1108 LINE",
"459 899 LINE",
"573 1491 LINE",
"371 1491 LINE",
"231 739 LINE"
);
}
);
width = 1233;
},
{
layerId = "024CB45B-04BA-4429-B396-A6A8F0C0F775";
paths = (
{
closed = 1;
nodes = (
"1057 260 LINE",
"426 260 LINE",
"518 737 LINE",
"936 1032 LINE",
"821 1186 LINE",
"571 1012 LINE",
"666 1493 LINE",
"371 1493 LINE",
"229 768 LINE",
"-70 557 LINE",
"45 403 LINE",
"176 502 LINE",
"80 0 LINE",
"1006 0 LINE"
);
}
);
width = 1233;
}
);
note = Lslash;
unicode = 0141;
},
{
glyphname = M;
lastChange = "2018-03-04 05:27:23 +0000";
layers = (
{
layerId = "4E366C66-7BF6-431B-9C64-252368655686";
paths = (
{
closed = 1;
nodes = (
"127 0 LINE",
"383 1327 LINE",
"498 532 LINE",
"639 532 LINE",
"1073 1327 LINE",
"815 0 LINE",
"1001 0 LINE",
"1292 1493 LINE",
"1022 1493 LINE",
"608 737 LINE",
"498 1493 LINE",
"229 1493 LINE",
"-59 0 LINE"
);
}
);
width = 1233;
},
{
layerId = "024CB45B-04BA-4429-B396-A6A8F0C0F775";
paths = (
{
closed = 1;
nodes = (
"195 0 LINE",
"426 1198 LINE",
"473 543 LINE",
"692 543 LINE",
"985 1198 LINE",
"748 0 LINE",
"1001 0 LINE",
"1290 1493 LINE",
"930 1493 LINE",
"633 838 LINE",
"584 1493 LINE",
"231 1493 LINE",
"-57 0 LINE"
);
}
);
width = 1233;
}
);
note = M;
unicode = 004D;
},
{
glyphname = Mhook;
lastChange = "2018-03-04 05:27:23 +0000";
layers = (
{
layerId = "4E366C66-7BF6-431B-9C64-252368655686";
paths = (
{
closed = 1;
nodes = (
"776 -195 OFFCURVE",
"702 -270 OFFCURVE",
"582 -270 CURVE SMOOTH",
"399 -270 LINE",
"368 -426 LINE",
"573 -426 LINE SMOOTH",
"793 -426 OFFCURVE",
"945 -280 OFFCURVE",
"996 -20 CURVE SMOOTH",
"1290 1493 LINE",
"1019 1493 LINE",
"611 733 LINE",
"501 1493 LINE",
"231 1493 LINE",
"-59 0 LINE",
"127 0 LINE",
"383 1319 LINE",
"497 532 LINE",
"650 532 LINE",
"1069 1319 LINE",
"813 0 LINE SMOOTH"
);
}
);
width = 1233;
},
{
layerId = "024CB45B-04BA-4429-B396-A6A8F0C0F775";
paths = (
{
closed = 1;
nodes = (
"724 -133 OFFCURVE",
"662 -199 OFFCURVE",
"529 -199 CURVE SMOOTH",
"452 -199 LINE",
"408 -426 LINE",
"529 -426 LINE SMOOTH",
"806 -426 OFFCURVE",
"946 -299 OFFCURVE",
"1015 58 CURVE SMOOTH",
"1294 1493 LINE",
"940 1493 LINE",
"636 838 LINE",
"585 1493 LINE",
"233 1493 LINE",
"-57 0 LINE",
"197 0 LINE",
"429 1196 LINE",
"463 543 LINE",
"698 543 LINE",
"982 1196 LINE",
"759 44 LINE SMOOTH"
);
}
);
width = 1233;
}
);
note = uni2C6E;
unicode = 2C6E;
},
{
glyphname = Mturned;
lastChange = "2018-03-04 05:27:23 +0000";
layers = (
{
layerId = "4E366C66-7BF6-431B-9C64-252368655686";
paths = (
{
closed = 1;
nodes = (
"467 19 OFFCURVE",
"524 -27 OFFCURVE",
"625 -27 CURVE SMOOTH",
"709 -27 OFFCURVE",
"785 16 OFFCURVE",
"844 96 CURVE",
"826 0 LINE",
"993 0 LINE",
"1283 1493 LINE",
"1116 1493 LINE",
"919 479 LINE SMOOTH",
"889 326 OFFCURVE",
"861 230 OFFCURVE",
"834 189 CURVE SMOOTH",
"807 148 OFFCURVE",
"769 127 OFFCURVE",
"720 127 CURVE SMOOTH",
"671 127 OFFCURVE",
"640 146 OFFCURVE",
"629 183 CURVE SMOOTH",
"617 220 OFFCURVE",
"627 319 OFFCURVE",
"658 479 CURVE SMOOTH",
"855 1493 LINE",
"687 1493 LINE",
"490 479 LINE SMOOTH",
"460 326 OFFCURVE",
"431 230 OFFCURVE",
"404 189 CURVE SMOOTH",
"376 148 OFFCURVE",
"335 127 OFFCURVE",
"282 127 CURVE SMOOTH",
"235 127 OFFCURVE",
"207 146 OFFCURVE",
"197 185 CURVE SMOOTH",
"187 223 OFFCURVE",
"197 321 OFFCURVE",
"228 479 CURVE SMOOTH",
"425 1493 LINE",
"257 1493 LINE",
"58 471 LINE SMOOTH",
"21 278 OFFCURVE",
"14 147 OFFCURVE",
"37 78 CURVE SMOOTH",
"60 8 OFFCURVE",
"117 -27 OFFCURVE",
"207 -27 CURVE SMOOTH",
"306 -27 OFFCURVE",
"384 18 OFFCURVE",
"448 114 CURVE"
);
}
);
width = 1233;
},
{
layerId = "024CB45B-04BA-4429-B396-A6A8F0C0F775";
paths = (
{
closed = 1;
nodes = (
"427 35 OFFCURVE",
"500 -27 OFFCURVE",
"591 -27 CURVE SMOOTH",
"682 -27 OFFCURVE",
"771 28 OFFCURVE",
"822 116 CURVE",
"800 0 LINE",
"1013 0 LINE",
"1303 1493 LINE",
"1063 1493 LINE",
"850 401 LINE SMOOTH",
"834 318 OFFCURVE",
"817 262 OFFCURVE",
"799 234 CURVE SMOOTH",
"781 206 OFFCURVE",
"755 192 OFFCURVE",
"722 192 CURVE SMOOTH",
"689 192 OFFCURVE",
"668 206 OFFCURVE",
"661 235 CURVE SMOOTH",
"653 264 OFFCURVE",
"657 319 OFFCURVE",
"672 401 CURVE SMOOTH",
"885 1493 LINE",
"648 1493 LINE",
"435 401 LINE SMOOTH",
"420 319 OFFCURVE",
"403 264 OFFCURVE",
"384 235 CURVE SMOOTH",
"365 206 OFFCURVE",
"338 192 OFFCURVE",
"305 192 CURVE SMOOTH",
"272 192 OFFCURVE",
"251 206 OFFCURVE",
"244 234 CURVE SMOOTH",
"237 262 OFFCURVE",
"241 318 OFFCURVE",
"257 401 CURVE SMOOTH",
"470 1493 LINE",
"230 1493 LINE",
"35 489 LINE SMOOTH",
"-6 278 OFFCURVE",
"-15 140 OFFCURVE",
"9 73 CURVE SMOOTH",
"33 6 OFFCURVE",
"93 -27 OFFCURVE",
"190 -27 CURVE SMOOTH",
"289 -27 OFFCURVE",
"363 17 OFFCURVE",
"426 112 CURVE"
);
}
);
width = 1233;
}
);
note = uni019C;
unicode = 019C;
},
{
glyphname = N;
lastChange = "2018-03-04 05:27:23 +0000";
layers = (
{
layerId = "4E366C66-7BF6-431B-9C64-252368655686";
paths = (
{
closed = 1;
nodes = (
"188 0 LINE",
"428 1229 LINE",
"692 0 LINE",
"948 0 LINE",
"1239 1493 LINE",
"1044 1493 LINE",
"805 264 LINE",
"541 1493 LINE",
"285 1493 LINE",
"-6 0 LINE"
);
}
);
width = 1233;
},
{
layerId = "024CB45B-04BA-4429-B396-A6A8F0C0F775";
paths = (
{
closed = 1;
nodes = (
"238 0 LINE",
"449 1085 LINE",
"674 0 LINE",
"967 0 LINE",
"1255 1493 LINE",
"995 1493 LINE",
"784 408 LINE",
"569 1493 LINE",
"266 1493 LINE",
"-25 0 LINE"
);
}
);
width = 1233;
}
);
note = N;
unicode = 004E;
},
{
glyphname = Ndescender;
lastChange = "2018-03-04 05:27:23 +0000";
layers = (
{
layerId = "4E366C66-7BF6-431B-9C64-252368655686";
paths = (
{
closed = 1;
nodes = (
"184 0 LINE",
"424 1229 LINE",
"688 0 LINE",
"908 0 LINE",
"846 -322 LINE",
"1016 -322 LINE",
"1111 170 LINE",
"977 170 LINE",
"1235 1493 LINE",
"1040 1493 LINE",
"801 264 LINE",
"537 1493 LINE",
"281 1493 LINE",
"-10 0 LINE"
);
}
);
width = 1233;
},
{
layerId = "024CB45B-04BA-4429-B396-A6A8F0C0F775";
paths = (
{
closed = 1;
nodes = (
"229 0 LINE",
"440 1085 LINE",
"665 0 LINE",
"769 0 LINE",
"707 -322 LINE",
"1000 -322 LINE",
"1113 260 LINE",
"1008 260 LINE",
"1246 1493 LINE",
"986 1493 LINE",
"775 408 LINE",
"560 1493 LINE",
"257 1493 LINE",
"-34 0 LINE"
);
}
);
width = 1233;
}
);
note = uniA790;
unicode = A790;
},
{
glyphname = Eng;
lastChange = "2018-03-04 05:27:23 +0000";
layers = (
{
layerId = "4E366C66-7BF6-431B-9C64-252368655686";
paths = (
{
closed = 1;
nodes = (
"1241 1348 OFFCURVE",
"1151 1522 OFFCURVE",
"902 1522 CURVE SMOOTH",
"734 1522 OFFCURVE",
"595 1443 OFFCURVE",
"494 1295 CURVE",
"533 1493 LINE",
"331 1493 LINE",
"40 0 LINE",
"242 0 LINE",
"425 937 LINE SMOOTH",
"477 1208 OFFCURVE",
"611 1358 OFFCURVE",
"799 1358 CURVE SMOOTH",
"964 1358 OFFCURVE",
"1019 1249 OFFCURVE",
"972 1009 CURVE SMOOTH",
"775 0 LINE SMOOTH",
"738 -195 OFFCURVE",
"664 -270 OFFCURVE",
"544 -270 CURVE SMOOTH",
"377 -270 LINE",
"347 -426 LINE",
"552 -426 LINE SMOOTH",
"772 -426 OFFCURVE",
"924 -280 OFFCURVE",
"975 -20 CURVE SMOOTH",
"1173 999 LINE SMOOTH"
);
}
);
width = 1233;
},
{
layerId = "024CB45B-04BA-4429-B396-A6A8F0C0F775";
paths = (
{
closed = 1;
nodes = (
"698 -133 OFFCURVE",
"637 -199 OFFCURVE",
"504 -199 CURVE SMOOTH",
"467 -199 LINE",
"423 -426 LINE",
"544 -426 LINE SMOOTH",
"821 -426 OFFCURVE",
"961 -297 OFFCURVE",
"1030 58 CURVE SMOOTH",
"1202 942 LINE SMOOTH",
"1277 1327 OFFCURVE",
"1184 1522 OFFCURVE",
"932 1522 CURVE SMOOTH",
"764 1522 OFFCURVE",
"621 1424 OFFCURVE",
"538 1253 CURVE",
"585 1493 LINE",
"290 1493 LINE",
"-1 0 LINE",
"294 0 LINE",
"483 972 LINE SMOOTH",
"518 1145 OFFCURVE",
"623 1255 OFFCURVE",
"768 1255 CURVE SMOOTH",
"909 1255 OFFCURVE",
"955 1187 OFFCURVE",
"922 1015 CURVE SMOOTH",
"733 44 LINE SMOOTH"
);
}
);
width = 1233;
}
);
note = Eng;
unicode = 014A;
},
{
glyphname = Nhookleft;
lastChange = "2018-03-04 05:27:23 +0000";
layers = (
{
layerId = "4E366C66-7BF6-431B-9C64-252368655686";
paths = (
{
closed = 1;
nodes = (
"51 -188 OFFCURVE",
"-18 -270 OFFCURVE",
"-126 -270 CURVE",
"-157 -426 LINE",
"-130 -426 LINE SMOOTH",
"69 -426 OFFCURVE",
"208 -280 OFFCURVE",
"259 -20 CURVE SMOOTH",
"502 1229 LINE",
"716 0 LINE",
"947 0 LINE",
"1237 1493 LINE",
"1062 1493 LINE",
"823 264 LINE",
"608 1493 LINE",
"378 1493 LINE",
"83 -20 LINE SMOOTH"
);
}
);
width = 1233;
},
{
layerId = "024CB45B-04BA-4429-B396-A6A8F0C0F775";
paths = (
{
closed = 1;
nodes = (
"578 1085 LINE",
"785 0 LINE",
"1100 0 LINE",
"1390 1493 LINE",
"1130 1493 LINE",
"919 408 LINE",
"714 1493 LINE",
"397 1493 LINE",
"115 41 LINE SMOOTH",
"79 -143 OFFCURVE",
"26 -201 OFFCURVE",
"-51 -201 CURVE SMOOTH",
"-111 -201 LINE",
"-155 -426 LINE",
"-107 -426 LINE SMOOTH",
"-8 -426 OFFCURVE",
"74 -409 OFFCURVE",
"137 -374 CURVE SMOOTH",
"247 -314 OFFCURVE",
"323 -189 OFFCURVE",
"366 0 CURVE",
"367 0 LINE"
);
}
);
width = 1233;
}
);
note = uni019D;
unicode = 019D;
},
{
glyphname = O;
lastChange = "2018-03-04 05:27:23 +0000";
layers = (
{
layerId = "4E366C66-7BF6-431B-9C64-252368655686";
paths = (
{
closed = 1;
nodes = (
"355 135 OFFCURVE",
"287 223 OFFCURVE",
"287 414 CURVE SMOOTH",
"287 667 OFFCURVE",
"354 963 OFFCURVE",
"455 1159 CURVE SMOOTH",
"518 1286 OFFCURVE",
"616 1356 OFFCURVE",
"729 1356 CURVE SMOOTH",
"876 1356 OFFCURVE",
"944 1268 OFFCURVE",
"944 1079 CURVE SMOOTH",
"944 826 OFFCURVE",
"877 525 OFFCURVE",
"778 332 CURVE SMOOTH",
"715 205 OFFCURVE",
"615 135 OFFCURVE",
"502 135 CURVE SMOOTH"
);
},
{
closed = 1;
nodes = (
"1151 1360 OFFCURVE",
"1023 1520 OFFCURVE",
"754 1520 CURVE SMOOTH",
"561 1520 OFFCURVE",
"420 1441 OFFCURVE",
"303 1272 CURVE SMOOTH",
"251 1193 OFFCURVE",
"207 1098 OFFCURVE",
"168 975 CURVE SMOOTH",
"111 794 OFFCURVE",
"82 621 OFFCURVE",
"82 473 CURVE SMOOTH",
"82 132 OFFCURVE",
"209 -29 OFFCURVE",
"477 -29 CURVE SMOOTH",
"670 -29 OFFCURVE",
"811 50 OFFCURVE",
"928 219 CURVE SMOOTH",
"980 298 OFFCURVE",
"1024 393 OFFCURVE",
"1063 516 CURVE SMOOTH",
"1120 697 OFFCURVE",
"1151 873 OFFCURVE",
"1151 1020 CURVE SMOOTH"
);
}
);
width = 1233;
},
{
layerId = "024CB45B-04BA-4429-B396-A6A8F0C0F775";
paths = (
{
closed = 1;
nodes = (
"868 920 OFFCURVE",
"848 784 OFFCURVE",
"809 631 CURVE SMOOTH",
"782 520 OFFCURVE",
"752 432 OFFCURVE",
"721 373 CURVE SMOOTH",
"672 281 OFFCURVE",
"605 233 OFFCURVE",
"526 233 CURVE SMOOTH",
"418 233 OFFCURVE",
"365 311 OFFCURVE",
"365 471 CURVE SMOOTH",
"365 571 OFFCURVE",
"385 707 OFFCURVE",
"424 860 CURVE SMOOTH",
"455 983 OFFCURVE",
"483 1068 OFFCURVE",
"512 1120 CURVE SMOOTH",
"560 1212 OFFCURVE",
"628 1260 OFFCURVE",
"707 1260 CURVE SMOOTH",
"815 1260 OFFCURVE",
"868 1180 OFFCURVE",
"868 1020 CURVE SMOOTH"
);
},
{
closed = 1;
nodes = (
"61 144 OFFCURVE",
"215 -29 OFFCURVE",
"504 -29 CURVE SMOOTH",
"712 -29 OFFCURVE",
"885 76 OFFCURVE",
"989 264 CURVE SMOOTH",
"1101 465 OFFCURVE",
"1171 761 OFFCURVE",
"1171 1030 CURVE SMOOTH",
"1171 1347 OFFCURVE",
"1016 1520 OFFCURVE",
"729 1520 CURVE SMOOTH",
"521 1520 OFFCURVE",
"349 1416 OFFCURVE",
"246 1229 CURVE SMOOTH",
"133 1024 OFFCURVE",
"61 732 OFFCURVE",
"61 465 CURVE SMOOTH"
);
}
);
width = 1233;
}
);
note = O;
unicode = 004F;
},
{
glyphname = Ocenteredtilde;
lastChange = "2018-03-04 05:27:23 +0000";
layers = (
{
layerId = "4E366C66-7BF6-431B-9C64-252368655686";
paths = (
{
closed = 1;
nodes = (
"1217 1266 OFFCURVE",
"1104 1520 OFFCURVE",
"767 1520 CURVE SMOOTH",
"431 1520 OFFCURVE",
"218 1266 OFFCURVE",
"117 745 CURVE SMOOTH",
"16 222 OFFCURVE",
"128 -29 OFFCURVE",
"465 -29 CURVE SMOOTH",
"802 -29 OFFCURVE",
"1015 225 OFFCURVE",
"1116 745 CURVE SMOOTH"
);
},
{
closed = 1;
nodes = (
"424 1180 OFFCURVE",
"531 1356 OFFCURVE",
"735 1356 CURVE SMOOTH",
"940 1356 OFFCURVE",
"979 1180 OFFCURVE",
"920 828 CURVE",
"345 828 LINE"
);
},
{
closed = 1;
nodes = (
"807 309 OFFCURVE",
"702 135 OFFCURVE",
"497 135 CURVE SMOOTH",
"293 135 OFFCURVE",
"258 311 OFFCURVE",
"310 644 CURVE",
"884 644 LINE"
);
}
);
width = 1233;
},
{
layerId = "024CB45B-04BA-4429-B396-A6A8F0C0F775";
paths = (
{
closed = 1;
nodes = (
"524 -29 OFFCURVE",
"579 -22 OFFCURVE",
"631 -7 CURVE SMOOTH",
"888 68 OFFCURVE",
"1058 318 OFFCURVE",
"1141 745 CURVE SMOOTH",
"1240 1256 OFFCURVE",
"1114 1520 OFFCURVE",
"767 1520 CURVE SMOOTH",
"702 1520 OFFCURVE",
"642 1511 OFFCURVE",
"586 1493 CURVE SMOOTH",
"338 1413 OFFCURVE",
"173 1164 OFFCURVE",
"92 745 CURVE SMOOTH",
"35 448 OFFCURVE",
"-26 -29 OFFCURVE",
"465 -29 CURVE SMOOTH"
);
},
{
closed = 1;
nodes = (
"452 964 OFFCURVE",
"467 1008 OFFCURVE",
"481 1041 CURVE SMOOTH",
"538 1184 OFFCURVE",
"616 1255 OFFCURVE",
"715 1255 CURVE SMOOTH",
"772 1255 OFFCURVE",
"813 1232 OFFCURVE",
"838 1187 CURVE SMOOTH",
"866 1134 OFFCURVE",
"873 1042 OFFCURVE",
"860 911 CURVE",
"437 911 LINE"
);
},
{
closed = 1;
nodes = (
"749 382 OFFCURVE",
"669 236 OFFCURVE",
"517 236 CURVE SMOOTH",
"366 236 OFFCURVE",
"343 384 OFFCURVE",
"383 651 CURVE",
"814 651 LINE"
);
}
);
width = 1233;
}
);
note = uni019F;
unicode = 019F;
},
{
glyphname = Oi;
lastChange = "2018-03-04 05:27:23 +0000";
layers = (
{
layerId = "4E366C66-7BF6-431B-9C64-252368655686";
paths = (
{
closed = 1;
nodes = (
"-58 222 OFFCURVE",
"40 -29 OFFCURVE",
"344 -29 CURVE SMOOTH",
"495 -29 OFFCURVE",
"620 35 OFFCURVE",
"719 163 CURVE",
"896 1069 LINE",
"1107 1229 LINE",
"868 0 LINE",
"1043 0 LINE",
"1334 1493 LINE",
"1103 1493 LINE",
"931 1362 LINE",
"878 1467 OFFCURVE",
"782 1520 OFFCURVE",
"644 1520 CURVE SMOOTH",
"603 1520 OFFCURVE",
"563 1515 OFFCURVE",
"526 1506 CURVE SMOOTH",
"292 1447 OFFCURVE",
"132 1193 OFFCURVE",
"45 745 CURVE SMOOTH"
);
},
{
closed = 1;
nodes = (
"543 182 OFFCURVE",
"468 135 OFFCURVE",
"375 135 CURVE SMOOTH",
"284 135 OFFCURVE",
"227 182 OFFCURVE",
"205 276 CURVE SMOOTH",
"160 464 OFFCURVE",
"270 1027 OFFCURVE",
"387 1215 CURVE SMOOTH",
"446 1309 OFFCURVE",
"521 1356 OFFCURVE",
"613 1356 CURVE SMOOTH",
"705 1356 OFFCURVE",
"762 1309 OFFCURVE",
"784 1215 CURVE",
"602 276 LINE"
);
}
);
width = 1233;
},
{
layerId = "024CB45B-04BA-4429-B396-A6A8F0C0F775";
paths = (
{
closed = 1;
nodes = (
"508 -29 OFFCURVE",
"638 36 OFFCURVE",
"743 167 CURVE",
"900 976 LINE",
"1046 1136 LINE",
"825 0 LINE",
"1059 0 LINE",
"1350 1493 LINE",
"1066 1493 LINE",
"948 1365 LINE",
"890 1468 OFFCURVE",
"792 1520 OFFCURVE",
"653 1520 CURVE SMOOTH",
"600 1520 OFFCURVE",
"549 1512 OFFCURVE",
"502 1497 CURVE SMOOTH",
"271 1422 OFFCURVE",
"114 1171 OFFCURVE",
"31 745 CURVE SMOOTH",
"-28 448 OFFCURVE",
"-91 -29 OFFCURVE",
"352 -29 CURVE SMOOTH"
);
},
{
closed = 1;
nodes = (
"348 961 OFFCURVE",
"413 1255 OFFCURVE",
"601 1255 CURVE SMOOTH",
"670 1255 OFFCURVE",
"712 1215 OFFCURVE",
"727 1134 CURVE",
"576 356 LINE",
"529 276 OFFCURVE",
"472 236 OFFCURVE",
"403 236 CURVE SMOOTH",
"358 236 OFFCURVE",
"325 254 OFFCURVE",
"303 289 CURVE SMOOTH",
"260 359 OFFCURVE",
"262 511 OFFCURVE",
"307 745 CURVE SMOOTH"
);
}
);
width = 1233;
}
);
note = uni01A2;
unicode = 01A2;
},
{
glyphname = Oopen;
lastChange = "2018-03-04 05:27:23 +0000";
layers = (
{
layerId = "4E366C66-7BF6-431B-9C64-252368655686";
paths = (
{
closed = 1;
nodes = (
"96 -2 OFFCURVE",
"197 -29 OFFCURVE",
"318 -29 CURVE SMOOTH",
"701 -29 OFFCURVE",
"977 254 OFFCURVE",
"1073 745 CURVE SMOOTH",
"1168 1233 OFFCURVE",
"1000 1520 OFFCURVE",
"620 1520 CURVE SMOOTH",
"499 1520 OFFCURVE",
"387 1493 OFFCURVE",
"274 1438 CURVE",
"233 1231 LINE",
"348 1312 OFFCURVE",
"473 1356 OFFCURVE",
"588 1356 CURVE SMOOTH",
"851 1356 OFFCURVE",
"942 1154 OFFCURVE",
"862 745 CURVE SMOOTH",
"782 337 OFFCURVE",
"613 135 OFFCURVE",
"350 135 CURVE SMOOTH",
"233 135 OFFCURVE",
"126 179 OFFCURVE",
"45 260 CURVE",
"18 122 OFFCURVE",
"4 53 OFFCURVE",
"4 53 CURVE"
);
}
);
width = 1233;
},
{
layerId = "024CB45B-04BA-4429-B396-A6A8F0C0F775";
paths = (
{
closed = 1;
nodes = (
"99 -5 OFFCURVE",
"197 -29 OFFCURVE",
"310 -29 CURVE SMOOTH",
"713 -29 OFFCURVE",
"984 244 OFFCURVE",
"1081 745 CURVE SMOOTH",
"1178 1248 OFFCURVE",
"1015 1520 OFFCURVE",
"612 1520 CURVE SMOOTH",
"499 1520 OFFCURVE",
"389 1496 OFFCURVE",
"289 1448 CURVE",
"225 1120 LINE",
"344 1213 OFFCURVE",
"445 1255 OFFCURVE",
"546 1255 CURVE SMOOTH",
"762 1255 OFFCURVE",
"839 1082 OFFCURVE",
"774 745 CURVE SMOOTH",
"709 409 OFFCURVE",
"564 236 OFFCURVE",
"348 236 CURVE SMOOTH",
"247 236 OFFCURVE",
"163 278 OFFCURVE",
"79 371 CURVE",
"36 152 OFFCURVE",
"15 43 OFFCURVE",
"15 43 CURVE"
);
}
);
width = 1233;
}
);
note = uni0186;
unicode = 0186;
},
{
glyphname = Oslash;
lastChange = "2018-03-04 05:27:23 +0000";
layers = (
{
layerId = "4E366C66-7BF6-431B-9C64-252368655686";
paths = (
{
closed = 1;
nodes = (
"939 1093 OFFCURVE",
"940 1073 OFFCURVE",
"940 1036 CURVE SMOOTH",
"940 872 OFFCURVE",
"903 666 OFFCURVE",
"836 473 CURVE SMOOTH",
"755 241 OFFCURVE",
"651 135 OFFCURVE",
"502 135 CURVE SMOOTH",
"414 135 OFFCURVE",
"349 170 OFFCURVE",
"322 229 CURVE",
"938 1116 LINE"
);
},
{
closed = 1;
nodes = (
"290 405 OFFCURVE",
"287 444 OFFCURVE",
"287 457 CURVE SMOOTH",
"287 601 OFFCURVE",
"328 821 OFFCURVE",
"395 1018 CURVE SMOOTH",
"475 1250 OFFCURVE",
"578 1356 OFFCURVE",
"729 1356 CURVE SMOOTH",
"804 1356 OFFCURVE",
"866 1326 OFFCURVE",
"905 1274 CURVE",
"291 389 LINE"
);
},
{
closed = 1;
nodes = (
"1100 1559 LINE",
"1016 1434 LINE",
"944 1491 OFFCURVE",
"857 1520 OFFCURVE",
"754 1520 CURVE SMOOTH",
"542 1520 OFFCURVE",
"385 1421 OFFCURVE",
"268 1217 CURVE SMOOTH",
"156 1018 OFFCURVE",
"80 713 OFFCURVE",
"80 449 CURVE SMOOTH",
"80 334 OFFCURVE",
"97 241 OFFCURVE",
"133 164 CURVE",
"14 -6 LINE",
"113 -70 LINE",
"207 63 LINE",
"279 2 OFFCURVE",
"369 -29 OFFCURVE",
"477 -29 CURVE SMOOTH",
"688 -29 OFFCURVE",
"846 71 OFFCURVE",
"963 276 CURVE SMOOTH",
"1074 473 OFFCURVE",
"1151 781 OFFCURVE",
"1151 1042 CURVE SMOOTH",
"1151 1163 OFFCURVE",
"1133 1257 OFFCURVE",
"1094 1337 CURVE",
"1200 1495 LINE"
);
}
);
width = 1233;
},
{
layerId = "024CB45B-04BA-4429-B396-A6A8F0C0F775";
paths = (
{
closed = 1;
nodes = (
"823 656 OFFCURVE",
"780 488 OFFCURVE",
"729 386 CURVE SMOOTH",
"677 284 OFFCURVE",
"609 233 OFFCURVE",
"526 233 CURVE SMOOTH",
"451 233 OFFCURVE",
"399 274 OFFCURVE",
"375 354 CURVE",
"858 889 LINE"
);
},
{
closed = 1;
nodes = (
"0 -63 LINE",
"160 117 LINE",
"236 21 OFFCURVE",
"352 -29 OFFCURVE",
"504 -29 CURVE SMOOTH",
"712 -29 OFFCURVE",
"885 76 OFFCURVE",
"989 264 CURVE SMOOTH",
"1060 395 OFFCURVE",
"1110 552 OFFCURVE",
"1143 737 CURVE SMOOTH",
"1162 842 OFFCURVE",
"1171 937 OFFCURVE",
"1171 1020 CURVE SMOOTH",
"1171 1079 OFFCURVE",
"1164 1142 OFFCURVE",
"1151 1217 CURVE",
"1356 1444 LINE",
"1217 1559 LINE",
"1063 1389 LINE",
"982 1476 OFFCURVE",
"871 1520 OFFCURVE",
"731 1520 CURVE SMOOTH",
"522 1520 OFFCURVE",
"348 1416 OFFCURVE",
"244 1227 CURVE SMOOTH",
"131 1023 OFFCURVE",
"61 727 OFFCURVE",
"61 442 CURVE SMOOTH",
"61 390 OFFCURVE",
"67 340 OFFCURVE",
"78 295 CURVE",
"-141 51 LINE"
);
},
{
closed = 1;
nodes = (
"415 854 OFFCURVE",
"459 1016 OFFCURVE",
"510 1114 CURVE SMOOTH",
"561 1211 OFFCURVE",
"626 1260 OFFCURVE",
"707 1260 CURVE SMOOTH",
"776 1260 OFFCURVE",
"828 1222 OFFCURVE",
"852 1153 CURVE",
"379 629 LINE"
);
}
);
width = 1233;
}
);
note = Oslash;
unicode = 00D8;
},
{
glyphname = OE;
lastChange = "2018-03-04 05:27:23 +0000";
layers = (
{
layerId = "4E366C66-7BF6-431B-9C64-252368655686";
paths = (
{
closed = 1;
nodes = (
"842 711 LINE",
"1169 711 LINE",
"1202 881 LINE",
"874 881 LINE",
"961 1323 LINE",
"1319 1323 LINE",
"1352 1493 LINE",
"758 1493 LINE SMOOTH",
"437 1493 OFFCURVE",
"269 1375 OFFCURVE",
"154 1067 CURVE SMOOTH",
"83 876 OFFCURVE",
"35 609 OFFCURVE",
"35 414 CURVE SMOOTH",
"35 135 OFFCURVE",
"176 0 OFFCURVE",
"467 0 CURVE SMOOTH",
"1071 0 LINE",
"1104 170 LINE",
"735 170 LINE"
);
},
{
closed = 1;
nodes = (
"539 170 LINE",
"477 170 LINE SMOOTH",
"313 170 OFFCURVE",
"229 252 OFFCURVE",
"229 412 CURVE SMOOTH",
"229 493 OFFCURVE",
"244 604 OFFCURVE",
"272 745 CURVE SMOOTH",
"305 913 OFFCURVE",
"338 1033 OFFCURVE",
"371 1106 CURVE SMOOTH",
"434 1251 OFFCURVE",
"545 1323 OFFCURVE",
"702 1323 CURVE SMOOTH",
"764 1323 LINE"
);
}
);
width = 1233;
},
{
layerId = "024CB45B-04BA-4429-B396-A6A8F0C0F775";
paths = (
{
closed = 1;
nodes = (
"858 662 LINE",
"1159 662 LINE",
"1210 922 LINE",
"909 922 LINE",
"969 1233 LINE",
"1300 1233 LINE",
"1352 1493 LINE",
"666 1493 LINE SMOOTH",
"413 1493 OFFCURVE",
"253 1366 OFFCURVE",
"158 1083 CURVE SMOOTH",
"78 848 OFFCURVE",
"31 591 OFFCURVE",
"31 391 CURVE SMOOTH",
"31 111 OFFCURVE",
"159 0 OFFCURVE",
"494 0 CURVE SMOOTH",
"1071 0 LINE",
"1122 260 LINE",
"780 260 LINE"
);
},
{
closed = 1;
nodes = (
"526 260 LINE",
"475 260 LINE SMOOTH",
"364 260 OFFCURVE",
"315 314 OFFCURVE",
"315 434 CURVE SMOOTH",
"315 585 OFFCURVE",
"361 835 OFFCURVE",
"430 1038 CURVE SMOOTH",
"475 1173 OFFCURVE",
"548 1233 OFFCURVE",
"664 1233 CURVE SMOOTH",
"715 1233 LINE"
);
}
);
width = 1233;
}
);
note = OE;
unicode = 0152;
},
{
glyphname = P;
lastChange = "2018-03-04 05:27:23 +0000";
layers = (
{
layerId = "4E366C66-7BF6-431B-9C64-252368655686";
paths = (
{
closed = 1;
nodes = (
"918 1327 OFFCURVE",
"999 1260 OFFCURVE",
"999 1116 CURVE SMOOTH",
"999 904 OFFCURVE",
"857 766 OFFCURVE",
"637 766 CURVE SMOOTH",
"403 766 LINE",
"512 1327 LINE",
"745 1327 LINE SMOOTH"
);
},
{
closed = 1;
nodes = (
"254 0 LINE",
"371 600 LINE",
"604 600 LINE SMOOTH",
"977 600 OFFCURVE",
"1204 803 OFFCURVE",
"1204 1135 CURVE SMOOTH",
"1204 1367 OFFCURVE",
"1057 1493 OFFCURVE",
"782 1493 CURVE SMOOTH",
"342 1493 LINE",
"51 0 LINE"
);
}
);
width = 1233;
},
{
layerId = "024CB45B-04BA-4429-B396-A6A8F0C0F775";
paths = (
{
closed = 1;
nodes = (
"841 1245 OFFCURVE",
"903 1198 OFFCURVE",
"903 1077 CURVE SMOOTH",
"903 897 OFFCURVE",
"807 807 OFFCURVE",
"612 807 CURVE SMOOTH",
"469 807 LINE",
"553 1245 LINE",
"674 1245 LINE SMOOTH"
);
},
{
closed = 1;
nodes = (
"311 0 LINE",
"420 559 LINE",
"584 559 LINE SMOOTH",
"831 559 OFFCURVE",
"975 610 OFFCURVE",
"1079 731 CURVE SMOOTH",
"1156 819 OFFCURVE",
"1210 983 OFFCURVE",
"1210 1135 CURVE SMOOTH",
"1210 1368 OFFCURVE",
"1042 1493 OFFCURVE",
"727 1493 CURVE SMOOTH",
"307 1493 LINE",
"16 0 LINE"
);
}
);
width = 1233;
}
);
note = P;
unicode = 0050;
},
{
glyphname = Phook;
lastChange = "2018-03-04 05:27:23 +0000";
layers = (
{
layerId = "4E366C66-7BF6-431B-9C64-252368655686";
paths = (
{
closed = 1;
nodes = (
"1247 1104 OFFCURVE",
"1250 1155 OFFCURVE",
"1246 1201 CURVE SMOOTH",
"1229 1396 OFFCURVE",
"1085 1493 OFFCURVE",
"814 1493 CURVE SMOOTH",
"519 1493 LINE SMOOTH",
"351 1493 OFFCURVE",
"181 1390 OFFCURVE",
"134 1149 CURVE SMOOTH",
"120 1079 LINE",
"276 1079 LINE",
"286 1128 LINE SMOOTH",
"315 1280 OFFCURVE",
"415 1327 OFFCURVE",
"487 1327 CURVE",
"229 0 LINE",
"431 0 LINE",
"547 600 LINE",
"641 600 LINE SMOOTH",
"714 600 OFFCURVE",
"780 607 OFFCURVE",
"841 622 CURVE SMOOTH",
"1059 673 OFFCURVE",
"1191 815 OFFCURVE",
"1236 1047 CURVE SMOOTH"
);
},
{
closed = 1;
nodes = (
"689 1327 LINE",
"782 1327 LINE SMOOTH",
"876 1327 OFFCURVE",
"944 1303 OFFCURVE",
"987 1254 CURVE SMOOTH",
"1072 1156 OFFCURVE",
"1022 998 OFFCURVE",
"978 923 CURVE SMOOTH",
"915 818 OFFCURVE",
"814 766 OFFCURVE",
"673 766 CURVE SMOOTH",
"580 766 LINE"
);
}
);
width = 1233;
},
{
layerId = "024CB45B-04BA-4429-B396-A6A8F0C0F775";
paths = (
{
closed = 1;
nodes = (
"934 1245 OFFCURVE",
"992 1187 OFFCURVE",
"961 1026 CURVE SMOOTH",
"929 865 OFFCURVE",
"849 807 OFFCURVE",
"656 807 CURVE SMOOTH",
"637 807 LINE",
"722 1245 LINE",
"741 1245 LINE SMOOTH"
);
},
{
closed = 1;
nodes = (
"480 0 LINE",
"589 559 LINE",
"597 559 LINE SMOOTH",
"1009 559 OFFCURVE",
"1203 697 OFFCURVE",
"1267 1026 CURVE SMOOTH",
"1331 1355 OFFCURVE",
"1190 1493 OFFCURVE",
"778 1493 CURVE SMOOTH",
"475 1493 LINE SMOOTH",
"458 1493 OFFCURVE",
"440 1492 OFFCURVE",
"423 1489 CURVE",
"236 1464 OFFCURVE",
"136 1341 OFFCURVE",
"97 1141 CURVE SMOOTH",
"82 1064 LINE",
"337 1064 LINE",
"341 1088 LINE",
"349 1125 OFFCURVE",
"380 1206 OFFCURVE",
"419 1206 CURVE",
"185 0 LINE"
);
}
);
width = 1233;
}
);
note = uni01A4;
unicode = 01A4;
},
{
glyphname = Thorn;
lastChange = "2018-03-04 05:27:23 +0000";
layers = (
{
layerId = "4E366C66-7BF6-431B-9C64-252368655686";
paths = (
{
closed = 1;
nodes = (
"930 365 OFFCURVE",
"1159 559 OFFCURVE",
"1159 874 CURVE SMOOTH",
"1159 1097 OFFCURVE",
"1011 1217 OFFCURVE",
"735 1217 CURVE SMOOTH",
"494 1217 LINE",
"545 1491 LINE",
"342 1493 LINE",
"51 0 LINE",
"254 0 LINE",
"326 365 LINE",
"557 365 LINE SMOOTH"
);
},
{
closed = 1;
nodes = (
"871 1059 OFFCURVE",
"952 995 OFFCURVE",
"952 858 CURVE SMOOTH",
"952 655 OFFCURVE",
"809 522 OFFCURVE",
"590 522 CURVE SMOOTH",
"356 522 LINE",
"461 1059 LINE",
"698 1059 LINE SMOOTH"
);
}
);
width = 1233;
},
{
layerId = "024CB45B-04BA-4429-B396-A6A8F0C0F775";
paths = (
{
closed = 1;
nodes = (
"784 332 OFFCURVE",
"930 383 OFFCURVE",
"1034 506 CURVE SMOOTH",
"1111 594 OFFCURVE",
"1165 756 OFFCURVE",
"1165 907 CURVE SMOOTH",
"1165 1140 OFFCURVE",
"997 1266 OFFCURVE",
"682 1266 CURVE SMOOTH",
"555 1266 LINE",
"602 1493 LINE",
"307 1493 LINE",
"16 0 LINE",
"311 0 LINE",
"375 332 LINE",
"539 332 LINE SMOOTH"
);
},
{
closed = 1;
nodes = (
"796 1018 OFFCURVE",
"858 971 OFFCURVE",
"858 850 CURVE SMOOTH",
"858 669 OFFCURVE",
"764 580 OFFCURVE",
"569 580 CURVE SMOOTH",
"424 580 LINE",
"510 1018 LINE",
"631 1018 LINE SMOOTH"
);
}
);
width = 1233;
}
);
note = Thorn;
unicode = 00DE;
},
{
glyphname = Q;
lastChange = "2018-03-04 05:27:23 +0000";
layers = (
{
layerId = "4E366C66-7BF6-431B-9C64-252368655686";
paths = (
{
closed = 1;
nodes = (
"844 -178 LINE",
"690 10 LINE",
"795 54 OFFCURVE",
"891 147 OFFCURVE",
"963 274 CURVE SMOOTH",
"1012 363 OFFCURVE",
"1054 474 OFFCURVE",
"1094 629 CURVE SMOOTH",
"1131 777 OFFCURVE",
"1151 909 OFFCURVE",
"1151 1020 CURVE SMOOTH",
"1151 1360 OFFCURVE",
"1023 1520 OFFCURVE",
"754 1520 CURVE SMOOTH",
"561 1520 OFFCURVE",
"420 1441 OFFCURVE",
"303 1272 CURVE SMOOTH",
"251 1193 OFFCURVE",
"207 1098 OFFCURVE",
"168 975 CURVE SMOOTH",
"111 794 OFFCURVE",
"82 621 OFFCURVE",
"82 473 CURVE SMOOTH",
"82 124 OFFCURVE",
"207 -27 OFFCURVE",
"494 -27 CURVE SMOOTH",
"504 -27 LINE",
"690 -270 LINE"
);
},
{
closed = 1;
nodes = (
"355 135 OFFCURVE",
"287 223 OFFCURVE",
"287 414 CURVE SMOOTH",
"287 667 OFFCURVE",
"354 963 OFFCURVE",
"455 1159 CURVE SMOOTH",
"518 1286 OFFCURVE",
"616 1356 OFFCURVE",
"729 1356 CURVE SMOOTH",
"876 1356 OFFCURVE",
"944 1268 OFFCURVE",
"944 1079 CURVE SMOOTH",
"944 826 OFFCURVE",
"877 525 OFFCURVE",
"778 332 CURVE SMOOTH",
"715 205 OFFCURVE",
"615 135 OFFCURVE",
"502 135 CURVE SMOOTH"
);
}
);
width = 1233;
},
{
layerId = "024CB45B-04BA-4429-B396-A6A8F0C0F775";
paths = (
{
closed = 1;
nodes = (
"924 -147 LINE",
"776 39 LINE",
"873 102 OFFCURVE",
"942 174 OFFCURVE",
"989 262 CURVE SMOOTH",
"1102 469 OFFCURVE",
"1171 765 OFFCURVE",
"1171 1049 CURVE SMOOTH",
"1171 1348 OFFCURVE",
"1010 1520 OFFCURVE",
"729 1520 CURVE SMOOTH",
"521 1520 OFFCURVE",
"348 1415 OFFCURVE",
"244 1227 CURVE SMOOTH",
"132 1026 OFFCURVE",
"61 730 OFFCURVE",
"61 461 CURVE SMOOTH",
"61 141 OFFCURVE",
"217 -29 OFFCURVE",
"508 -29 CURVE SMOOTH",
"535 -29 LINE",
"713 -281 LINE"
);
},
{
closed = 1;
nodes = (
"868 920 OFFCURVE",
"848 784 OFFCURVE",
"809 631 CURVE SMOOTH",
"782 520 OFFCURVE",
"752 432 OFFCURVE",
"721 373 CURVE SMOOTH",
"672 281 OFFCURVE",
"605 233 OFFCURVE",
"526 233 CURVE SMOOTH",
"418 233 OFFCURVE",
"365 311 OFFCURVE",
"365 471 CURVE SMOOTH",
"365 571 OFFCURVE",
"385 707 OFFCURVE",
"424 860 CURVE SMOOTH",
"455 983 OFFCURVE",
"483 1068 OFFCURVE",
"512 1120 CURVE SMOOTH",
"560 1212 OFFCURVE",
"628 1260 OFFCURVE",
"707 1260 CURVE SMOOTH",
"815 1260 OFFCURVE",
"868 1180 OFFCURVE",
"868 1020 CURVE SMOOTH"
);
}
);
width = 1233;
}
);
note = Q;
unicode = 0051;
},
{
glyphname = R;
lastChange = "2018-03-04 05:27:23 +0000";
layers = (
{
layerId = "4E366C66-7BF6-431B-9C64-252368655686";
paths = (
{
closed = 1;
nodes = (
"1003 736 OFFCURVE",
"1151 907 OFFCURVE",
"1151 1151 CURVE SMOOTH",
"1151 1368 OFFCURVE",
"993 1493 OFFCURVE",
"717 1493 CURVE SMOOTH",
"301 1493 LINE",
"12 0 LINE",
"215 0 LINE",
"338 631 LINE",
"530 631 LINE SMOOTH",
"677 631 OFFCURVE",
"734 585 OFFCURVE",
"793 377 CURVE SMOOTH",
"899 0 LINE",
"1100 0 LINE",
"979 408 LINE SMOOTH",
"943 526 OFFCURVE",
"911 603 OFFCURVE",
"882 638 CURVE SMOOTH",
"853 673 OFFCURVE",
"814 696 OFFCURVE",
"766 705 CURVE"
);
},
{
closed = 1;
nodes = (
"867 1327 OFFCURVE",
"948 1259 OFFCURVE",
"948 1110 CURVE SMOOTH",
"948 921 OFFCURVE",
"807 797 OFFCURVE",
"590 797 CURVE SMOOTH",
"371 797 LINE",
"473 1327 LINE",
"686 1327 LINE SMOOTH"
);
}
);
width = 1233;
},
{
layerId = "024CB45B-04BA-4429-B396-A6A8F0C0F775";
paths = (
{
closed = 1;
nodes = (
"1029 732 OFFCURVE",
"1165 888 OFFCURVE",
"1165 1137 CURVE SMOOTH",
"1165 1378 OFFCURVE",
"1018 1493 OFFCURVE",
"709 1493 CURVE SMOOTH",
"299 1493 LINE",
"8 0 LINE",
"303 0 LINE",
"418 590 LINE",
"535 590 LINE SMOOTH",
"605 590 OFFCURVE",
"658 528 OFFCURVE",
"693 403 CURVE SMOOTH",
"696 392 OFFCURVE",
"699 383 OFFCURVE",
"701 376 CURVE SMOOTH",
"807 0 LINE",
"1108 0 LINE",
"944 537 LINE SMOOTH",
"908 653 OFFCURVE",
"869 693 OFFCURVE",
"788 705 CURVE"
);
},
{
closed = 1;
nodes = (
"803 1245 OFFCURVE",
"864 1194 OFFCURVE",
"864 1090 CURVE SMOOTH",
"864 925 OFFCURVE",
"770 838 OFFCURVE",
"590 838 CURVE SMOOTH",
"467 838 LINE",
"547 1245 LINE",
"680 1245 LINE SMOOTH"
);
}
);
width = 1233;
}
);
note = R;
unicode = 0052;
},
{
glyphname = Rstroke;
lastChange = "2018-03-04 05:27:23 +0000";
layers = (
{
layerId = "4E366C66-7BF6-431B-9C64-252368655686";
paths = (
{
closed = 1;
nodes = (
"867 1327 OFFCURVE",
"948 1259 OFFCURVE",
"948 1110 CURVE SMOOTH",
"948 921 OFFCURVE",
"807 797 OFFCURVE",
"590 797 CURVE SMOOTH",
"445 797 LINE",
"547 1327 LINE",
"686 1327 LINE SMOOTH"
);
},
{
closed = 1;
nodes = (
"1003 736 OFFCURVE",
"1151 907 OFFCURVE",
"1151 1151 CURVE SMOOTH",
"1151 1368 OFFCURVE",
"993 1493 OFFCURVE",
"717 1493 CURVE SMOOTH",
"375 1493 LINE",
"240 797 LINE",
"31 797 LINE",
"-1 631 LINE",
"208 631 LINE",
"86 0 LINE",
"289 0 LINE",
"412 631 LINE",
"530 631 LINE SMOOTH",
"677 631 OFFCURVE",
"734 585 OFFCURVE",
"793 377 CURVE SMOOTH",
"899 0 LINE",
"1100 0 LINE",
"979 408 LINE SMOOTH",
"943 526 OFFCURVE",
"911 603 OFFCURVE",
"882 638 CURVE SMOOTH",
"853 673 OFFCURVE",
"814 696 OFFCURVE",
"766 705 CURVE"
);
}
);
width = 1233;
},
{
layerId = "024CB45B-04BA-4429-B396-A6A8F0C0F775";
paths = (
{
closed = 1;
nodes = (
"604 590 OFFCURVE",
"656 528 OFFCURVE",
"693 403 CURVE SMOOTH",
"696 392 OFFCURVE",
"699 383 OFFCURVE",
"701 376 CURVE SMOOTH",
"807 0 LINE",
"1108 0 LINE",
"944 537 LINE SMOOTH",
"908 653 OFFCURVE",
"869 693 OFFCURVE",
"788 705 CURVE",
"1029 732 OFFCURVE",
"1165 888 OFFCURVE",
"1165 1137 CURVE SMOOTH",
"1165 1378 OFFCURVE",
"1018 1493 OFFCURVE",
"709 1493 CURVE SMOOTH",
"341 1493 LINE",
"214 838 LINE",
"39 838 LINE",
"-9 590 LINE",
"166 590 LINE",
"51 0 LINE",
"346 0 LINE",
"461 590 LINE",
"535 590 LINE SMOOTH"
);
},
{
closed = 1;
nodes = (
"680 1245 LINE SMOOTH",
"803 1245 OFFCURVE",
"864 1194 OFFCURVE",
"864 1090 CURVE SMOOTH",
"864 925 OFFCURVE",
"770 838 OFFCURVE",
"590 838 CURVE SMOOTH",
"509 838 LINE",
"588 1245 LINE"
);
}
);
width = 1233;
}
);
note = uni024C;
unicode = 024C;
},
{
glyphname = Rtail;
lastChange = "2018-03-04 05:27:23 +0000";
layers = (
{
layerId = "4E366C66-7BF6-431B-9C64-252368655686";
paths = (
{
closed = 1;
nodes = (
"198 -99 OFFCURVE",
"202 -67 OFFCURVE",
"209 -30 CURVE SMOOTH",
"337 631 LINE",
"530 631 LINE SMOOTH",
"662 631 OFFCURVE",
"719 592 OFFCURVE",
"780 377 CURVE SMOOTH",
"885 0 LINE",
"1102 0 LINE",
"978 408 LINE SMOOTH",
"910 631 OFFCURVE",
"865 678 OFFCURVE",
"766 705 CURVE",
"966 733 OFFCURVE",
"1153 879 OFFCURVE",
"1153 1168 CURVE SMOOTH",
"1153 1345 OFFCURVE",
"1046 1493 OFFCURVE",
"718 1493 CURVE SMOOTH",
"302 1493 LINE",
"6 -30 LINE SMOOTH",
"-3 -76 OFFCURVE",
"-8 -126 OFFCURVE",
"-8 -180 CURVE SMOOTH",
"-8 -289 OFFCURVE",
"51 -436 OFFCURVE",
"271 -436 CURVE SMOOTH",
"494 -436 LINE",
"524 -280 LINE",
"339 -280 LINE SMOOTH",
"245 -280 OFFCURVE",
"198 -229 OFFCURVE",
"198 -127 CURVE SMOOTH"
);
},
{
closed = 1;
nodes = (
"878 1327 OFFCURVE",
"936 1237 OFFCURVE",
"936 1130 CURVE SMOOTH",
"936 1109 OFFCURVE",
"934 1086 OFFCURVE",
"929 1061 CURVE SMOOTH",
"895 885 OFFCURVE",
"782 797 OFFCURVE",
"591 797 CURVE SMOOTH",
"370 797 LINE",
"473 1327 LINE",
"686 1327 LINE SMOOTH"
);
}
);
width = 1233;
},
{
layerId = "024CB45B-04BA-4429-B396-A6A8F0C0F775";
paths = (
{
closed = 1;
nodes = (
"512 590 LINE SMOOTH",
"583 590 OFFCURVE",
"639 519 OFFCURVE",
"678 377 CURVE SMOOTH",
"785 0 LINE",
"1109 0 LINE",
"943 537 LINE SMOOTH",
"924 600 OFFCURVE",
"905 643 OFFCURVE",
"888 664 CURVE SMOOTH",
"871 685 OFFCURVE",
"848 699 OFFCURVE",
"820 705 CURVE",
"1012 729 OFFCURVE",
"1140 854 OFFCURVE",
"1180 1059 CURVE SMOOTH",
"1189 1104 OFFCURVE",
"1193 1146 OFFCURVE",
"1193 1183 CURVE SMOOTH",
"1193 1274 OFFCURVE",
"1168 1343 OFFCURVE",
"1118 1391 CURVE SMOOTH",
"1048 1459 OFFCURVE",
"917 1493 OFFCURVE",
"725 1493 CURVE SMOOTH",
"299 1493 LINE",
"9 0 LINE SMOOTH",
"-2 -53 OFFCURVE",
"-7 -101 OFFCURVE",
"-7 -144 CURVE SMOOTH",
"-7 -332 OFFCURVE",
"101 -426 OFFCURVE",
"316 -426 CURVE SMOOTH",
"442 -426 LINE",
"486 -201 LINE",
"447 -201 LINE SMOOTH",
"349 -201 OFFCURVE",
"300 -155 OFFCURVE",
"300 -64 CURVE SMOOTH",
"300 -35 OFFCURVE",
"304 0 OFFCURVE",
"312 41 CURVE SMOOTH",
"418 590 LINE"
);
},
{
closed = 1;
nodes = (
"766 1245 OFFCURVE",
"821 1229 OFFCURVE",
"850 1198 CURVE SMOOTH",
"869 1177 OFFCURVE",
"878 1148 OFFCURVE",
"878 1109 CURVE SMOOTH",
"878 1089 OFFCURVE",
"876 1067 OFFCURVE",
"871 1042 CURVE SMOOTH",
"843 897 OFFCURVE",
"767 838 OFFCURVE",
"606 838 CURVE SMOOTH",
"467 838 LINE",
"546 1245 LINE",
"685 1245 LINE SMOOTH"
);
}
);
width = 1233;
}
);
note = uni2C64;
unicode = 2C64;
},
{
glyphname = S;
lastChange = "2018-03-04 05:27:23 +0000";
layers = (
{
layerId = "4E366C66-7BF6-431B-9C64-252368655686";
paths = (
{
closed = 1;
nodes = (
"1020 1493 OFFCURVE",
"898 1520 OFFCURVE",
"791 1520 CURVE SMOOTH",
"436 1520 OFFCURVE",
"195 1313 OFFCURVE",
"195 1018 CURVE SMOOTH",
"195 857 OFFCURVE",
"281 769 OFFCURVE",
"526 692 CURVE SMOOTH",
"627 659 LINE SMOOTH",
"804 604 OFFCURVE",
"848 555 OFFCURVE",
"848 446 CURVE SMOOTH",
"848 266 OFFCURVE",
"697 135 OFFCURVE",
"477 135 CURVE SMOOTH",
"328 135 OFFCURVE",
"197 178 OFFCURVE",
"66 270 CURVE",
"25 61 LINE",
"158 1 OFFCURVE",
"291 -29 OFFCURVE",
"430 -29 CURVE SMOOTH",
"813 -29 OFFCURVE",
"1049 168 OFFCURVE",
"1049 481 CURVE SMOOTH",
"1049 653 OFFCURVE",
"952 760 OFFCURVE",
"735 827 CURVE SMOOTH",
"614 866 LINE SMOOTH",
"442 919 OFFCURVE",
"387 970 OFFCURVE",
"387 1065 CURVE SMOOTH",
"387 1234 OFFCURVE",
"540 1356 OFFCURVE",
"760 1356 CURVE SMOOTH",
"884 1356 OFFCURVE",
"1000 1316 OFFCURVE",
"1108 1237 CURVE",
"1147 1442 LINE"
);
}
);
width = 1233;
},
{
layerId = "024CB45B-04BA-4429-B396-A6A8F0C0F775";
paths = (
{
closed = 1;
nodes = (
"717 575 OFFCURVE",
"764 515 OFFCURVE",
"764 432 CURVE SMOOTH",
"764 299 OFFCURVE",
"656 215 OFFCURVE",
"479 215 CURVE SMOOTH",
"336 215 OFFCURVE",
"192 273 OFFCURVE",
"63 381 CURVE",
"4 76 LINE",
"169 5 OFFCURVE",
"320 -29 OFFCURVE",
"467 -29 CURVE SMOOTH",
"832 -29 OFFCURVE",
"1063 168 OFFCURVE",
"1063 475 CURVE SMOOTH",
"1063 652 OFFCURVE",
"977 769 OFFCURVE",
"782 856 CURVE SMOOTH",
"666 907 LINE",
"659 910 LINE SMOOTH",
"536 965 OFFCURVE",
"475 1021 OFFCURVE",
"475 1077 CURVE SMOOTH",
"475 1194 OFFCURVE",
"584 1278 OFFCURVE",
"741 1278 CURVE SMOOTH",
"889 1278 OFFCURVE",
"1011 1236 OFFCURVE",
"1102 1153 CURVE",
"1159 1438 LINE",
"1038 1493 OFFCURVE",
"907 1520 OFFCURVE",
"770 1520 CURVE SMOOTH",
"427 1520 OFFCURVE",
"190 1313 OFFCURVE",
"190 1020 CURVE SMOOTH",
"190 852 OFFCURVE",
"250 771 OFFCURVE",
"506 664 CURVE SMOOTH",
"625 614 LINE SMOOTH"
);
}
);
width = 1233;
}
);
note = S;
unicode = 0053;
},
{
glyphname = Saltillo;
lastChange = "2018-03-04 05:27:23 +0000";
layers = (
{
layerId = "4E366C66-7BF6-431B-9C64-252368655686";
paths = (
{
closed = 1;
nodes = (
"485 481 LINE",
"647 481 LINE",
"735 838 LINE",
"864 1493 LINE",
"662 1493 LINE",
"535 838 LINE"
);
}
);
width = 1233;
},
{
layerId = "024CB45B-04BA-4429-B396-A6A8F0C0F775";
paths = (
{
closed = 1;
nodes = (
"467 481 LINE",
"666 481 LINE",
"768 838 LINE",
"895 1493 LINE",
"629 1493 LINE",
"500 838 LINE"
);
}
);
width = 1233;
}
);
note = uniA78B;
unicode = A78B;
},
{
glyphname = Sswashtail;
lastChange = "2018-03-04 05:27:23 +0000";
layers = (
{
layerId = "4E366C66-7BF6-431B-9C64-252368655686";
paths = (
{
closed = 1;
nodes = (
"819 3 OFFCURVE",
"1049 168 OFFCURVE",
"1049 481 CURVE SMOOTH",
"1049 653 OFFCURVE",
"952 760 OFFCURVE",
"735 827 CURVE SMOOTH",
"614 866 LINE SMOOTH",
"442 919 OFFCURVE",
"387 970 OFFCURVE",
"387 1065 CURVE SMOOTH",
"387 1234 OFFCURVE",
"540 1356 OFFCURVE",
"760 1356 CURVE SMOOTH",
"884 1356 OFFCURVE",
"1000 1316 OFFCURVE",
"1108 1237 CURVE",
"1147 1442 LINE",
"1020 1493 OFFCURVE",
"898 1520 OFFCURVE",
"791 1520 CURVE SMOOTH",
"436 1520 OFFCURVE",
"195 1313 OFFCURVE",
"195 1018 CURVE SMOOTH",
"195 857 OFFCURVE",
"281 769 OFFCURVE",
"526 692 CURVE SMOOTH",
"627 659 LINE SMOOTH",
"804 604 OFFCURVE",
"848 555 OFFCURVE",
"848 446 CURVE SMOOTH",
"848 266 OFFCURVE",
"697 135 OFFCURVE",
"477 135 CURVE SMOOTH",
"328 135 OFFCURVE",
"197 178 OFFCURVE",
"66 270 CURVE",
"25 61 LINE",
"92 31 OFFCURVE",
"159 9 OFFCURVE",
"226 -6 CURVE SMOOTH",
"259 -13 OFFCURVE",
"294 -41 OFFCURVE",
"329 -89 CURVE SMOOTH",
"506 -325 LINE SMOOTH",
"523 -349 OFFCURVE",
"543 -370 OFFCURVE",
"564 -389 CURVE SMOOTH",
"607 -426 OFFCURVE",
"640 -448 OFFCURVE",
"686 -464 CURVE SMOOTH",
"732 -481 OFFCURVE",
"756 -488 OFFCURVE",
"798 -492 CURVE SMOOTH",
"840 -496 OFFCURVE",
"848 -496 OFFCURVE",
"877 -496 CURVE SMOOTH",
"928 -496 LINE",
"961 -326 LINE",
"937 -326 LINE SMOOTH",
"829 -326 OFFCURVE",
"718 -275 OFFCURVE",
"633 -162 CURVE SMOOTH",
"530 -24 LINE"
);
}
);
width = 1233;
},
{
layerId = "024CB45B-04BA-4429-B396-A6A8F0C0F775";
paths = (
{
closed = 1;
nodes = (
"717 575 OFFCURVE",
"764 515 OFFCURVE",
"764 432 CURVE SMOOTH",
"764 299 OFFCURVE",
"656 215 OFFCURVE",
"479 215 CURVE SMOOTH",
"336 215 OFFCURVE",
"192 273 OFFCURVE",
"63 381 CURVE",
"4 76 LINE",
"87 41 OFFCURVE",
"166 14 OFFCURVE",
"242 -3 CURVE SMOOTH",
"287 -14 OFFCURVE",
"332 -48 OFFCURVE",
"393 -115 CURVE SMOOTH",
"630 -369 LINE SMOOTH",
"705 -449 OFFCURVE",
"788 -489 OFFCURVE",
"879 -489 CURVE SMOOTH",
"937 -489 LINE",
"994 -198 LINE",
"923 -198 LINE SMOOTH",
"880 -198 OFFCURVE",
"836 -174 OFFCURVE",
"790 -127 CURVE SMOOTH",
"676 -5 LINE",
"852 39 OFFCURVE",
"1063 168 OFFCURVE",
"1063 475 CURVE SMOOTH",
"1063 652 OFFCURVE",
"977 769 OFFCURVE",
"782 856 CURVE SMOOTH",
"659 910 LINE SMOOTH",
"536 965 OFFCURVE",
"475 1021 OFFCURVE",
"475 1077 CURVE SMOOTH",
"475 1194 OFFCURVE",
"584 1278 OFFCURVE",
"741 1278 CURVE SMOOTH",
"889 1278 OFFCURVE",
"1011 1236 OFFCURVE",
"1102 1153 CURVE",
"1159 1438 LINE",
"1038 1493 OFFCURVE",
"907 1520 OFFCURVE",
"770 1520 CURVE SMOOTH",
"427 1520 OFFCURVE",
"190 1313 OFFCURVE",
"190 1020 CURVE SMOOTH",
"190 852 OFFCURVE",
"249 772 OFFCURVE",
"506 664 CURVE SMOOTH",
"625 614 LINE SMOOTH"
);
}
);
width = 1233;
}
);
note = uni2C7E;
unicode = 2C7E;
},
{
glyphname = Schwa;
lastChange = "2018-03-04 05:27:23 +0000";
layers = (
{
layerId = "4E366C66-7BF6-431B-9C64-252368655686";
paths = (
{
closed = 1;
nodes = (
"16 222 OFFCURVE",
"128 -29 OFFCURVE",
"465 -29 CURVE SMOOTH",
"802 -29 OFFCURVE",
"1015 225 OFFCURVE",
"1116 745 CURVE SMOOTH",
"1217 1266 OFFCURVE",
"1104 1520 OFFCURVE",
"767 1520 CURVE SMOOTH",
"646 1520 OFFCURVE",
"534 1493 OFFCURVE",
"421 1438 CURVE",
"380 1231 LINE",
"495 1312 OFFCURVE",
"620 1356 OFFCURVE",
"735 1356 CURVE SMOOTH",
"940 1356 OFFCURVE",
"979 1180 OFFCURVE",
"920 828 CURVE",
"133 828 LINE",
"117 745 LINE SMOOTH"
);
},
{
closed = 1;
nodes = (
"807 309 OFFCURVE",
"702 135 OFFCURVE",
"497 135 CURVE SMOOTH",
"293 135 OFFCURVE",
"258 311 OFFCURVE",
"310 644 CURVE",
"884 644 LINE"
);
}
);
width = 1233;
},
{
layerId = "024CB45B-04BA-4429-B396-A6A8F0C0F775";
paths = (
{
closed = 1;
nodes = (
"92 745 LINE SMOOTH",
"-7 236 OFFCURVE",
"120 -29 OFFCURVE",
"465 -29 CURVE SMOOTH",
"812 -29 OFFCURVE",
"1042 236 OFFCURVE",
"1141 745 CURVE SMOOTH",
"1240 1256 OFFCURVE",
"1114 1520 OFFCURVE",
"767 1520 CURVE SMOOTH",
"654 1520 OFFCURVE",
"547 1496 OFFCURVE",
"444 1448 CURVE",
"380 1120 LINE",
"499 1213 OFFCURVE",
"600 1255 OFFCURVE",
"701 1255 CURVE SMOOTH",
"872 1255 OFFCURVE",
"891 1101 OFFCURVE",
"851 840 CURVE",
"110 840 LINE"
);
},
{
closed = 1;
nodes = (
"743 388 OFFCURVE",
"669 236 OFFCURVE",
"517 236 CURVE SMOOTH",
"366 236 OFFCURVE",
"352 388 OFFCURVE",
"373 580 CURVE",
"796 580 LINE"
);
}
);
width = 1233;
}
);
note = uni018F;
unicode = 018F;
},
{
glyphname = T;
lastChange = "2018-03-04 05:27:23 +0000";
layers = (
{
layerId = "4E366C66-7BF6-431B-9C64-252368655686";
paths = (
{
closed = 1;
nodes = (
"629 1323 LINE",
"371 0 LINE",
"575 0 LINE",
"831 1323 LINE",
"1300 1323 LINE",
"1333 1493 LINE",
"193 1493 LINE",
"160 1323 LINE"
);
}
);
width = 1233;
},
{
layerId = "024CB45B-04BA-4429-B396-A6A8F0C0F775";
paths = (
{
closed = 1;
nodes = (
"1237 1235 LINE",
"1288 1493 LINE",
"229 1493 LINE",
"180 1235 LINE",
"563 1235 LINE",
"324 0 LINE",
"618 0 LINE",
"858 1235 LINE"
);
}
);
width = 1233;
}
);
note = T;
unicode = 0054;
},
{
glyphname = Tbar;
lastChange = "2018-03-04 05:27:23 +0000";
layers = (
{
layerId = "4E366C66-7BF6-431B-9C64-252368655686";
paths = (
{
closed = 1;
nodes = (
"628 1323 LINE",
"516 747 LINE",
"251 747 LINE",
"218 577 LINE",
"483 577 LINE",
"371 0 LINE",
"574 0 LINE",
"686 577 LINE",
"951 577 LINE",
"984 747 LINE",
"719 747 LINE",
"831 1323 LINE",
"1298 1323 LINE",
"1331 1493 LINE",
"192 1493 LINE",
"159 1323 LINE"
);
}
);
width = 1233;
},
{
layerId = "024CB45B-04BA-4429-B396-A6A8F0C0F775";
paths = (
{
closed = 1;
nodes = (
"970 538 LINE",
"1008 730 LINE",
"761 730 LINE",
"859 1235 LINE",
"1238 1235 LINE",
"1288 1493 LINE",
"235 1493 LINE",
"185 1235 LINE",
"564 1235 LINE",
"466 730 LINE",
"219 730 LINE",
"181 538 LINE",
"428 538 LINE",
"324 0 LINE",
"619 0 LINE",
"723 538 LINE"
);
}
);
width = 1233;
}
);
note = Tbar;
unicode = 0166;
},
{
glyphname = Tdiagonalstroke;
lastChange = "2018-03-04 05:27:23 +0000";
layers = (
{
layerId = "4E366C66-7BF6-431B-9C64-252368655686";
paths = (
{
closed = 1;
nodes = (
"1073 1323 LINE",
"763 976 LINE",
"830 1323 LINE"
);
},
{
closed = 1;
nodes = (
"-21 -70 LINE",
"462 470 LINE",
"370 0 LINE",
"573 0 LINE",
"721 760 LINE",
"1225 1323 LINE",
"1299 1323 LINE",
"1320 1429 LINE",
"1370 1485 LINE",
"1284 1559 LINE",
"1225 1493 LINE",
"193 1493 LINE",
"160 1323 LINE",
"627 1323 LINE",
"504 687 LINE",
"-111 0 LINE"
);
}
);
width = 1233;
},
{
layerId = "024CB45B-04BA-4429-B396-A6A8F0C0F775";
paths = (
{
closed = 1;
nodes = (
"770 772 LINE",
"1187 1235 LINE",
"1239 1235 LINE",
"1253 1308 LINE",
"1375 1444 LINE",
"1236 1559 LINE",
"1176 1493 LINE",
"236 1493 LINE",
"186 1235 LINE",
"565 1235 LINE",
"460 698 LINE",
"-122 51 LINE",
"17 -63 LINE",
"393 354 LINE",
"325 0 LINE",
"620 0 LINE"
);
},
{
closed = 1;
nodes = (
"944 1235 LINE",
"836 1116 LINE",
"860 1235 LINE"
);
}
);
width = 1233;
}
);
note = uni023E;
unicode = 023E;
},
{
glyphname = Thook;
lastChange = "2018-03-04 05:27:23 +0000";
layers = (
{
layerId = "4E366C66-7BF6-431B-9C64-252368655686";
paths = (
{
closed = 1;
nodes = (
"371 0 LINE",
"574 0 LINE",
"831 1323 LINE",
"1298 1323 LINE",
"1331 1493 LINE",
"598 1493 LINE SMOOTH",
"313 1493 OFFCURVE",
"172 1390 OFFCURVE",
"125 1149 CURVE SMOOTH",
"112 1079 LINE",
"268 1079 LINE",
"277 1128 LINE SMOOTH",
"306 1280 OFFCURVE",
"394 1338 OFFCURVE",
"566 1327 CURVE SMOOTH",
"628 1323 LINE"
);
}
);
width = 1233;
},
{
layerId = "024CB45B-04BA-4429-B396-A6A8F0C0F775";
paths = (
{
closed = 1;
nodes = (
"324 0 LINE",
"619 0 LINE",
"859 1235 LINE",
"1238 1235 LINE",
"1288 1493 LINE",
"535 1495 LINE",
"566 1492 OFFCURVE",
"547 1490 OFFCURVE",
"478 1490 CURVE SMOOTH",
"396 1490 OFFCURVE",
"320 1465 OFFCURVE",
"249 1414 CURVE SMOOTH",
"224 1395 OFFCURVE",
"203 1377 OFFCURVE",
"188 1361 CURVE SMOOTH",
"148 1318 OFFCURVE",
"118 1244 OFFCURVE",
"97 1141 CURVE SMOOTH",
"83 1064 LINE",
"338 1064 LINE",
"342 1086 OFFCURVE",
"345 1102 OFFCURVE",
"347 1111 CURVE",
"361 1159 OFFCURVE",
"379 1194 OFFCURVE",
"401 1216 CURVE SMOOTH",
"414 1229 OFFCURVE",
"436 1235 OFFCURVE",
"465 1236 CURVE",
"466 1237 OFFCURVE",
"472 1237 OFFCURVE",
"485 1237 CURVE SMOOTH",
"564 1235 LINE"
);
}
);
width = 1233;
}
);
note = uni01AC;
unicode = 01AC;
},
{
glyphname = Tonefive;
lastChange = "2018-03-04 05:27:23 +0000";
layers = (
{
layerId = "4E366C66-7BF6-431B-9C64-252368655686";
paths = (
{
closed = 1;
nodes = (
"317 142 OFFCURVE",
"124 194 OFFCURVE",
"171 435 CURVE",
"-31 435 LINE",
"-46 358 OFFCURVE",
"-45 289 OFFCURVE",
"-28 228 CURVE SMOOTH",
"21 57 OFFCURVE",
"188 -28 OFFCURVE",
"475 -28 CURVE SMOOTH",
"662 -28 OFFCURVE",
"814 12 OFFCURVE",
"931 93 CURVE SMOOTH",
"1165 254 OFFCURVE",
"1197 542 OFFCURVE",
"1116 677 CURVE SMOOTH",
"1031 821 OFFCURVE",
"878 884 OFFCURVE",
"738 884 CURVE SMOOTH",
"448 884 LINE",
"534 1323 LINE",
"1255 1323 LINE",
"1288 1493 LINE",
"364 1493 LINE",
"213 716 LINE",
"654 716 LINE SMOOTH",
"873 716 OFFCURVE",
"984 614 OFFCURVE",
"949 435 CURVE SMOOTH",
"942 401 OFFCURVE",
"932 370 OFFCURVE",
"918 341 CURVE SMOOTH",
"851 208 OFFCURVE",
"713 142 OFFCURVE",
"502 142 CURVE SMOOTH"
);
}
);
width = 1233;
},
{
layerId = "024CB45B-04BA-4429-B396-A6A8F0C0F775";
paths = (
{
closed = 1;
nodes = (
"563 646 LINE SMOOTH",
"759 646 OFFCURVE",
"847 575 OFFCURVE",
"820 439 CURVE SMOOTH",
"795 307 OFFCURVE",
"680 234 OFFCURVE",
"496 234 CURVE SMOOTH",
"348 234 OFFCURVE",
"247 312 OFFCURVE",
"272 439 CURVE",
"-46 439 LINE",
"-103 142 OFFCURVE",
"25 -28 OFFCURVE",
"476 -28 CURVE SMOOTH",
"868 -28 OFFCURVE",
"1107 129 OFFCURVE",
"1164 425 CURVE SMOOTH",
"1201 616 OFFCURVE",
"1106 776 OFFCURVE",
"1013 816 CURVE",
"927 859 OFFCURVE",
"846 880 OFFCURVE",
"769 880 CURVE SMOOTH",
"507 880 LINE",
"575 1233 LINE",
"1210 1233 LINE",
"1261 1493 LINE",
"331 1493 LINE",
"166 646 LINE",
"308 646 LINE",
"461 646 LINE"
);
}
);
width = 1233;
}
);
note = uni01BC;
unicode = 01BC;
},
{
glyphname = Tonesix;
lastChange = "2018-03-04 05:27:23 +0000";
layers = (
{
layerId = "4E366C66-7BF6-431B-9C64-252368655686";
paths = (
{
closed = 1;
nodes = (
"873 713 OFFCURVE",
"959 625 OFFCURVE",
"920 430 CURVE SMOOTH",
"884 242 OFFCURVE",
"778 166 OFFCURVE",
"543 166 CURVE SMOOTH",
"304 166 LINE",
"410 713 LINE",
"649 713 LINE SMOOTH"
);
},
{
closed = 1;
nodes = (
"131 1176 LINE",
"253 948 LINE",
"69 0 LINE",
"511 0 LINE SMOOTH",
"686 0 OFFCURVE",
"825 35 OFFCURVE",
"927 104 CURVE SMOOTH",
"1131 241 OFFCURVE",
"1162 538 OFFCURVE",
"1117 671 CURVE SMOOTH",
"1074 798 OFFCURVE",
"928 867 OFFCURVE",
"677 877 CURVE",
"442 877 LINE",
"562 1493 LINE"
);
}
);
width = 1233;
},
{
layerId = "024CB45B-04BA-4429-B396-A6A8F0C0F775";
paths = (
{
closed = 1;
nodes = (
"609 686 LINE SMOOTH",
"802 686 OFFCURVE",
"860 628 OFFCURVE",
"829 467 CURVE SMOOTH",
"797 306 OFFCURVE",
"717 248 OFFCURVE",
"524 248 CURVE SMOOTH",
"403 248 LINE",
"488 686 LINE"
);
},
{
closed = 1;
nodes = (
"877 0 OFFCURVE",
"1072 138 OFFCURVE",
"1136 467 CURVE SMOOTH",
"1200 796 OFFCURVE",
"1058 934 OFFCURVE",
"646 934 CURVE SMOOTH",
"536 934 LINE",
"645 1493 LINE",
"105 1068 LINE",
"241 934 LINE",
"60 0 LINE",
"465 0 LINE SMOOTH"
);
}
);
width = 1233;
}
);
note = uni0184;
unicode = 0184;
},
{
glyphname = Tonetwo;
lastChange = "2018-03-04 05:27:23 +0000";
layers = (
{
layerId = "4E366C66-7BF6-431B-9C64-252368655686";
paths = (
{
closed = 1;
nodes = (
"458 1316 OFFCURVE",
"590 1356 OFFCURVE",
"715 1356 CURVE SMOOTH",
"906 1356 OFFCURVE",
"1005 1261 OFFCURVE",
"976 1110 CURVE SMOOTH",
"951 978 OFFCURVE",
"879 919 OFFCURVE",
"672 872 CURVE SMOOTH",
"561 848 LINE SMOOTH",
"268 783 OFFCURVE",
"121 649 OFFCURVE",
"73 408 CURVE SMOOTH",
"18 124 OFFCURVE",
"168 -29 OFFCURVE",
"504 -29 CURVE SMOOTH",
"644 -29 OFFCURVE",
"791 1 OFFCURVE",
"946 61 CURVE",
"988 276 LINE",
"816 179 OFFCURVE",
"675 135 OFFCURVE",
"536 135 CURVE SMOOTH",
"332 135 OFFCURVE",
"232 231 OFFCURVE",
"264 395 CURVE SMOOTH",
"293 544 OFFCURVE",
"376 614 OFFCURVE",
"577 657 CURVE SMOOTH",
"690 682 LINE SMOOTH",
"979 745 OFFCURVE",
"1122 866 OFFCURVE",
"1163 1079 CURVE SMOOTH",
"1215 1346 OFFCURVE",
"1054 1520 OFFCURVE",
"757 1520 CURVE SMOOTH",
"642 1520 OFFCURVE",
"511 1494 OFFCURVE",
"360 1442 CURVE",
"321 1237 LINE"
);
}
);
width = 1233;
},
{
layerId = "024CB45B-04BA-4429-B396-A6A8F0C0F775";
paths = (
{
closed = 1;
nodes = (
"1031 768 OFFCURVE",
"1135 874 OFFCURVE",
"1176 1085 CURVE SMOOTH",
"1228 1356 OFFCURVE",
"1077 1520 OFFCURVE",
"774 1520 CURVE SMOOTH",
"637 1520 OFFCURVE",
"492 1488 OFFCURVE",
"345 1427 CURVE",
"289 1139 LINE",
"434 1228 OFFCURVE",
"575 1276 OFFCURVE",
"703 1276 CURVE SMOOTH",
"774 1276 OFFCURVE",
"826 1262 OFFCURVE",
"859 1233 CURVE SMOOTH",
"923 1176 OFFCURVE",
"897 1062 OFFCURVE",
"831 1008 CURVE SMOOTH",
"798 981 OFFCURVE",
"734 951 OFFCURVE",
"640 918 CURVE SMOOTH",
"503 870 LINE SMOOTH",
"246 782 OFFCURVE",
"109 641 OFFCURVE",
"66 420 CURVE SMOOTH",
"7 119 OFFCURVE",
"155 -29 OFFCURVE",
"515 -29 CURVE SMOOTH",
"663 -29 OFFCURVE",
"822 7 OFFCURVE",
"974 76 CURVE",
"1033 381 LINE",
"854 269 OFFCURVE",
"698 215 OFFCURVE",
"554 215 CURVE SMOOTH",
"409 215 OFFCURVE",
"338 284 OFFCURVE",
"361 403 CURVE SMOOTH",
"378 492 OFFCURVE",
"447 561 OFFCURVE",
"556 600 CURVE SMOOTH",
"659 637 OFFCURVE",
"711 655 OFFCURVE",
"711 655 CURVE"
);
}
);
width = 1233;
}
);
note = uni01A7;
unicode = 01A7;
},
{
glyphname = Tretroflexhook;
lastChange = "2018-03-04 05:27:23 +0000";
layers = (
{
layerId = "4E366C66-7BF6-431B-9C64-252368655686";
paths = (
{
closed = 1;
nodes = (
"560 -89 OFFCURVE",
"564 -57 OFFCURVE",
"571 -20 CURVE SMOOTH",
"832 1323 LINE",
"1299 1323 LINE",
"1332 1493 LINE",
"193 1493 LINE",
"160 1323 LINE",
"629 1323 LINE",
"368 -20 LINE SMOOTH",
"359 -66 OFFCURVE",
"354 -116 OFFCURVE",
"354 -170 CURVE SMOOTH",
"354 -279 OFFCURVE",
"413 -426 OFFCURVE",
"633 -426 CURVE SMOOTH",
"856 -426 LINE",
"886 -270 LINE",
"701 -270 LINE SMOOTH",
"607 -270 OFFCURVE",
"560 -219 OFFCURVE",
"560 -117 CURVE SMOOTH"
);
}
);
width = 1233;
},
{
layerId = "024CB45B-04BA-4429-B396-A6A8F0C0F775";
paths = (
{
closed = 1;
nodes = (
"311 -51 OFFCURVE",
"307 -97 OFFCURVE",
"307 -138 CURVE SMOOTH",
"307 -330 OFFCURVE",
"413 -426 OFFCURVE",
"626 -426 CURVE SMOOTH",
"752 -426 LINE",
"796 -201 LINE",
"757 -201 LINE SMOOTH",
"659 -201 OFFCURVE",
"610 -155 OFFCURVE",
"610 -64 CURVE SMOOTH",
"610 -35 OFFCURVE",
"614 0 OFFCURVE",
"622 41 CURVE SMOOTH",
"854 1235 LINE",
"1233 1235 LINE",
"1283 1493 LINE",
"230 1493 LINE",
"180 1235 LINE",
"559 1235 LINE",
"319 0 LINE"
);
}
);
width = 1233;
}
);
note = uni01AE;
unicode = 01AE;
},
{
glyphname = U;
lastChange = "2018-03-04 05:27:23 +0000";
layers = (
{
layerId = "4E366C66-7BF6-431B-9C64-252368655686";
paths = (
{
closed = 1;
nodes = (
"91 449 OFFCURVE",
"80 366 OFFCURVE",
"80 317 CURVE SMOOTH",
"80 96 OFFCURVE",
"223 -29 OFFCURVE",
"479 -29 CURVE SMOOTH",
"620 -29 OFFCURVE",
"743 11 OFFCURVE",
"838 86 CURVE SMOOTH",
"942 170 OFFCURVE",
"997 281 OFFCURVE",
"1053 573 CURVE SMOOTH",
"1231 1493 LINE",
"1028 1493 LINE",
"850 573 LINE SMOOTH",
"832 482 OFFCURVE",
"816 411 OFFCURVE",
"801 361 CURVE SMOOTH",
"786 310 OFFCURVE",
"771 275 OFFCURVE",
"756 254 CURVE SMOOTH",
"696 171 OFFCURVE",
"617 135 OFFCURVE",
"498 135 CURVE SMOOTH",
"351 135 OFFCURVE",
"279 196 OFFCURVE",
"279 319 CURVE SMOOTH",
"279 358 OFFCURVE",
"289 429 OFFCURVE",
"309 532 CURVE SMOOTH",
"313 551 OFFCURVE",
"316 564 OFFCURVE",
"317 573 CURVE",
"496 1493 LINE",
"293 1493 LINE",
"115 573 LINE SMOOTH"
);
}
);
width = 1233;
},
{
layerId = "024CB45B-04BA-4429-B396-A6A8F0C0F775";
paths = (
{
closed = 1;
nodes = (
"52 475 OFFCURVE",
"45 408 OFFCURVE",
"45 352 CURVE SMOOTH",
"45 108 OFFCURVE",
"208 -29 OFFCURVE",
"500 -29 CURVE SMOOTH",
"667 -29 OFFCURVE",
"808 24 OFFCURVE",
"909 123 CURVE SMOOTH",
"993 207 OFFCURVE",
"1040 311 OFFCURVE",
"1087 551 CURVE SMOOTH",
"1272 1493 LINE",
"977 1493 LINE",
"778 477 LINE SMOOTH",
"745 312 OFFCURVE",
"660 231 OFFCURVE",
"516 231 CURVE SMOOTH",
"404 231 OFFCURVE",
"340 294 OFFCURVE",
"340 403 CURVE SMOOTH",
"340 417 OFFCURVE",
"342 440 OFFCURVE",
"347 471 CURVE",
"348 474 OFFCURVE",
"348 476 OFFCURVE",
"348 477 CURVE",
"547 1493 LINE",
"252 1493 LINE",
"68 551 LINE SMOOTH"
);
}
);
width = 1233;
}
);
note = U;
unicode = 0055;
},
{
glyphname = Ubar;
lastChange = "2018-03-04 05:27:23 +0000";
layers = (
{
layerId = "4E366C66-7BF6-431B-9C64-252368655686";
paths = (
{
closed = 1;
nodes = (
"80 96 OFFCURVE",
"219 -29 OFFCURVE",
"490 -29 CURVE SMOOTH",
"625 -29 OFFCURVE",
"743 11 OFFCURVE",
"842 90 CURVE SMOOTH",
"941 169 OFFCURVE",
"997 281 OFFCURVE",
"1054 577 CURVE",
"1182 577 LINE",
"1215 747 LINE",
"1087 747 LINE",
"1231 1493 LINE",
"1028 1493 LINE",
"884 747 LINE",
"351 747 LINE",
"496 1493 LINE",
"293 1493 LINE",
"149 747 LINE",
"24 747 LINE",
"-9 577 LINE",
"116 577 LINE",
"96 486 OFFCURVE",
"84 399 OFFCURVE",
"80 317 CURVE"
);
},
{
closed = 1;
nodes = (
"282 382 OFFCURVE",
"295 468 OFFCURVE",
"318 577 CURVE",
"851 577 LINE",
"817 404 OFFCURVE",
"785 297 OFFCURVE",
"756 254 CURVE SMOOTH",
"699 175 OFFCURVE",
"613 135 OFFCURVE",
"498 135 CURVE SMOOTH",
"352 135 OFFCURVE",
"279 196 OFFCURVE",
"279 319 CURVE"
);
}
);
width = 1233;
},
{
layerId = "024CB45B-04BA-4429-B396-A6A8F0C0F775";
paths = (
{
closed = 1;
nodes = (
"46 108 OFFCURVE",
"203 -29 OFFCURVE",
"519 -29 CURVE SMOOTH",
"676 -29 OFFCURVE",
"804 20 OFFCURVE",
"903 118 CURVE SMOOTH",
"996 209 OFFCURVE",
"1040 309 OFFCURVE",
"1085 538 CURVE",
"1175 538 LINE",
"1213 730 LINE",
"1123 730 LINE",
"1273 1493 LINE",
"978 1493 LINE",
"829 730 LINE",
"399 730 LINE",
"548 1493 LINE",
"253 1493 LINE",
"104 730 LINE",
"22 730 LINE",
"-16 538 LINE",
"66 538 LINE",
"53 470 OFFCURVE",
"46 408 OFFCURVE",
"46 352 CURVE SMOOTH"
);
},
{
closed = 1;
nodes = (
"345 450 OFFCURVE",
"352 495 OFFCURVE",
"361 538 CURVE",
"791 538 LINE",
"779 477 LINE SMOOTH",
"746 313 OFFCURVE",
"662 231 OFFCURVE",
"529 231 CURVE SMOOTH",
"401 231 OFFCURVE",
"341 294 OFFCURVE",
"341 403 CURVE"
);
}
);
width = 1233;
}
);
note = uni0244;
unicode = 0244;
},
{
glyphname = Upsilonafrican;
lastChange = "2018-03-04 05:27:23 +0000";
layers = (
{
layerId = "4E366C66-7BF6-431B-9C64-252368655686";
paths = (
{
closed = 1;
nodes = (
"804 1288 LINE",
"945 1187 OFFCURVE",
"994 957 OFFCURVE",
"937 661 CURVE SMOOTH",
"877 354 OFFCURVE",
"712 166 OFFCURVE",
"507 166 CURVE SMOOTH",
"302 166 OFFCURVE",
"210 354 OFFCURVE",
"270 661 CURVE SMOOTH",
"327 957 OFFCURVE",
"466 1187 OFFCURVE",
"645 1288 CURVE",
"679 1460 LINE",
"216 1460 LINE",
"182 1288 LINE",
"430 1288 LINE",
"233 1111 OFFCURVE",
"126 929 OFFCURVE",
"78 678 CURVE SMOOTH",
"-3 262 OFFCURVE",
"154 0 OFFCURVE",
"477 0 CURVE SMOOTH",
"797 0 OFFCURVE",
"1056 263 OFFCURVE",
"1137 678 CURVE SMOOTH",
"1185 929 OFFCURVE",
"1151 1109 OFFCURVE",
"1022 1288 CURVE",
"1267 1288 LINE",
"1301 1460 LINE",
"838 1460 LINE"
);
}
);
width = 1233;
},
{
layerId = "024CB45B-04BA-4429-B396-A6A8F0C0F775";
paths = (
{
closed = 1;
nodes = (
"812 1460 LINE",
"760 1192 LINE",
"849 1089 OFFCURVE",
"872 933 OFFCURVE",
"829 712 CURVE SMOOTH",
"773 427 OFFCURVE",
"663 266 OFFCURVE",
"527 266 CURVE SMOOTH",
"458 266 OFFCURVE",
"413 305 OFFCURVE",
"391 382 CURVE SMOOTH",
"368 459 OFFCURVE",
"371 569 OFFCURVE",
"399 712 CURVE SMOOTH",
"442 935 OFFCURVE",
"522 1087 OFFCURVE",
"651 1192 CURVE",
"703 1460 LINE",
"232 1460 LINE",
"191 1249 LINE",
"429 1249 LINE",
"241 1104 OFFCURVE",
"139 933 OFFCURVE",
"90 678 CURVE SMOOTH",
"9 262 OFFCURVE",
"161 0 OFFCURVE",
"477 0 CURVE SMOOTH",
"790 0 OFFCURVE",
"1042 262 OFFCURVE",
"1123 678 CURVE SMOOTH",
"1172 933 OFFCURVE",
"1138 1104 OFFCURVE",
"1006 1249 CURVE",
"1244 1249 LINE",
"1285 1460 LINE"
);
}
);
width = 1233;
}
);
note = uni01B1;
unicode = 01B1;
},
{
glyphname = V;
lastChange = "2018-03-04 05:27:23 +0000";
layers = (
{
layerId = "4E366C66-7BF6-431B-9C64-252368655686";
paths = (
{
closed = 1;
nodes = (
"199 1493 LINE",
"346 0 LINE",
"604 0 LINE",
"1323 1493 LINE",
"1108 1493 LINE",
"510 190 LINE",
"397 1493 LINE"
);
}
);
width = 1233;
},
{
layerId = "024CB45B-04BA-4429-B396-A6A8F0C0F775";
paths = (
{
closed = 1;
nodes = (
"203 1493 LINE",
"268 0 LINE",
"680 0 LINE",
"1325 1493 LINE",
"1024 1493 LINE",
"518 242 LINE",
"494 1493 LINE"
);
}
);
width = 1233;
}
);
note = V;
unicode = 0056;
},
{
glyphname = Gammaafrican;
lastChange = "2018-03-04 05:27:23 +0000";
layers = (
{
layerId = "4E366C66-7BF6-431B-9C64-252368655686";
paths = (
{
closed = 1;
nodes = (
"1162 1353 LINE",
"681 798 LINE",
"418 1353 LINE",
"201 1353 LINE",
"531 657 LINE",
"239 334 OFFCURVE",
"86 50 OFFCURVE",
"71 -194 CURVE SMOOTH",
"62 -351 OFFCURVE",
"193 -430 OFFCURVE",
"465 -430 CURVE SMOOTH",
"1016 -430 OFFCURVE",
"1087 51 OFFCURVE",
"767 650 CURVE",
"1379 1353 LINE"
);
},
{
closed = 1;
nodes = (
"714 298 OFFCURVE",
"748 90 OFFCURVE",
"707 -130 CURVE SMOOTH",
"690 -222 OFFCURVE",
"613 -268 OFFCURVE",
"476 -268 CURVE SMOOTH",
"334 -268 OFFCURVE",
"271 -222 OFFCURVE",
"287 -130 CURVE SMOOTH",
"324 86 OFFCURVE",
"431 294 OFFCURVE",
"607 495 CURVE"
);
}
);
width = 1233;
},
{
layerId = "024CB45B-04BA-4429-B396-A6A8F0C0F775";
paths = (
{
closed = 1;
nodes = (
"254 477 OFFCURVE",
"128 219 OFFCURVE",
"84 -14 CURVE SMOOTH",
"49 -201 OFFCURVE",
"167 -293 OFFCURVE",
"437 -290 CURVE SMOOTH",
"976 -283 OFFCURVE",
"1012 253 OFFCURVE",
"833 762 CURVE",
"1373 1493 LINE",
"1050 1493 LINE",
"696 1012 LINE",
"528 1493 LINE",
"206 1493 LINE",
"463 762 LINE"
);
},
{
closed = 1;
nodes = (
"657 356 OFFCURVE",
"677 229 OFFCURVE",
"658 130 CURVE SMOOTH",
"641 43 OFFCURVE",
"587 0 OFFCURVE",
"494 0 CURVE SMOOTH",
"403 0 OFFCURVE",
"366 42 OFFCURVE",
"381 126 CURVE SMOOTH",
"396 204 OFFCURVE",
"468 332 OFFCURVE",
"598 510 CURVE"
);
}
);
width = 1233;
}
);
note = uni0194;
unicode = 0194;
},
{
glyphname = Vhook;
lastChange = "2018-03-04 05:27:23 +0000";
layers = (
{
layerId = "4E366C66-7BF6-431B-9C64-252368655686";
paths = (
{
closed = 1;
nodes = (
"719 0 OFFCURVE",
"974 268 OFFCURVE",
"1054 683 CURVE SMOOTH",
"1103 934 OFFCURVE",
"1069 1114 OFFCURVE",
"940 1293 CURVE",
"722 1293 LINE",
"862 1192 OFFCURVE",
"911 962 OFFCURVE",
"854 666 CURVE SMOOTH",
"794 359 OFFCURVE",
"630 171 OFFCURVE",
"425 171 CURVE SMOOTH",
"305 171 OFFCURVE",
"262 253 OFFCURVE",
"294 421 CURVE SMOOTH",
"503 1493 LINE",
"300 1493 LINE",
"88 406 LINE SMOOTH",
"37 142 OFFCURVE",
"135 0 OFFCURVE",
"360 0 CURVE SMOOTH"
);
}
);
width = 1233;
},
{
layerId = "024CB45B-04BA-4429-B396-A6A8F0C0F775";
paths = (
{
closed = 1;
nodes = (
"769 560 OFFCURVE",
"700 261 OFFCURVE",
"496 261 CURVE SMOOTH",
"360 262 OFFCURVE",
"327 306 OFFCURVE",
"363 495 CURVE SMOOTH",
"557 1493 LINE",
"262 1493 LINE",
"212 1233 LINE",
"63 462 LINE SMOOTH",
"18 227 OFFCURVE",
"60 0 OFFCURVE",
"397 0 CURVE SMOOTH",
"782 0 OFFCURVE",
"1011 257 OFFCURVE",
"1092 673 CURVE SMOOTH",
"1141 928 OFFCURVE",
"1107 1099 OFFCURVE",
"975 1244 CURVE",
"740 1244 LINE",
"729 1187 LINE",
"817 1086 OFFCURVE",
"840 926 OFFCURVE",
"797 707 CURVE SMOOTH"
);
}
);
width = 1233;
}
);
note = uni01B2;
unicode = 01B2;
},
{
glyphname = Vturned;
lastChange = "2018-03-04 05:27:23 +0000";
layers = (
{
layerId = "4E366C66-7BF6-431B-9C64-252368655686";
paths = (
{
closed = 1;
nodes = (
"1034 0 LINE",
"887 1493 LINE",
"629 1493 LINE",
"-90 0 LINE",
"125 0 LINE",
"723 1303 LINE",
"836 0 LINE"
);
}
);
width = 1233;
},
{
layerId = "024CB45B-04BA-4429-B396-A6A8F0C0F775";
paths = (
{
closed = 1;
nodes = (
"1030 0 LINE",
"965 1493 LINE",
"553 1493 LINE",
"-92 0 LINE",
"209 0 LINE",
"715 1251 LINE",
"739 0 LINE"
);
}
);
width = 1233;
}
);
note = uni0245;
unicode = 0245;
},
{
glyphname = W;
lastChange = "2018-03-04 05:27:23 +0000";
layers = (
{
layerId = "4E366C66-7BF6-431B-9C64-252368655686";
paths = (
{
closed = 1;
nodes = (
"270 0 LINE",
"641 870 LINE",
"672 0 LINE",
"866 0 LINE",
"1376 1493 LINE",
"1178 1493 LINE",
"801 281 LINE",
"786 1083 LINE",
"575 1083 LINE",
"246 283 LINE",
"336 1493 LINE",
"145 1493 LINE",
"82 0 LINE"
);
}
);
width = 1233;
},
{
layerId = "024CB45B-04BA-4429-B396-A6A8F0C0F775";
paths = (
{
closed = 1;
nodes = (
"309 0 LINE",
"627 784 LINE",
"639 0 LINE",
"909 0 LINE",
"1370 1493 LINE",
"1108 1493 LINE",
"811 397 LINE",
"799 1106 LINE",
"561 1106 LINE",
"289 397 LINE",
"397 1493 LINE",
"143 1493 LINE",
"41 0 LINE"
);
}
);
width = 1233;
}
);
note = W;
unicode = 0057;
},
{
glyphname = X;
lastChange = "2018-03-04 05:27:23 +0000";
layers = (
{
layerId = "4E366C66-7BF6-431B-9C64-252368655686";
paths = (
{
closed = 1;
nodes = (
"-127 0 LINE",
"104 0 LINE",
"610 612 LINE",
"864 0 LINE",
"1065 0 LINE",
"741 774 LINE",
"1337 1493 LINE",
"1106 1493 LINE",
"666 961 LINE",
"442 1493 LINE",
"242 1493 LINE",
"530 797 LINE"
);
}
);
width = 1233;
},
{
layerId = "024CB45B-04BA-4429-B396-A6A8F0C0F775";
paths = (
{
closed = 1;
nodes = (
"1343 1493 LINE",
"1022 1493 LINE",
"662 1030 LINE",
"475 1493 LINE",
"184 1493 LINE",
"471 782 LINE",
"-143 0 LINE",
"180 0 LINE",
"580 512 LINE",
"780 0 LINE",
"1071 0 LINE",
"770 756 LINE"
);
}
);
width = 1233;
}
);
note = X;
unicode = 0058;
},
{
glyphname = Y;
lastChange = "2018-03-04 05:27:23 +0000";
layers = (
{
layerId = "4E366C66-7BF6-431B-9C64-252368655686";
paths = (
{
closed = 1;
nodes = (
"377 0 LINE",
"584 0 LINE",
"713 670 LINE",
"1348 1493 LINE",
"1130 1493 LINE",
"633 842 LINE",
"397 1493 LINE",
"195 1493 LINE",
"508 670 LINE"
);
}
);
width = 1233;
},
{
layerId = "024CB45B-04BA-4429-B396-A6A8F0C0F775";
paths = (
{
closed = 1;
nodes = (
"317 0 LINE",
"610 0 LINE",
"725 588 LINE",
"1358 1493 LINE",
"1036 1493 LINE",
"625 844 LINE",
"438 1493 LINE",
"145 1493 LINE",
"432 588 LINE"
);
}
);
width = 1233;
}
);
note = Y;
unicode = 0059;
},
{
glyphname = Yhook;
lastChange = "2018-03-04 05:27:23 +0000";
layers = (
{
layerId = "4E366C66-7BF6-431B-9C64-252368655686";
paths = (
{
closed = 1;
nodes = (
"1020 1237 OFFCURVE",
"1074 1293 OFFCURVE",
"1111 1309 CURVE",
"1134 1320 OFFCURVE",
"1155 1325 OFFCURVE",
"1174 1325 CURVE SMOOTH",
"1201 1325 OFFCURVE",
"1223 1315 OFFCURVE",
"1241 1294 CURVE SMOOTH",
"1249 1285 LINE",
"1347 1419 LINE",
"1325 1438 LINE SMOOTH",
"1283 1476 OFFCURVE",
"1235 1495 OFFCURVE",
"1182 1495 CURVE SMOOTH",
"1152 1495 OFFCURVE",
"1120 1489 OFFCURVE",
"1087 1477 CURVE SMOOTH",
"1009 1449 OFFCURVE",
"924 1368 OFFCURVE",
"831 1235 CURVE SMOOTH",
"555 834 LINE",
"355 1493 LINE",
"162 1493 LINE",
"431 670 LINE",
"301 0 LINE",
"483 0 LINE",
"614 670 LINE",
"951 1140 LINE SMOOTH"
);
}
);
width = 1233;
},
{
layerId = "024CB45B-04BA-4429-B396-A6A8F0C0F775";
paths = (
{
closed = 1;
nodes = (
"1082 1168 OFFCURVE",
"1146 1240 OFFCURVE",
"1179 1241 CURVE SMOOTH",
"1214 1242 OFFCURVE",
"1241 1237 OFFCURVE",
"1259 1224 CURVE",
"1364 1439 LINE",
"1308 1467 LINE SMOOTH",
"1103 1570 OFFCURVE",
"1026 1531 OFFCURVE",
"747 1104 CURVE SMOOTH",
"608 893 LINE",
"449 1493 LINE",
"147 1493 LINE",
"400 588 LINE",
"286 0 LINE",
"581 0 LINE",
"695 588 LINE",
"987 1026 LINE SMOOTH"
);
}
);
width = 1233;
}
);
note = uni01B3;
unicode = 01B3;
},
{
glyphname = Yr;
lastChange = "2018-03-04 05:27:23 +0000";
layers = (
{
layerId = "4E366C66-7BF6-431B-9C64-252368655686";
paths = (
{
closed = 1;
nodes = (
"926 469 OFFCURVE",
"1114 615 OFFCURVE",
"1114 904 CURVE SMOOTH",
"1114 1081 OFFCURVE",
"1006 1229 OFFCURVE",
"678 1229 CURVE SMOOTH",
"465 1229 LINE",
"517 1493 LINE",
"314 1493 LINE",
"24 0 LINE",
"227 0 LINE",
"298 367 LINE",
"491 367 LINE SMOOTH",
"623 367 OFFCURVE",
"680 328 OFFCURVE",
"741 113 CURVE SMOOTH",
"845 -264 LINE",
"1062 -264 LINE",
"939 144 LINE SMOOTH",
"871 367 OFFCURVE",
"825 414 OFFCURVE",
"726 441 CURVE"
);
},
{
closed = 1;
nodes = (
"838 1063 OFFCURVE",
"897 973 OFFCURVE",
"897 866 CURVE SMOOTH",
"897 845 OFFCURVE",
"894 822 OFFCURVE",
"889 797 CURVE SMOOTH",
"855 621 OFFCURVE",
"742 533 OFFCURVE",
"551 533 CURVE SMOOTH",
"330 533 LINE",
"433 1063 LINE",
"646 1063 LINE SMOOTH"
);
}
);
width = 1233;
},
{
layerId = "024CB45B-04BA-4429-B396-A6A8F0C0F775";
paths = (
{
closed = 1;
nodes = (
"968 491 OFFCURVE",
"1096 616 OFFCURVE",
"1136 821 CURVE SMOOTH",
"1145 866 OFFCURVE",
"1149 908 OFFCURVE",
"1149 946 CURVE SMOOTH",
"1149 1036 OFFCURVE",
"1124 1105 OFFCURVE",
"1075 1153 CURVE SMOOTH",
"1004 1221 OFFCURVE",
"873 1255 OFFCURVE",
"681 1255 CURVE SMOOTH",
"550 1255 LINE",
"596 1493 LINE",
"301 1493 LINE",
"11 0 LINE",
"306 0 LINE",
"374 352 LINE",
"468 352 LINE SMOOTH",
"539 352 OFFCURVE",
"591 296 OFFCURVE",
"622 183 CURVE SMOOTH",
"741 -238 LINE",
"1065 -238 LINE",
"899 299 LINE SMOOTH",
"880 362 OFFCURVE",
"861 405 OFFCURVE",
"844 426 CURVE SMOOTH",
"827 447 OFFCURVE",
"804 461 OFFCURVE",
"776 467 CURVE"
);
},
{
closed = 1;
nodes = (
"770 1007 OFFCURVE",
"834 966 OFFCURVE",
"834 884 CURVE SMOOTH",
"834 855 OFFCURVE",
"832 828 OFFCURVE",
"827 804 CURVE SMOOTH",
"799 659 OFFCURVE",
"723 600 OFFCURVE",
"562 600 CURVE SMOOTH",
"423 600 LINE",
"502 1007 LINE",
"641 1007 LINE SMOOTH"
);
}
);
width = 1233;
}
);
note = uni01A6;
unicode = 01A6;
},
{
glyphname = Z;
lastChange = "2018-03-04 05:27:23 +0000";
layers = (
{
layerId = "4E366C66-7BF6-431B-9C64-252368655686";
paths = (
{
closed = 1;
nodes = (
"999 1323 LINE",
"23 154 LINE",
"-6 0 LINE",
"1006 0 LINE",
"1040 170 LINE",
"266 170 LINE",
"1245 1339 LINE",
"1274 1493 LINE",
"305 1493 LINE",
"272 1323 LINE"
);
}
);
width = 1233;
},
{
layerId = "024CB45B-04BA-4429-B396-A6A8F0C0F775";
paths = (
{
closed = 1;
nodes = (
"872 1233 LINE",
"14 244 LINE",
"-33 0 LINE",
"1014 0 LINE",
"1065 260 LINE",
"365 260 LINE",
"1241 1249 LINE",
"1290 1493 LINE",
"281 1493 LINE",
"229 1233 LINE"
);
}
);
width = 1233;
}
);
note = Z;
unicode = 005A;
},
{
glyphname = Zhook;
lastChange = "2018-03-04 05:27:23 +0000";
layers = (
{
layerId = "4E366C66-7BF6-431B-9C64-252368655686";
paths = (
{
closed = 1;
nodes = (
"1068 1323 LINE",
"82 154 LINE",
"52 0 LINE",
"881 0 LINE",
"877 -20 LINE SMOOTH",
"845 -188 OFFCURVE",
"770 -270 OFFCURVE",
"650 -270 CURVE SMOOTH",
"465 -270 LINE",
"434 -426 LINE",
"639 -426 LINE SMOOTH",
"859 -426 OFFCURVE",
"1013 -280 OFFCURVE",
"1062 -20 CURVE SMOOTH",
"1091 128 LINE",
"1090 128 LINE",
"1098 170 LINE",
"296 170 LINE",
"1304 1339 LINE",
"1334 1493 LINE",
"365 1493 LINE",
"331 1323 LINE"
);
}
);
width = 1233;
},
{
layerId = "024CB45B-04BA-4429-B396-A6A8F0C0F775";
paths = (
{
closed = 1;
nodes = (
"922 1233 LINE",
"59 244 LINE",
"11 0 LINE",
"765 0 LINE",
"732 -133 OFFCURVE",
"677 -199 OFFCURVE",
"545 -199 CURVE SMOOTH",
"506 -199 LINE",
"463 -424 LINE",
"584 -424 LINE SMOOTH",
"864 -424 OFFCURVE",
"991 -288 OFFCURVE",
"1056 0 CURVE",
"1057 0 LINE",
"1108 260 LINE",
"402 260 LINE",
"1286 1249 LINE",
"1333 1493 LINE",
"323 1493 LINE",
"273 1233 LINE"
);
}
);
width = 1233;
}
);
note = uni0224;
unicode = 0224;
},
{
glyphname = Zstroke;
lastChange = "2018-03-04 05:27:23 +0000";
layers = (
{
layerId = "4E366C66-7BF6-431B-9C64-252368655686";
paths = (
{
closed = 1;
nodes = (
"1027 1323 LINE",
"541 747 LINE",
"251 747 LINE",
"218 577 LINE",
"398 577 LINE",
"41 154 LINE",
"11 0 LINE",
"1024 0 LINE",
"1057 170 LINE",
"255 170 LINE",
"606 577 LINE",
"951 577 LINE",
"984 747 LINE",
"752 747 LINE",
"1262 1339 LINE",
"1292 1493 LINE",
"323 1493 LINE",
"290 1323 LINE"
);
}
);
width = 1233;
},
{
layerId = "024CB45B-04BA-4429-B396-A6A8F0C0F775";
paths = (
{
closed = 1;
nodes = (
"882 1233 LINE",
"443 730 LINE",
"220 730 LINE",
"182 538 LINE",
"275 538 LINE",
"18 244 LINE",
"-29 0 LINE",
"1017 0 LINE",
"1067 260 LINE",
"361 260 LINE",
"610 538 LINE",
"971 538 LINE",
"1009 730 LINE",
"782 730 LINE",
"1246 1249 LINE",
"1293 1493 LINE",
"283 1493 LINE",
"233 1233 LINE"
);
}
);
width = 1233;
}
);
note = uni01B5;
unicode = 01B5;
},
{
glyphname = Zswashtail;
lastChange = "2018-03-04 05:27:23 +0000";
layers = (
{
layerId = "4E366C66-7BF6-431B-9C64-252368655686";
paths = (
{
closed = 1;
nodes = (
"162 0 OFFCURVE",
"212 -21 OFFCURVE",
"247 -63 CURVE SMOOTH",
"452 -306 LINE SMOOTH",
"512 -378 OFFCURVE",
"586 -435 OFFCURVE",
"647 -460 CURVE SMOOTH",
"707 -485 OFFCURVE",
"754 -496 OFFCURVE",
"797 -496 CURVE SMOOTH",
"911 -496 LINE",
"944 -326 LINE",
"863 -326 LINE SMOOTH",
"810 -326 OFFCURVE",
"761 -308 OFFCURVE",
"714 -271 CURVE SMOOTH",
"667 -235 OFFCURVE",
"635 -200 OFFCURVE",
"587 -143 CURVE SMOOTH",
"415 62 LINE SMOOTH",
"362 125 OFFCURVE",
"303 161 OFFCURVE",
"237 170 CURVE",
"1244 1339 LINE",
"1274 1493 LINE",
"305 1493 LINE",
"272 1323 LINE",
"1009 1323 LINE",
"23 154 LINE",
"-7 0 LINE",
"98 0 LINE SMOOTH"
);
}
);
width = 1233;
},
{
layerId = "024CB45B-04BA-4429-B396-A6A8F0C0F775";
paths = (
{
closed = 1;
nodes = (
"1340 1493 LINE",
"330 1493 LINE",
"279 1233 LINE",
"928 1233 LINE",
"65 244 LINE",
"18 0 LINE",
"113 -11 OFFCURVE",
"226 -75 OFFCURVE",
"356 -192 CURVE SMOOTH",
"555 -372 LINE SMOOTH",
"644 -452 OFFCURVE",
"746 -492 OFFCURVE",
"861 -492 CURVE SMOOTH",
"968 -492 LINE",
"1025 -201 LINE",
"906 -201 LINE SMOOTH",
"850 -201 OFFCURVE",
"793 -177 OFFCURVE",
"736 -130 CURVE SMOOTH",
"522 49 LINE SMOOTH",
"482 83 OFFCURVE",
"417 123 OFFCURVE",
"328 170 CURVE",
"1292 1249 LINE"
);
}
);
width = 1233;
}
);
note = uni2C7F;
unicode = 2C7F;
},
{
glyphname = Eng.alt;
lastChange = "2018-03-04 05:27:23 +0000";
layers = (
{
layerId = "4E366C66-7BF6-431B-9C64-252368655686";
paths = (
{
closed = 1;
nodes = (
"189 0 LINE",
"409 1129 LINE",
"754 0 LINE",
"739 -91 OFFCURVE",
"711 -160 OFFCURVE",
"670 -208 CURVE",
"631 -249 OFFCURVE",
"582 -270 OFFCURVE",
"522 -270 CURVE SMOOTH",
"338 -270 LINE",
"308 -426 LINE",
"512 -426 LINE SMOOTH",
"733 -426 OFFCURVE",
"886 -280 OFFCURVE",
"935 -20 CURVE SMOOTH",
"1230 1493 LINE",
"1045 1493 LINE",
"825 364 LINE",
"480 1493 LINE",
"295 1493 LINE",
"4 0 LINE"
);
}
);
width = 1233;
},
{
layerId = "024CB45B-04BA-4429-B396-A6A8F0C0F775";
paths = (
{
closed = 1;
nodes = (
"275 0 LINE",
"476 1035 LINE",
"737 44 LINE",
"702 -133 OFFCURVE",
"640 -199 OFFCURVE",
"507 -199 CURVE SMOOTH",
"468 -199 LINE",
"425 -424 LINE",
"546 -424 LINE SMOOTH",
"823 -424 OFFCURVE",
"963 -295 OFFCURVE",
"1032 60 CURVE SMOOTH",
"1310 1493 LINE",
"1038 1493 LINE",
"837 458 LINE",
"565 1493 LINE",
"294 1493 LINE",
"4 0 LINE"
);
}
);
width = 1233;
}
);
note = Eng.alt;
},
{
glyphname = Bsmall;
lastChange = "2018-03-04 05:27:23 +0000";
layers = (
{
layerId = "4E366C66-7BF6-431B-9C64-252368655686";
paths = (
{
closed = 1;
nodes = (
"752 530 OFFCURVE",
"798 461 OFFCURVE",
"774 338 CURVE SMOOTH",
"758 254 OFFCURVE",
"677 170 OFFCURVE",
"553 170 CURVE SMOOTH",
"332 170 LINE",
"402 530 LINE",
"627 530 LINE SMOOTH"
);
},
{
closed = 1;
nodes = (
"814 980 OFFCURVE",
"855 909 OFFCURVE",
"843 848 CURVE SMOOTH",
"827 764 OFFCURVE",
"758 700 OFFCURVE",
"645 700 CURVE SMOOTH",
"435 700 LINE",
"489 980 LINE",
"699 980 LINE SMOOTH"
);
},
{
closed = 1;
nodes = (
"510 0 LINE SMOOTH",
"767 0 OFFCURVE",
"935 117 OFFCURVE",
"975 322 CURVE SMOOTH",
"1006 478 OFFCURVE",
"938 587 OFFCURVE",
"791 620 CURVE",
"923 640 OFFCURVE",
"1005 725 OFFCURVE",
"1032 865 CURVE SMOOTH",
"1068 1046 OFFCURVE",
"955 1149 OFFCURVE",
"718 1149 CURVE SMOOTH",
"321 1149 LINE",
"97 0 LINE"
);
}
);
width = 1233;
},
{
layerId = "024CB45B-04BA-4429-B396-A6A8F0C0F775";
paths = (
{
closed = 1;
nodes = (
"512 895 LINE",
"668 895 LINE SMOOTH",
"767 895 OFFCURVE",
"811 860 OFFCURVE",
"799 796 CURVE SMOOTH",
"786 729 OFFCURVE",
"726 698 OFFCURVE",
"630 698 CURVE SMOOTH",
"474 698 LINE"
);
},
{
closed = 1;
nodes = (
"429 465 LINE",
"596 465 LINE SMOOTH",
"721 465 OFFCURVE",
"777 432 OFFCURVE",
"764 364 CURVE SMOOTH",
"751 296 OFFCURVE",
"681 262 OFFCURVE",
"556 262 CURVE SMOOTH",
"389 262 LINE"
);
},
{
closed = 1;
nodes = (
"1023 636 OFFCURVE",
"1095 715 OFFCURVE",
"1116 824 CURVE SMOOTH",
"1156 1031 OFFCURVE",
"1032 1120 OFFCURVE",
"696 1120 CURVE SMOOTH",
"228 1120 LINE",
"10 0 LINE",
"527 0 LINE SMOOTH",
"850 0 OFFCURVE",
"1025 105 OFFCURVE",
"1068 321 CURVE SMOOTH",
"1095 462 OFFCURVE",
"1037 563 OFFCURVE",
"912 599 CURVE"
);
}
);
width = 1233;
}
);
note = uni0299;
unicode = 0299;
},
{
glyphname = Gsmall;
lastChange = "2018-03-04 05:27:23 +0000";
layers = (
{
layerId = "4E366C66-7BF6-431B-9C64-252368655686";
paths = (
{
closed = 1;
nodes = (
"810 163 OFFCURVE",
"724 156 OFFCURVE",
"609 156 CURVE SMOOTH",
"370 156 OFFCURVE",
"263 315 OFFCURVE",
"316 588 CURVE SMOOTH",
"368 861 OFFCURVE",
"537 1020 OFFCURVE",
"776 1020 CURVE SMOOTH",
"871 1020 OFFCURVE",
"1001 997 OFFCURVE",
"1141 894 CURVE",
"1174 1066 LINE",
"1025 1166 OFFCURVE",
"882 1176 OFFCURVE",
"799 1176 CURVE SMOOTH",
"450 1176 OFFCURVE",
"193 953 OFFCURVE",
"122 588 CURVE SMOOTH",
"51 228 OFFCURVE",
"221 0 OFFCURVE",
"558 0 CURVE SMOOTH",
"827 0 OFFCURVE",
"907 27 OFFCURVE",
"1011 72 CURVE",
"1114 600 LINE",
"793 600 LINE",
"766 460 LINE",
"921 460 LINE",
"866 178 LINE"
);
}
);
width = 1233;
},
{
layerId = "024CB45B-04BA-4429-B396-A6A8F0C0F775";
paths = (
{
closed = 1;
nodes = (
"607 630 LINE",
"564 409 LINE",
"812 409 LINE",
"781 241 LINE",
"742 226 OFFCURVE",
"696 219 OFFCURVE",
"644 219 CURVE SMOOTH",
"453 219 OFFCURVE",
"369 343 OFFCURVE",
"412 559 CURVE SMOOTH",
"455 778 OFFCURVE",
"589 900 OFFCURVE",
"788 900 CURVE SMOOTH",
"895 900 OFFCURVE",
"996 868 OFFCURVE",
"1091 803 CURVE",
"1137 1039 LINE",
"1042 1092 OFFCURVE",
"929 1119 OFFCURVE",
"801 1119 CURVE SMOOTH",
"468 1119 OFFCURVE",
"222 907 OFFCURVE",
"154 559 CURVE SMOOTH",
"87 215 OFFCURVE",
"246 0 OFFCURVE",
"569 0 CURVE SMOOTH",
"712 0 OFFCURVE",
"853 34 OFFCURVE",
"990 101 CURVE",
"1093 630 LINE"
);
}
);
width = 1233;
}
);
note = uni0262;
unicode = 0262;
},
{
glyphname = Gsmallhook;
lastChange = "2018-03-04 05:27:23 +0000";
layers = (
{
layerId = "4E366C66-7BF6-431B-9C64-252368655686";
paths = (
{
closed = 1;
nodes = (
"560 163 OFFCURVE",
"495 156 OFFCURVE",
"408 156 CURVE SMOOTH",
"229 156 OFFCURVE",
"156 315 OFFCURVE",
"209 588 CURVE SMOOTH",
"262 861 OFFCURVE",
"397 1020 OFFCURVE",
"576 1020 CURVE SMOOTH",
"613 1020 OFFCURVE",
"651 1013 OFFCURVE",
"690 998 CURVE SMOOTH",
"808 954 OFFCURVE",
"874 919 OFFCURVE",
"888 894 CURVE",
"908 1000 LINE",
"910 1000 LINE",
"939 1148 LINE SMOOTH",
"958 1249 OFFCURVE",
"981 1316 OFFCURVE",
"1006 1350 CURVE",
"1033 1382 OFFCURVE",
"1072 1398 OFFCURVE",
"1124 1398 CURVE SMOOTH",
"1253 1398 LINE",
"1283 1554 LINE",
"1093 1554 LINE SMOOTH",
"1002 1554 OFFCURVE",
"931 1522 OFFCURVE",
"878 1458 CURVE SMOOTH",
"825 1395 OFFCURVE",
"784 1292 OFFCURVE",
"756 1148 CURVE",
"756 1147 LINE",
"748 1150 OFFCURVE",
"736 1154 OFFCURVE",
"721 1158 CURVE SMOOTH",
"676 1170 OFFCURVE",
"636 1176 OFFCURVE",
"602 1176 CURVE SMOOTH",
"310 1176 OFFCURVE",
"87 949 OFFCURVE",
"18 588 CURVE SMOOTH",
"-51 229 OFFCURVE",
"80 0 OFFCURVE",
"363 0 CURVE SMOOTH",
"564 0 OFFCURVE",
"748 67 OFFCURVE",
"751 72 CURVE",
"854 600 LINE",
"568 600 LINE",
"540 460 LINE",
"656 460 LINE",
"602 178 LINE"
);
}
);
width = 1233;
},
{
layerId = "024CB45B-04BA-4429-B396-A6A8F0C0F775";
paths = (
{
closed = 1;
nodes = (
"472 630 LINE",
"429 409 LINE",
"677 409 LINE",
"646 241 LINE",
"609 226 OFFCURVE",
"561 219 OFFCURVE",
"509 219 CURVE SMOOTH",
"318 219 OFFCURVE",
"234 343 OFFCURVE",
"277 559 CURVE SMOOTH",
"318 778 OFFCURVE",
"455 900 OFFCURVE",
"654 900 CURVE SMOOTH",
"761 900 OFFCURVE",
"860 868 OFFCURVE",
"956 803 CURVE",
"1011 1088 LINE SMOOTH",
"1046 1264 OFFCURVE",
"1107 1330 OFFCURVE",
"1240 1330 CURVE SMOOTH",
"1279 1330 LINE",
"1323 1555 LINE",
"1202 1555 LINE SMOOTH",
"922 1555 OFFCURVE",
"793 1422 OFFCURVE",
"726 1117 CURVE",
"706 1118 OFFCURVE",
"686 1119 OFFCURVE",
"665 1119 CURVE SMOOTH",
"332 1119 OFFCURVE",
"86 907 OFFCURVE",
"19 559 CURVE SMOOTH",
"-49 215 OFFCURVE",
"112 0 OFFCURVE",
"435 0 CURVE SMOOTH",
"578 0 OFFCURVE",
"717 34 OFFCURVE",
"856 101 CURVE",
"958 630 LINE"
);
}
);
width = 1233;
}
);
note = uni029B;
unicode = 029B;
},
{
glyphname = Hsmall;
lastChange = "2018-03-04 05:27:23 +0000";
layers = (
{
layerId = "4E366C66-7BF6-431B-9C64-252368655686";
paths = (
{
closed = 1;
nodes = (
"235 0 LINE",
"338 530 LINE",
"879 530 LINE",
"776 0 LINE",
"978 0 LINE",
"1200 1147 LINE",
"998 1147 LINE",
"912 700 LINE",
"371 700 LINE",
"457 1147 LINE",
"255 1147 LINE",
"33 0 LINE"
);
}
);
width = 1233;
},
{
layerId = "024CB45B-04BA-4429-B396-A6A8F0C0F775";
paths = (
{
closed = 1;
nodes = (
"337 0 LINE",
"427 463 LINE",
"768 463 LINE",
"678 0 LINE",
"1004 0 LINE",
"1222 1120 LINE",
"896 1120 LINE",
"817 715 LINE",
"476 715 LINE",
"555 1120 LINE",
"229 1120 LINE",
"11 0 LINE"
);
}
);
width = 1233;
}
);
note = uni029C;
unicode = 029C;
},
{
glyphname = Ismall;
lastChange = "2018-03-04 05:27:23 +0000";
layers = (
{
layerId = "4E366C66-7BF6-431B-9C64-252368655686";
paths = (
{
closed = 1;
nodes = (
"606 977 LINE",
"443 143 LINE",
"78 143 LINE",
"51 0 LINE",
"965 0 LINE",
"992 143 LINE",
"627 143 LINE",
"790 977 LINE",
"1155 977 LINE",
"1182 1120 LINE",
"268 1120 LINE",
"241 977 LINE"
);
}
);
width = 1233;
},
{
layerId = "024CB45B-04BA-4429-B396-A6A8F0C0F775";
paths = (
{
closed = 1;
nodes = (
"1238 1120 LINE",
"216 1120 LINE",
"172 895 LINE",
"536 895 LINE",
"406 225 LINE",
"42 225 LINE",
"-2 0 LINE",
"1020 0 LINE",
"1064 225 LINE",
"700 225 LINE",
"830 895 LINE",
"1194 895 LINE"
);
}
);
width = 1233;
}
);
note = uni026A;
unicode = 026A;
},
{
glyphname = Lsmall;
lastChange = "2018-03-04 05:27:23 +0000";
layers = (
{
layerId = "4E366C66-7BF6-431B-9C64-252368655686";
paths = (
{
closed = 1;
nodes = (
"877 0 LINE",
"910 170 LINE",
"369 170 LINE",
"558 1147 LINE",
"356 1147 LINE",
"134 0 LINE"
);
}
);
width = 1233;
},
{
layerId = "024CB45B-04BA-4429-B396-A6A8F0C0F775";
paths = (
{
closed = 1;
nodes = (
"889 0 LINE",
"946 291 LINE",
"507 291 LINE",
"669 1120 LINE",
"345 1120 LINE",
"126 0 LINE"
);
}
);
width = 1233;
}
);
note = uni029F;
unicode = 029F;
},
{
glyphname = Nsmall;
lastChange = "2018-03-04 05:27:23 +0000";
layers = (
{
layerId = "4E366C66-7BF6-431B-9C64-252368655686";
paths = (
{
closed = 1;
nodes = (
"229 0 LINE",
"404 903 LINE",
"706 0 LINE",
"978 0 LINE",
"1200 1147 LINE",
"1004 1147 LINE",
"829 244 LINE",
"527 1147 LINE",
"255 1147 LINE",
"33 0 LINE"
);
}
);
width = 1233;
},
{
layerId = "024CB45B-04BA-4429-B396-A6A8F0C0F775";
paths = (
{
closed = 1;
nodes = (
"340 0 LINE",
"467 651 LINE",
"617 0 LINE",
"1004 0 LINE",
"1222 1120 LINE",
"893 1120 LINE",
"766 469 LINE",
"616 1120 LINE",
"229 1120 LINE",
"11 0 LINE"
);
}
);
width = 1233;
}
);
note = uni0274;
unicode = 0274;
},
{
glyphname = OEsmall;
lastChange = "2018-03-04 05:27:23 +0000";
layers = (
{
layerId = "4E366C66-7BF6-431B-9C64-252368655686";
paths = (
{
closed = 1;
nodes = (
"348 1120 OFFCURVE",
"141 926 OFFCURVE",
"70 561 CURVE SMOOTH",
"-2 193 OFFCURVE",
"131 0 OFFCURVE",
"456 0 CURVE SMOOTH",
"1055 0 LINE",
"1085 156 LINE",
"658 156 LINE",
"728 520 LINE",
"1128 520 LINE",
"1158 675 LINE",
"758 675 LINE",
"815 966 LINE",
"1232 966 LINE",
"1262 1120 LINE",
"673 1120 LINE SMOOTH"
);
},
{
closed = 1;
nodes = (
"484 125 LINE SMOOTH",
"244 125 OFFCURVE",
"152 270 OFFCURVE",
"208 559 CURVE SMOOTH",
"264 847 OFFCURVE",
"412 990 OFFCURVE",
"652 990 CURVE SMOOTH",
"679 990 LINE",
"511 125 LINE"
);
}
);
width = 1233;
},
{
layerId = "024CB45B-04BA-4429-B396-A6A8F0C0F775";
paths = (
{
closed = 1;
nodes = (
"481 218 LINE SMOOTH",
"325 218 OFFCURVE",
"270 332 OFFCURVE",
"314 561 CURVE SMOOTH",
"359 789 OFFCURVE",
"458 902 OFFCURVE",
"614 902 CURVE SMOOTH",
"689 902 LINE",
"556 218 LINE"
);
},
{
closed = 1;
nodes = (
"680 1120 OFFCURVE",
"674 1120 OFFCURVE",
"666 1120 CURVE",
"657 1121 OFFCURVE",
"651 1121 OFFCURVE",
"648 1121 CURVE SMOOTH",
"349 1121 OFFCURVE",
"146 921 OFFCURVE",
"75 561 CURVE SMOOTH",
"6 200 OFFCURVE",
"131 -2 OFFCURVE",
"430 -2 CURVE SMOOTH",
"434 -2 OFFCURVE",
"440 -2 OFFCURVE",
"448 -1 CURVE SMOOTH",
"456 0 OFFCURVE",
"462 0 OFFCURVE",
"466 0 CURVE SMOOTH",
"1049 0 LINE",
"1092 218 LINE",
"799 218 LINE",
"849 475 LINE",
"1111 475 LINE",
"1153 693 LINE",
"891 693 LINE",
"932 902 LINE",
"1213 902 LINE",
"1255 1120 LINE",
"684 1120 LINE SMOOTH"
);
}
);
width = 1233;
}
);
note = uni0276;
unicode = 0276;
},
{
glyphname = Rsmall;
lastChange = "2018-03-04 05:27:23 +0000";
layers = (
{
layerId = "4E366C66-7BF6-431B-9C64-252368655686";
paths = (
{
closed = 1;
nodes = (
"865 561 OFFCURVE",
"961 657 OFFCURVE",
"988 797 CURVE SMOOTH",
"1031 1013 OFFCURVE",
"908 1120 OFFCURVE",
"619 1120 CURVE SMOOTH",
"231 1120 LINE",
"13 0 LINE",
"198 0 LINE",
"290 473 LINE",
"459 473 LINE SMOOTH",
"588 473 OFFCURVE",
"646 438 OFFCURVE",
"701 287 CURVE SMOOTH",
"807 0 LINE",
"1002 0 LINE",
"888 306 LINE SMOOTH",
"841 431 OFFCURVE",
"786 502 OFFCURVE",
"717 525 CURVE"
);
},
{
closed = 1;
nodes = (
"743 965 OFFCURVE",
"818 909 OFFCURVE",
"797 797 CURVE SMOOTH",
"776 686 OFFCURVE",
"677 628 OFFCURVE",
"518 628 CURVE SMOOTH",
"320 628 LINE",
"386 965 LINE",
"584 965 LINE SMOOTH"
);
}
);
width = 1233;
},
{
layerId = "024CB45B-04BA-4429-B396-A6A8F0C0F775";
paths = (
{
closed = 1;
nodes = (
"882 548 OFFCURVE",
"997 639 OFFCURVE",
"1026 794 CURVE SMOOTH",
"1071 1025 OFFCURVE",
"942 1120 OFFCURVE",
"578 1120 CURVE SMOOTH",
"214 1120 LINE",
"-4 0 LINE",
"306 0 LINE",
"392 442 LINE",
"410 442 LINE SMOOTH",
"434 442 OFFCURVE",
"454 437 OFFCURVE",
"470 426 CURVE SMOOTH",
"493 411 OFFCURVE",
"516 374 OFFCURVE",
"540 316 CURVE",
"545 302 OFFCURVE",
"549 291 OFFCURVE",
"553 283 CURVE",
"668 0 LINE",
"1020 0 LINE",
"842 403 LINE",
"839 411 OFFCURVE",
"834 419 OFFCURVE",
"829 427 CURVE SMOOTH",
"808 462 OFFCURVE",
"752 518 OFFCURVE",
"699 529 CURVE"
);
},
{
closed = 1;
nodes = (
"553 894 OFFCURVE",
"564 894 OFFCURVE",
"573 893 CURVE",
"616 891 OFFCURVE",
"650 879 OFFCURVE",
"675 858 CURVE",
"682 853 OFFCURVE",
"687 848 OFFCURVE",
"691 844 CURVE SMOOTH",
"708 827 OFFCURVE",
"715 807 OFFCURVE",
"710 782 CURVE SMOOTH",
"702 743 OFFCURVE",
"679 711 OFFCURVE",
"641 684 CURVE",
"628 676 LINE SMOOTH",
"597 657 OFFCURVE",
"552 648 OFFCURVE",
"494 648 CURVE SMOOTH",
"432 648 LINE",
"480 894 LINE",
"542 894 LINE SMOOTH"
);
}
);
width = 1233;
}
);
note = uni0280;
unicode = 0280;
},
{
glyphname = Rsmallinverted;
lastChange = "2018-03-04 05:27:23 +0000";
layers = (
{
layerId = "4E366C66-7BF6-431B-9C64-252368655686";
paths = (
{
closed = 1;
nodes = (
"808 618 OFFCURVE",
"891 689 OFFCURVE",
"986 814 CURVE SMOOTH",
"1220 1120 LINE",
"1025 1120 LINE",
"807 833 LINE SMOOTH",
"694 682 OFFCURVE",
"622 647 OFFCURVE",
"493 647 CURVE SMOOTH",
"324 647 LINE",
"416 1120 LINE",
"231 1120 LINE",
"13 0 LINE",
"401 0 LINE SMOOTH",
"690 0 OFFCURVE",
"853 107 OFFCURVE",
"896 323 CURVE SMOOTH",
"923 463 OFFCURVE",
"866 559 OFFCURVE",
"731 595 CURVE"
);
},
{
closed = 1;
nodes = (
"492 492 LINE SMOOTH",
"651 492 OFFCURVE",
"726 434 OFFCURVE",
"705 323 CURVE SMOOTH",
"684 211 OFFCURVE",
"585 155 OFFCURVE",
"426 155 CURVE SMOOTH",
"228 155 LINE",
"294 492 LINE"
);
}
);
width = 1233;
},
{
layerId = "024CB45B-04BA-4429-B396-A6A8F0C0F775";
paths = (
{
closed = 1;
nodes = (
"610 490 OFFCURVE",
"652 450 OFFCURVE",
"633 353 CURVE SMOOTH",
"614 257 OFFCURVE",
"558 219 OFFCURVE",
"437 219 CURVE SMOOTH",
"358 219 LINE",
"410 490 LINE",
"489 490 LINE SMOOTH"
);
},
{
closed = 1;
nodes = (
"175 1120 LINE",
"-43 0 LINE",
"452 0 LINE SMOOTH",
"767 0 OFFCURVE",
"927 96 OFFCURVE",
"968 309 CURVE SMOOTH",
"997 457 OFFCURVE",
"940 552 OFFCURVE",
"795 596 CURVE",
"883 615 OFFCURVE",
"956 673 OFFCURVE",
"1049 802 CURVE SMOOTH",
"1278 1120 LINE",
"915 1120 LINE",
"716 842 LINE SMOOTH",
"648 747 OFFCURVE",
"590 711 OFFCURVE",
"490 711 CURVE SMOOTH",
"453 711 LINE",
"533 1120 LINE"
);
}
);
width = 1233;
}
);
note = uni0281;
unicode = 0281;
},
{
glyphname = Ysmall;
lastChange = "2018-03-04 05:27:23 +0000";
layers = (
{
layerId = "4E366C66-7BF6-431B-9C64-252368655686";
paths = (
{
closed = 1;
nodes = (
"397 0 LINE",
"600 0 LINE",
"702 525 LINE",
"1243 1149 LINE",
"1026 1149 LINE",
"635 693 LINE",
"431 1149 LINE",
"214 1149 LINE",
"499 525 LINE"
);
}
);
width = 1233;
},
{
layerId = "024CB45B-04BA-4429-B396-A6A8F0C0F775";
paths = (
{
closed = 1;
nodes = (
"369 0 LINE",
"646 0 LINE",
"738 472 LINE",
"1274 1120 LINE",
"937 1120 LINE",
"658 775 LINE",
"512 1120 LINE",
"177 1120 LINE",
"461 472 LINE"
);
}
);
width = 1233;
}
);
note = uni028F;
unicode = 028F;
},
{
glyphname = a;
lastChange = "2018-03-04 05:27:23 +0000";
layers = (
{
layerId = "4E366C66-7BF6-431B-9C64-252368655686";
paths = (
{
closed = 1;
nodes = (
"856 522 LINE SMOOTH",
"805 275 OFFCURVE",
"652 125 OFFCURVE",
"455 125 CURVE SMOOTH",
"338 125 OFFCURVE",
"264 196 OFFCURVE",
"264 307 CURVE SMOOTH",
"264 404 OFFCURVE",
"323 494 OFFCURVE",
"414 530 CURVE SMOOTH",
"471 554 OFFCURVE",
"533 563 OFFCURVE",
"692 563 CURVE SMOOTH",
"864 563 LINE"
);
},
{
closed = 1;
nodes = (
"1079 723 OFFCURVE",
"1087 795 OFFCURVE",
"1087 838 CURVE SMOOTH",
"1087 1031 OFFCURVE",
"942 1147 OFFCURVE",
"694 1147 CURVE SMOOTH",
"575 1147 OFFCURVE",
"447 1121 OFFCURVE",
"303 1069 CURVE",
"268 889 LINE",
"416 957 OFFCURVE",
"549 991 OFFCURVE",
"664 991 CURVE SMOOTH",
"820 991 OFFCURVE",
"907 928 OFFCURVE",
"907 815 CURVE SMOOTH",
"907 791 OFFCURVE",
"906 780 OFFCURVE",
"903 768 CURVE",
"891 707 LINE",
"645 707 LINE SMOOTH",
"293 707 OFFCURVE",
"72 537 OFFCURVE",
"72 276 CURVE SMOOTH",
"72 92 OFFCURVE",
"204 -29 OFFCURVE",
"408 -29 CURVE SMOOTH",
"555 -29 OFFCURVE",
"690 41 OFFCURVE",
"786 166 CURVE",
"754 0 LINE",
"938 0 LINE",
"1063 639 LINE SMOOTH"
);
}
);
width = 1233;
},
{
layerId = "024CB45B-04BA-4429-B396-A6A8F0C0F775";
paths = (
{
closed = 1;
nodes = (
"764 301 OFFCURVE",
"653 172 OFFCURVE",
"496 172 CURVE SMOOTH",
"412 172 OFFCURVE",
"352 233 OFFCURVE",
"352 317 CURVE SMOOTH",
"352 462 OFFCURVE",
"461 530 OFFCURVE",
"690 530 CURVE SMOOTH",
"803 530 LINE"
);
},
{
closed = 1;
nodes = (
"1131 724 OFFCURVE",
"1141 796 OFFCURVE",
"1141 848 CURVE SMOOTH",
"1141 1044 OFFCURVE",
"989 1147 OFFCURVE",
"700 1147 CURVE SMOOTH",
"579 1147 OFFCURVE",
"446 1121 OFFCURVE",
"295 1069 CURVE",
"248 819 LINE",
"405 894 OFFCURVE",
"546 932 OFFCURVE",
"655 932 CURVE SMOOTH",
"784 932 OFFCURVE",
"854 891 OFFCURVE",
"854 815 CURVE SMOOTH",
"854 799 OFFCURVE",
"853 794 OFFCURVE",
"852 786 CURVE",
"844 737 LINE",
"651 737 LINE SMOOTH",
"260 737 OFFCURVE",
"47 582 OFFCURVE",
"47 295 CURVE SMOOTH",
"47 96 OFFCURVE",
"174 -29 OFFCURVE",
"375 -29 CURVE SMOOTH",
"522 -29 OFFCURVE",
"636 22 OFFCURVE",
"725 125 CURVE",
"700 0 LINE",
"991 0 LINE",
"1114 639 LINE SMOOTH"
);
}
);
width = 1233;
}
);
note = a;
unicode = 0061;
},
{
glyphname = aeTurned;
lastChange = "2018-03-04 05:27:23 +0000";
layers = (
{
layerId = "4E366C66-7BF6-431B-9C64-252368655686";
paths = (
{
closed = 1;
nodes = (
"802 923 OFFCURVE",
"861 995 OFFCURVE",
"981 995 CURVE SMOOTH",
"1060 995 OFFCURVE",
"1118 936 OFFCURVE",
"1118 856 CURVE SMOOTH",
"1118 788 OFFCURVE",
"1093 718 OFFCURVE",
"1053 674 CURVE SMOOTH",
"1006 622 OFFCURVE",
"955 604 OFFCURVE",
"788 604 CURVE SMOOTH",
"739 604 LINE",
"754 676 LINE SMOOTH"
);
},
{
closed = 1;
nodes = (
"530 379 LINE SMOOTH",
"498 207 OFFCURVE",
"428 123 OFFCURVE",
"317 123 CURVE SMOOTH",
"238 123 OFFCURVE",
"190 179 OFFCURVE",
"190 272 CURVE SMOOTH",
"190 315 OFFCURVE",
"193 351 OFFCURVE",
"201 387 CURVE SMOOTH",
"217 461 LINE",
"547 461 LINE"
);
},
{
closed = 1;
nodes = (
"38 391 OFFCURVE",
"27 308 OFFCURVE",
"27 256 CURVE SMOOTH",
"27 81 OFFCURVE",
"130 -29 OFFCURVE",
"291 -29 CURVE SMOOTH",
"398 -29 OFFCURVE",
"494 17 OFFCURVE",
"561 100 CURVE",
"602 16 OFFCURVE",
"683 -29 OFFCURVE",
"792 -29 CURVE SMOOTH",
"867 -29 OFFCURVE",
"960 -6 OFFCURVE",
"1065 39 CURVE",
"1100 207 LINE",
"999 152 OFFCURVE",
"907 123 OFFCURVE",
"842 123 CURVE SMOOTH",
"739 123 OFFCURVE",
"680 183 OFFCURVE",
"680 284 CURVE SMOOTH",
"680 319 OFFCURVE",
"683 346 OFFCURVE",
"688 373 CURVE SMOOTH",
"706 461 LINE",
"823 461 LINE SMOOTH",
"1122 461 OFFCURVE",
"1288 611 OFFCURVE",
"1288 878 CURVE SMOOTH",
"1288 1042 OFFCURVE",
"1179 1147 OFFCURVE",
"1008 1147 CURVE SMOOTH",
"884 1147 OFFCURVE",
"790 1094 OFFCURVE",
"727 987 CURVE",
"694 1090 OFFCURVE",
"598 1147 OFFCURVE",
"457 1147 CURVE SMOOTH",
"361 1147 OFFCURVE",
"273 1118 OFFCURVE",
"194 1063 CURVE",
"160 891 LINE",
"231 958 OFFCURVE",
"333 999 OFFCURVE",
"426 999 CURVE SMOOTH",
"539 999 OFFCURVE",
"608 937 OFFCURVE",
"608 833 CURVE SMOOTH",
"608 814 OFFCURVE",
"605 787 OFFCURVE",
"600 750 CURVE SMOOTH",
"595 713 OFFCURVE",
"586 665 OFFCURVE",
"573 604 CURVE",
"78 604 LINE",
"61 514 LINE SMOOTH"
);
}
);
width = 1233;
},
{
layerId = "024CB45B-04BA-4429-B396-A6A8F0C0F775";
paths = (
{
closed = 1;
nodes = (
"806 873 OFFCURVE",
"857 938 OFFCURVE",
"946 938 CURVE SMOOTH",
"1011 938 OFFCURVE",
"1053 895 OFFCURVE",
"1053 827 CURVE SMOOTH",
"1053 714 OFFCURVE",
"969 639 OFFCURVE",
"838 639 CURVE SMOOTH",
"764 639 LINE",
"778 717 LINE SMOOTH"
);
},
{
closed = 1;
nodes = (
"461 358 LINE SMOOTH",
"436 241 OFFCURVE",
"390 186 OFFCURVE",
"315 186 CURVE SMOOTH",
"256 186 OFFCURVE",
"231 216 OFFCURVE",
"231 284 CURVE SMOOTH",
"231 321 OFFCURVE",
"233 340 OFFCURVE",
"238 363 CURVE",
"250 430 LINE",
"475 430 LINE"
);
},
{
closed = 1;
nodes = (
"20 395 OFFCURVE",
"10 306 OFFCURVE",
"10 241 CURVE SMOOTH",
"10 68 OFFCURVE",
"104 -29 OFFCURVE",
"272 -29 CURVE SMOOTH",
"384 -29 OFFCURVE",
"478 17 OFFCURVE",
"547 104 CURVE",
"580 20 OFFCURVE",
"661 -29 OFFCURVE",
"770 -29 CURVE SMOOTH",
"862 -29 OFFCURVE",
"958 -3 OFFCURVE",
"1063 49 CURVE",
"1110 287 LINE",
"995 220 OFFCURVE",
"902 186 OFFCURVE",
"833 186 CURVE SMOOTH",
"746 186 OFFCURVE",
"700 230 OFFCURVE",
"700 311 CURVE SMOOTH",
"700 330 OFFCURVE",
"702 350 OFFCURVE",
"706 370 CURVE SMOOTH",
"717 428 LINE",
"825 428 LINE SMOOTH",
"1097 428 OFFCURVE",
"1272 599 OFFCURVE",
"1272 856 CURVE SMOOTH",
"1272 1033 OFFCURVE",
"1164 1147 OFFCURVE",
"995 1147 CURVE SMOOTH",
"876 1147 OFFCURVE",
"779 1094 OFFCURVE",
"698 983 CURVE",
"655 1088 OFFCURVE",
"563 1147 OFFCURVE",
"438 1147 CURVE SMOOTH",
"330 1147 OFFCURVE",
"240 1120 OFFCURVE",
"164 1067 CURVE",
"117 829 LINE",
"204 898 OFFCURVE",
"300 938 OFFCURVE",
"375 938 CURVE SMOOTH",
"468 938 OFFCURVE",
"530 869 OFFCURVE",
"530 762 CURVE SMOOTH",
"530 737 OFFCURVE",
"527 706 OFFCURVE",
"516 641 CURVE",
"65 641 LINE",
"43 512 LINE SMOOTH"
);
}
);
width = 1233;
}
);
note = uni1D02;
unicode = 1D02;
},
{
glyphname = "ain-egyptological";
lastChange = "2018-03-04 05:27:23 +0000";
layers = (
{
layerId = "4E366C66-7BF6-431B-9C64-252368655686";
paths = (
{
closed = 1;
nodes = (
"465 839 OFFCURVE",
"685 958 OFFCURVE",
"1078 958 CURVE",
"1115 1147 LINE",
"597 1147 OFFCURVE",
"303 966 OFFCURVE",
"232 603 CURVE SMOOTH",
"205 462 OFFCURVE",
"218 289 OFFCURVE",
"271 86 CURVE",
"444 132 LINE",
"393 272 OFFCURVE",
"385 428 OFFCURVE",
"418 600 CURVE SMOOTH"
);
}
);
width = 1233;
},
{
layerId = "024CB45B-04BA-4429-B396-A6A8F0C0F775";
paths = (
{
closed = 1;
nodes = (
"524 773 OFFCURVE",
"726 857 OFFCURVE",
"1099 856 CURVE",
"1155 1147 LINE",
"577 1147 OFFCURVE",
"253 966 OFFCURVE",
"182 603 CURVE SMOOTH",
"155 462 OFFCURVE",
"168 289 OFFCURVE",
"221 86 CURVE",
"502 164 LINE",
"461 283 OFFCURVE",
"457 431 OFFCURVE",
"491 606 CURVE SMOOTH"
);
}
);
width = 1233;
}
);
note = uniA725;
unicode = A725;
},
{
glyphname = "alef-egyptological";
lastChange = "2018-03-04 05:27:23 +0000";
layers = (
{
layerId = "4E366C66-7BF6-431B-9C64-252368655686";
paths = (
{
closed = 1;
nodes = (
"654 0 OFFCURVE",
"845 109 OFFCURVE",
"881 328 CURVE SMOOTH",
"902 453 OFFCURVE",
"870 546 OFFCURVE",
"786 605 CURVE",
"883 656 OFFCURVE",
"940 735 OFFCURVE",
"955 840 CURVE SMOOTH",
"982 1027 OFFCURVE",
"822 1120 OFFCURVE",
"475 1120 CURVE",
"445 968 LINE",
"898 968 OFFCURVE",
"873 686 OFFCURVE",
"420 686 CURVE",
"391 533 LINE",
"844 533 OFFCURVE",
"790 153 OFFCURVE",
"337 153 CURVE",
"307 0 LINE"
);
}
);
width = 1233;
},
{
layerId = "024CB45B-04BA-4429-B396-A6A8F0C0F775";
paths = (
{
closed = 1;
nodes = (
"661 0 OFFCURVE",
"876 109 OFFCURVE",
"912 328 CURVE SMOOTH",
"931 440 OFFCURVE",
"894 526 OFFCURVE",
"803 585 CURVE",
"910 650 OFFCURVE",
"971 735 OFFCURVE",
"986 840 CURVE SMOOTH",
"1013 1027 OFFCURVE",
"829 1120 OFFCURVE",
"436 1120 CURVE",
"394 904 LINE",
"807 904 OFFCURVE",
"793 676 OFFCURVE",
"380 676 CURVE",
"338 460 LINE",
"751 460 OFFCURVE",
"723 216 OFFCURVE",
"310 216 CURVE",
"268 0 LINE"
);
}
);
width = 1233;
}
);
note = uniA723;
unicode = A723;
},
{
glyphname = "alpha-latin";
lastChange = "2018-03-04 05:27:23 +0000";
layers = (
{
layerId = "4E366C66-7BF6-431B-9C64-252368655686";
paths = (
{
closed = 1;
nodes = (
"936 1088 OFFCURVE",
"842 1147 OFFCURVE",
"707 1147 CURVE SMOOTH",
"438 1147 OFFCURVE",
"229 927 OFFCURVE",
"158 563 CURVE SMOOTH",
"86 194 OFFCURVE",
"208 -29 OFFCURVE",
"479 -29 CURVE SMOOTH",
"612 -29 OFFCURVE",
"728 30 OFFCURVE",
"811 141 CURVE",
"783 0 LINE",
"967 0 LINE",
"1184 1116 LINE",
"1000 1116 LINE",
"973 977 LINE"
);
},
{
closed = 1;
nodes = (
"541 955 OFFCURVE",
"615 991 OFFCURVE",
"704 991 CURVE SMOOTH",
"881 991 OFFCURVE",
"947 843 OFFCURVE",
"892 559 CURVE SMOOTH",
"837 276 OFFCURVE",
"713 127 OFFCURVE",
"536 127 CURVE SMOOTH",
"447 127 OFFCURVE",
"387 163 OFFCURVE",
"356 236 CURVE SMOOTH",
"293 381 OFFCURVE",
"363 737 OFFCURVE",
"482 882 CURVE SMOOTH"
);
}
);
width = 1233;
},
{
layerId = "024CB45B-04BA-4429-B396-A6A8F0C0F775";
paths = (
{
closed = 1;
nodes = (
"851 1085 OFFCURVE",
"768 1147 OFFCURVE",
"648 1147 CURVE SMOOTH",
"383 1147 OFFCURVE",
"193 938 OFFCURVE",
"120 559 CURVE SMOOTH",
"48 186 OFFCURVE",
"154 -29 OFFCURVE",
"410 -29 CURVE SMOOTH",
"545 -29 OFFCURVE",
"657 37 OFFCURVE",
"745 166 CURVE",
"712 0 LINE",
"1004 0 LINE",
"1222 1119 LINE",
"930 1119 LINE",
"899 961 LINE"
);
},
{
closed = 1;
nodes = (
"564 872 OFFCURVE",
"620 903 OFFCURVE",
"683 903 CURVE SMOOTH",
"810 903 OFFCURVE",
"863 773 OFFCURVE",
"821 557 CURVE SMOOTH",
"779 341 OFFCURVE",
"675 211 OFFCURVE",
"548 211 CURVE SMOOTH",
"485 211 OFFCURVE",
"441 242 OFFCURVE",
"417 303 CURVE SMOOTH",
"369 426 OFFCURVE",
"420 688 OFFCURVE",
"516 811 CURVE SMOOTH"
);
}
);
width = 1233;
}
);
note = uni0251;
unicode = 0251;
},
{
glyphname = "alphaturned-latin";
lastChange = "2018-03-04 05:27:23 +0000";
layers = (
{
layerId = "4E366C66-7BF6-431B-9C64-252368655686";
paths = (
{
closed = 1;
nodes = (
"297 30 OFFCURVE",
"391 -29 OFFCURVE",
"526 -29 CURVE SMOOTH",
"795 -29 OFFCURVE",
"1004 191 OFFCURVE",
"1075 555 CURVE SMOOTH",
"1147 924 OFFCURVE",
"1025 1147 OFFCURVE",
"754 1147 CURVE SMOOTH",
"621 1147 OFFCURVE",
"505 1088 OFFCURVE",
"422 977 CURVE",
"450 1118 LINE",
"266 1118 LINE",
"49 2 LINE",
"233 2 LINE",
"260 141 LINE"
);
},
{
closed = 1;
nodes = (
"692 163 OFFCURVE",
"618 127 OFFCURVE",
"529 127 CURVE SMOOTH",
"352 127 OFFCURVE",
"286 275 OFFCURVE",
"341 559 CURVE SMOOTH",
"396 842 OFFCURVE",
"520 991 OFFCURVE",
"697 991 CURVE SMOOTH",
"786 991 OFFCURVE",
"846 955 OFFCURVE",
"877 882 CURVE SMOOTH",
"940 737 OFFCURVE",
"870 381 OFFCURVE",
"751 236 CURVE SMOOTH"
);
}
);
width = 1233;
},
{
layerId = "024CB45B-04BA-4429-B396-A6A8F0C0F775";
paths = (
{
closed = 1;
nodes = (
"382 33 OFFCURVE",
"465 -29 OFFCURVE",
"585 -29 CURVE SMOOTH",
"850 -29 OFFCURVE",
"1040 180 OFFCURVE",
"1113 559 CURVE SMOOTH",
"1185 932 OFFCURVE",
"1079 1147 OFFCURVE",
"823 1147 CURVE SMOOTH",
"688 1147 OFFCURVE",
"576 1081 OFFCURVE",
"488 952 CURVE",
"521 1118 LINE",
"229 1118 LINE",
"11 -1 LINE",
"303 -1 LINE",
"334 157 LINE"
);
},
{
closed = 1;
nodes = (
"669 246 OFFCURVE",
"613 215 OFFCURVE",
"550 215 CURVE SMOOTH",
"423 215 OFFCURVE",
"371 345 OFFCURVE",
"413 561 CURVE SMOOTH",
"455 777 OFFCURVE",
"558 907 OFFCURVE",
"685 907 CURVE SMOOTH",
"748 907 OFFCURVE",
"792 876 OFFCURVE",
"816 815 CURVE SMOOTH",
"864 692 OFFCURVE",
"813 430 OFFCURVE",
"717 307 CURVE SMOOTH"
);
}
);
width = 1233;
}
);
note = uni0252;
unicode = 0252;
},
{
glyphname = aturned;
lastChange = "2018-03-04 05:27:23 +0000";
layers = (
{
layerId = "4E366C66-7BF6-431B-9C64-252368655686";
paths = (
{
closed = 1;
nodes = (
"346 596 LINE SMOOTH",
"395 844 OFFCURVE",
"547 993 OFFCURVE",
"750 993 CURVE SMOOTH",
"894 993 OFFCURVE",
"965 915 OFFCURVE",
"938 780 CURVE SMOOTH",
"910 631 OFFCURVE",
"786 555 OFFCURVE",
"571 555 CURVE SMOOTH",
"338 555 LINE"
);
},
{
closed = 1;
nodes = (
"119 381 OFFCURVE",
"110 308 OFFCURVE",
"111 259 CURVE SMOOTH",
"112 210 OFFCURVE",
"122 168 OFFCURVE",
"141 135 CURVE SMOOTH",
"201 26 OFFCURVE",
"321 -29 OFFCURVE",
"506 -29 CURVE SMOOTH",
"623 -29 OFFCURVE",
"753 -3 OFFCURVE",
"898 49 CURVE",
"934 233 LINE",
"799 164 OFFCURVE",
"662 127 OFFCURVE",
"537 127 CURVE SMOOTH",
"341 127 OFFCURVE",
"271 203 OFFCURVE",
"304 382 CURVE SMOOTH",
"310 411 LINE",
"557 411 LINE SMOOTH",
"881 411 OFFCURVE",
"1076 543 OFFCURVE",
"1125 792 CURVE SMOOTH",
"1166 1008 OFFCURVE",
"1047 1147 OFFCURVE",
"819 1147 CURVE SMOOTH",
"648 1147 OFFCURVE",
"519 1085 OFFCURVE",
"415 952 CURVE",
"447 1118 LINE",
"262 1118 LINE",
"138 479 LINE SMOOTH"
);
}
);
width = 1233;
},
{
layerId = "024CB45B-04BA-4429-B396-A6A8F0C0F775";
paths = (
{
closed = 1;
nodes = (
"410 612 LINE SMOOTH",
"451 821 OFFCURVE",
"564 944 OFFCURVE",
"719 944 CURVE SMOOTH",
"823 944 OFFCURVE",
"874 879 OFFCURVE",
"855 778 CURVE SMOOTH",
"828 642 OFFCURVE",
"743 592 OFFCURVE",
"524 592 CURVE SMOOTH",
"406 592 LINE"
);
},
{
closed = 1;
nodes = (
"21 98 OFFCURVE",
"125 -29 OFFCURVE",
"490 -29 CURVE SMOOTH",
"639 -29 OFFCURVE",
"774 -4 OFFCURVE",
"913 49 CURVE",
"961 299 LINE",
"805 222 OFFCURVE",
"671 188 OFFCURVE",
"532 188 CURVE SMOOTH",
"399 188 OFFCURVE",
"337 237 OFFCURVE",
"356 332 CURVE SMOOTH",
"365 381 LINE",
"569 381 LINE SMOOTH",
"924 381 OFFCURVE",
"1113 503 OFFCURVE",
"1164 764 CURVE SMOOTH",
"1211 1005 OFFCURVE",
"1087 1147 OFFCURVE",
"834 1147 CURVE SMOOTH",
"701 1147 OFFCURVE",
"576 1092 OFFCURVE",
"484 993 CURVE",
"509 1118 LINE",
"219 1118 LINE",
"94 479 LINE SMOOTH"
);
}
);
width = 1233;
}
);
note = uni0250;
unicode = 0250;
},
{
glyphname = ae;
lastChange = "2018-03-04 05:27:23 +0000";
layers = (
{
layerId = "4E366C66-7BF6-431B-9C64-252368655686";
paths = (
{
closed = 1;
nodes = (
"439 195 OFFCURVE",
"380 123 OFFCURVE",
"260 123 CURVE SMOOTH",
"181 123 OFFCURVE",
"123 182 OFFCURVE",
"123 262 CURVE SMOOTH",
"123 330 OFFCURVE",
"148 400 OFFCURVE",
"188 444 CURVE SMOOTH",
"235 496 OFFCURVE",
"286 514 OFFCURVE",
"453 514 CURVE SMOOTH",
"502 514 LINE",
"487 442 LINE SMOOTH"
);
},
{
closed = 1;
nodes = (
"711 739 LINE SMOOTH",
"743 911 OFFCURVE",
"813 995 OFFCURVE",
"924 995 CURVE SMOOTH",
"1003 995 OFFCURVE",
"1051 939 OFFCURVE",
"1051 846 CURVE SMOOTH",
"1051 803 OFFCURVE",
"1048 767 OFFCURVE",
"1040 731 CURVE SMOOTH",
"1024 657 LINE",
"694 657 LINE"
);
},
{
closed = 1;
nodes = (
"1203 727 OFFCURVE",
"1214 810 OFFCURVE",
"1214 862 CURVE SMOOTH",
"1214 1037 OFFCURVE",
"1111 1147 OFFCURVE",
"950 1147 CURVE SMOOTH",
"843 1147 OFFCURVE",
"747 1101 OFFCURVE",
"680 1018 CURVE",
"639 1102 OFFCURVE",
"558 1147 OFFCURVE",
"449 1147 CURVE SMOOTH",
"374 1147 OFFCURVE",
"281 1124 OFFCURVE",
"176 1079 CURVE",
"141 911 LINE",
"242 966 OFFCURVE",
"334 995 OFFCURVE",
"399 995 CURVE SMOOTH",
"502 995 OFFCURVE",
"561 935 OFFCURVE",
"561 834 CURVE SMOOTH",
"561 799 OFFCURVE",
"558 772 OFFCURVE",
"553 745 CURVE SMOOTH",
"535 657 LINE",
"418 657 LINE SMOOTH",
"119 657 OFFCURVE",
"-47 507 OFFCURVE",
"-47 240 CURVE SMOOTH",
"-47 76 OFFCURVE",
"62 -29 OFFCURVE",
"233 -29 CURVE SMOOTH",
"357 -29 OFFCURVE",
"451 24 OFFCURVE",
"514 131 CURVE",
"547 28 OFFCURVE",
"643 -29 OFFCURVE",
"784 -29 CURVE SMOOTH",
"880 -29 OFFCURVE",
"968 0 OFFCURVE",
"1047 55 CURVE",
"1081 227 LINE",
"1010 160 OFFCURVE",
"908 119 OFFCURVE",
"815 119 CURVE SMOOTH",
"702 119 OFFCURVE",
"633 181 OFFCURVE",
"633 285 CURVE SMOOTH",
"633 304 OFFCURVE",
"636 331 OFFCURVE",
"641 368 CURVE SMOOTH",
"646 405 OFFCURVE",
"655 453 OFFCURVE",
"668 514 CURVE",
"1163 514 LINE",
"1180 604 LINE SMOOTH"
);
}
);
width = 1233;
},
{
layerId = "024CB45B-04BA-4429-B396-A6A8F0C0F775";
paths = (
{
closed = 1;
nodes = (
"435 245 OFFCURVE",
"384 180 OFFCURVE",
"295 180 CURVE SMOOTH",
"230 180 OFFCURVE",
"188 223 OFFCURVE",
"188 291 CURVE SMOOTH",
"188 404 OFFCURVE",
"272 479 OFFCURVE",
"403 479 CURVE SMOOTH",
"477 479 LINE",
"463 401 LINE SMOOTH"
);
},
{
closed = 1;
nodes = (
"780 760 LINE SMOOTH",
"805 877 OFFCURVE",
"851 932 OFFCURVE",
"926 932 CURVE SMOOTH",
"985 932 OFFCURVE",
"1010 902 OFFCURVE",
"1010 834 CURVE SMOOTH",
"1010 797 OFFCURVE",
"1008 778 OFFCURVE",
"1003 755 CURVE",
"991 688 LINE",
"766 688 LINE"
);
},
{
closed = 1;
nodes = (
"1221 723 OFFCURVE",
"1231 812 OFFCURVE",
"1231 877 CURVE SMOOTH",
"1231 1050 OFFCURVE",
"1137 1147 OFFCURVE",
"969 1147 CURVE SMOOTH",
"857 1147 OFFCURVE",
"763 1101 OFFCURVE",
"694 1014 CURVE",
"661 1098 OFFCURVE",
"580 1147 OFFCURVE",
"471 1147 CURVE SMOOTH",
"379 1147 OFFCURVE",
"283 1121 OFFCURVE",
"178 1069 CURVE",
"131 831 LINE",
"246 898 OFFCURVE",
"339 932 OFFCURVE",
"408 932 CURVE SMOOTH",
"495 932 OFFCURVE",
"541 888 OFFCURVE",
"541 807 CURVE SMOOTH",
"541 788 OFFCURVE",
"539 768 OFFCURVE",
"535 748 CURVE SMOOTH",
"524 690 LINE",
"416 690 LINE SMOOTH",
"144 690 OFFCURVE",
"-31 519 OFFCURVE",
"-31 262 CURVE SMOOTH",
"-31 85 OFFCURVE",
"77 -29 OFFCURVE",
"246 -29 CURVE SMOOTH",
"365 -29 OFFCURVE",
"462 24 OFFCURVE",
"543 135 CURVE",
"586 30 OFFCURVE",
"678 -29 OFFCURVE",
"803 -29 CURVE SMOOTH",
"911 -29 OFFCURVE",
"1001 -2 OFFCURVE",
"1077 51 CURVE",
"1124 289 LINE",
"1037 220 OFFCURVE",
"941 180 OFFCURVE",
"866 180 CURVE SMOOTH",
"773 180 OFFCURVE",
"711 249 OFFCURVE",
"711 356 CURVE SMOOTH",
"711 381 OFFCURVE",
"714 412 OFFCURVE",
"725 477 CURVE",
"1176 477 LINE",
"1198 606 LINE SMOOTH"
);
}
);
width = 1233;
}
);
note = ae;
unicode = 00E6;
},
{
glyphname = b;
lastChange = "2018-03-04 05:27:23 +0000";
layers = (
{
layerId = "4E366C66-7BF6-431B-9C64-252368655686";
paths = (
{
closed = 1;
nodes = (
"406 127 OFFCURVE",
"332 219 OFFCURVE",
"332 383 CURVE SMOOTH",
"332 531 OFFCURVE",
"374 698 OFFCURVE",
"438 813 CURVE SMOOTH",
"506 930 OFFCURVE",
"598 993 OFFCURVE",
"709 993 CURVE SMOOTH",
"844 993 OFFCURVE",
"911 908 OFFCURVE",
"911 737 CURVE SMOOTH",
"911 593 OFFCURVE",
"870 428 OFFCURVE",
"805 303 CURVE SMOOTH",
"744 188 OFFCURVE",
"651 127 OFFCURVE",
"539 127 CURVE SMOOTH"
);
},
{
closed = 1;
nodes = (
"362 1556 LINE",
"59 0 LINE",
"244 0 LINE",
"270 141 LINE",
"315 29 OFFCURVE",
"404 -29 OFFCURVE",
"535 -29 CURVE SMOOTH",
"700 -29 OFFCURVE",
"853 60 OFFCURVE",
"954 213 CURVE SMOOTH",
"1050 357 OFFCURVE",
"1108 561 OFFCURVE",
"1108 754 CURVE SMOOTH",
"1108 1002 OFFCURVE",
"981 1147 OFFCURVE",
"762 1147 CURVE SMOOTH",
"626 1147 OFFCURVE",
"517 1089 OFFCURVE",
"434 977 CURVE",
"547 1556 LINE"
);
}
);
width = 1233;
},
{
layerId = "024CB45B-04BA-4429-B396-A6A8F0C0F775";
paths = (
{
closed = 1;
nodes = (
"499 209 OFFCURVE",
"434 293 OFFCURVE",
"434 432 CURVE SMOOTH",
"434 696 OFFCURVE",
"561 907 OFFCURVE",
"713 907 CURVE SMOOTH",
"812 907 OFFCURVE",
"870 829 OFFCURVE",
"870 694 CURVE SMOOTH",
"870 425 OFFCURVE",
"748 209 OFFCURVE",
"600 209 CURVE SMOOTH"
);
},
{
closed = 1;
nodes = (
"404 59 OFFCURVE",
"505 -29 OFFCURVE",
"653 -29 CURVE SMOOTH",
"809 -29 OFFCURVE",
"957 72 OFFCURVE",
"1049 244 CURVE SMOOTH",
"1122 384 OFFCURVE",
"1165 564 OFFCURVE",
"1165 739 CURVE SMOOTH",
"1165 991 OFFCURVE",
"1043 1147 OFFCURVE",
"848 1147 CURVE SMOOTH",
"721 1147 OFFCURVE",
"608 1080 OFFCURVE",
"524 952 CURVE",
"643 1556 LINE",
"350 1556 LINE",
"47 0 LINE",
"340 0 LINE",
"381 207 LINE"
);
}
);
width = 1233;
}
);
note = b;
unicode = 0062;
},
{
glyphname = bhook;
lastChange = "2018-03-04 05:27:23 +0000";
layers = (
{
layerId = "4E366C66-7BF6-431B-9C64-252368655686";
paths = (
{
closed = 1;
nodes = (
"652 163 OFFCURVE",
"578 127 OFFCURVE",
"489 127 CURVE SMOOTH",
"310 127 OFFCURVE",
"246 276 OFFCURVE",
"301 559 CURVE SMOOTH",
"357 843 OFFCURVE",
"478 991 OFFCURVE",
"657 991 CURVE SMOOTH",
"746 991 OFFCURVE",
"806 955 OFFCURVE",
"837 882 CURVE SMOOTH",
"900 737 OFFCURVE",
"831 381 OFFCURVE",
"712 236 CURVE SMOOTH"
);
},
{
closed = 1;
nodes = (
"450 1321 OFFCURVE",
"525 1400 OFFCURVE",
"645 1400 CURVE SMOOTH",
"830 1400 LINE",
"860 1556 LINE",
"655 1556 LINE SMOOTH",
"436 1556 OFFCURVE",
"283 1410 OFFCURVE",
"232 1150 CURVE SMOOTH",
"203 1002 LINE",
"9 0 LINE",
"193 0 LINE",
"220 141 LINE",
"260 30 OFFCURVE",
"353 -29 OFFCURVE",
"486 -29 CURVE SMOOTH",
"757 -29 OFFCURVE",
"965 194 OFFCURVE",
"1037 563 CURVE SMOOTH",
"1108 927 OFFCURVE",
"986 1147 OFFCURVE",
"717 1147 CURVE SMOOTH",
"581 1147 OFFCURVE",
"464 1086 OFFCURVE",
"384 977 CURVE",
"417 1150 LINE SMOOTH"
);
}
);
width = 1233;
},
{
layerId = "024CB45B-04BA-4429-B396-A6A8F0C0F775";
paths = (
{
closed = 1;
nodes = (
"475 1088 LINE",
"510 1264 OFFCURVE",
"571 1330 OFFCURVE",
"704 1330 CURVE SMOOTH",
"743 1330 LINE",
"787 1555 LINE",
"666 1555 LINE SMOOTH",
"386 1555 OFFCURVE",
"249 1424 OFFCURVE",
"184 1088 CURVE SMOOTH",
"-27 0 LINE",
"265 0 LINE",
"297 166 LINE",
"333 37 OFFCURVE",
"421 -29 OFFCURVE",
"556 -29 CURVE SMOOTH",
"812 -29 OFFCURVE",
"1002 186 OFFCURVE",
"1074 559 CURVE SMOOTH",
"1149 938 OFFCURVE",
"1040 1147 OFFCURVE",
"775 1147 CURVE SMOOTH",
"655 1147 OFFCURVE",
"548 1085 OFFCURVE",
"451 961 CURVE",
"476 1088 LINE"
);
},
{
closed = 1;
nodes = (
"630 242 OFFCURVE",
"574 211 OFFCURVE",
"511 211 CURVE SMOOTH",
"384 211 OFFCURVE",
"331 341 OFFCURVE",
"373 557 CURVE SMOOTH",
"415 773 OFFCURVE",
"518 903 OFFCURVE",
"645 903 CURVE SMOOTH",
"708 903 OFFCURVE",
"752 872 OFFCURVE",
"776 811 CURVE SMOOTH",
"824 688 OFFCURVE",
"773 426 OFFCURVE",
"678 303 CURVE SMOOTH"
);
}
);
width = 1233;
}
);
note = uni0253;
unicode = 0253;
},
{
glyphname = bidentalpercussive;
lastChange = "2018-03-04 05:27:23 +0000";
layers = (
{
layerId = "4E366C66-7BF6-431B-9C64-252368655686";
paths = (
{
closed = 1;
nodes = (
"175 173 LINE",
"226 434 LINE",
"887 434 LINE",
"836 173 LINE",
"979 173 LINE",
"1062 597 LINE",
"115 597 LINE",
"32 173 LINE"
);
},
{
closed = 1;
nodes = (
"314 887 LINE",
"365 1148 LINE",
"1026 1148 LINE",
"975 887 LINE",
"1118 887 LINE",
"1201 1311 LINE",
"254 1311 LINE",
"171 887 LINE"
);
}
);
width = 1233;
},
{
layerId = "024CB45B-04BA-4429-B396-A6A8F0C0F775";
paths = (
{
closed = 1;
nodes = (
"751 474 LINE",
"694 177 LINE",
"837 177 LINE",
"924 627 LINE",
"263 627 LINE",
"176 177 LINE",
"319 177 LINE",
"376 474 LINE"
);
},
{
closed = 1;
nodes = (
"885 1159 LINE",
"827 862 LINE",
"970 862 LINE",
"1057 1312 LINE",
"396 1312 LINE",
"309 862 LINE",
"452 862 LINE",
"510 1159 LINE"
);
}
);
width = 1233;
}
);
note = uni02AD;
unicode = 02AD;
},
{
glyphname = bilabialclick;
lastChange = "2018-03-04 05:27:23 +0000";
layers = (
{
layerId = "4E366C66-7BF6-431B-9C64-252368655686";
paths = (
{
closed = 1;
nodes = (
"38 277 OFFCURVE",
"230 45 OFFCURVE",
"518 45 CURVE SMOOTH",
"806 45 OFFCURVE",
"1083 277 OFFCURVE",
"1139 565 CURVE SMOOTH",
"1194 848 OFFCURVE",
"1002 1090 OFFCURVE",
"721 1090 CURVE SMOOTH",
"433 1090 OFFCURVE",
"150 848 OFFCURVE",
"94 565 CURVE SMOOTH"
);
},
{
closed = 1;
nodes = (
"312 750 OFFCURVE",
"496 908 OFFCURVE",
"684 908 CURVE SMOOTH",
"868 908 OFFCURVE",
"993 750 OFFCURVE",
"957 566 CURVE SMOOTH",
"920 378 OFFCURVE",
"740 227 OFFCURVE",
"552 227 CURVE SMOOTH",
"364 227 OFFCURVE",
"239 378 OFFCURVE",
"276 566 CURVE SMOOTH"
);
},
{
closed = 1;
nodes = (
"491 504 OFFCURVE",
"532 454 OFFCURVE",
"595 454 CURVE SMOOTH",
"658 454 OFFCURVE",
"718 504 OFFCURVE",
"730 567 CURVE SMOOTH",
"742 628 OFFCURVE",
"700 681 OFFCURVE",
"639 681 CURVE SMOOTH",
"576 681 OFFCURVE",
"515 628 OFFCURVE",
"503 567 CURVE SMOOTH"
);
}
);
width = 1233;
},
{
layerId = "024CB45B-04BA-4429-B396-A6A8F0C0F775";
paths = (
{
closed = 1;
nodes = (
"358 741 OFFCURVE",
"520 891 OFFCURVE",
"681 891 CURVE SMOOTH",
"838 891 OFFCURVE",
"941 741 OFFCURVE",
"908 566 CURVE SMOOTH",
"873 387 OFFCURVE",
"715 244 OFFCURVE",
"555 244 CURVE SMOOTH",
"394 244 OFFCURVE",
"290 387 OFFCURVE",
"325 566 CURVE SMOOTH"
);
},
{
closed = 1;
nodes = (
"-13 220 OFFCURVE",
"187 -57 OFFCURVE",
"498 -57 CURVE SMOOTH",
"809 -57 OFFCURVE",
"1110 220 OFFCURVE",
"1178 565 CURVE SMOOTH",
"1243 902 OFFCURVE",
"1044 1192 OFFCURVE",
"740 1192 CURVE SMOOTH",
"429 1192 OFFCURVE",
"120 902 OFFCURVE",
"55 565 CURVE SMOOTH"
);
},
{
closed = 1;
nodes = (
"484 495 OFFCURVE",
"527 437 OFFCURVE",
"592 437 CURVE SMOOTH",
"625 437 OFFCURVE",
"655 450 OFFCURVE",
"682 475 CURVE SMOOTH",
"737 526 OFFCURVE",
"751 596 OFFCURVE",
"718 659 CURVE",
"707 685 OFFCURVE",
"682 698 OFFCURVE",
"642 698 CURVE SMOOTH",
"577 698 OFFCURVE",
"512 638 OFFCURVE",
"499 567 CURVE SMOOTH"
);
}
);
width = 1233;
}
);
note = uni0298;
unicode = 0298;
},
{
glyphname = bilabialpercussive;
lastChange = "2018-03-04 05:27:23 +0000";
layers = (
{
layerId = "4E366C66-7BF6-431B-9C64-252368655686";
paths = (
{
closed = 1;
nodes = (
"334 -30 LINE",
"586 484 LINE",
"638 -30 LINE",
"775 -30 LINE",
"1082 597 LINE",
"966 597 LINE",
"726 108 LINE",
"676 597 LINE",
"540 597 LINE",
"300 108 LINE",
"251 597 LINE",
"135 597 LINE",
"197 -30 LINE"
);
},
{
closed = 1;
nodes = (
"473 684 LINE",
"725 1198 LINE",
"777 684 LINE",
"914 684 LINE",
"1220 1311 LINE",
"1104 1311 LINE",
"865 822 LINE",
"815 1311 LINE",
"678 1311 LINE",
"439 822 LINE",
"389 1311 LINE",
"273 1311 LINE",
"336 684 LINE"
);
}
);
width = 1233;
},
{
layerId = "024CB45B-04BA-4429-B396-A6A8F0C0F775";
paths = (
{
closed = 1;
nodes = (
"368 0 LINE",
"572 431 LINE",
"609 0 LINE",
"860 0 LINE",
"1170 627 LINE",
"948 627 LINE",
"744 199 LINE",
"706 627 LINE",
"515 627 LINE",
"310 195 LINE",
"274 627 LINE",
"51 627 LINE",
"118 0 LINE"
);
},
{
closed = 1;
nodes = (
"502 685 LINE",
"705 1116 LINE",
"743 685 LINE",
"994 685 LINE",
"1304 1312 LINE",
"1082 1312 LINE",
"877 884 LINE",
"840 1312 LINE",
"649 1312 LINE",
"444 880 LINE",
"408 1312 LINE",
"185 1312 LINE",
"252 685 LINE"
);
}
);
width = 1233;
}
);
note = uni02AC;
unicode = 02AC;
},
{
glyphname = bstroke;
lastChange = "2018-03-04 05:27:23 +0000";
layers = (
{
layerId = "4E366C66-7BF6-431B-9C64-252368655686";
paths = (
{
closed = 1;
nodes = (
"828 1270 LINE",
"860 1434 LINE",
"523 1434 LINE",
"547 1556 LINE",
"362 1556 LINE",
"338 1434 LINE",
"198 1434 LINE",
"166 1270 LINE",
"306 1270 LINE",
"59 0 LINE",
"244 0 LINE",
"270 141 LINE",
"315 29 OFFCURVE",
"404 -29 OFFCURVE",
"535 -29 CURVE SMOOTH",
"700 -29 OFFCURVE",
"851 60 OFFCURVE",
"954 213 CURVE SMOOTH",
"1050 358 OFFCURVE",
"1108 561 OFFCURVE",
"1108 754 CURVE SMOOTH",
"1108 1002 OFFCURVE",
"981 1147 OFFCURVE",
"762 1147 CURVE SMOOTH",
"626 1147 OFFCURVE",
"517 1089 OFFCURVE",
"434 977 CURVE",
"491 1270 LINE"
);
},
{
closed = 1;
nodes = (
"406 127 OFFCURVE",
"332 219 OFFCURVE",
"332 383 CURVE SMOOTH",
"332 531 OFFCURVE",
"374 698 OFFCURVE",
"438 813 CURVE SMOOTH",
"506 930 OFFCURVE",
"598 993 OFFCURVE",
"709 993 CURVE SMOOTH",
"844 993 OFFCURVE",
"911 908 OFFCURVE",
"911 737 CURVE SMOOTH",
"911 593 OFFCURVE",
"870 428 OFFCURVE",
"805 303 CURVE SMOOTH",
"744 188 OFFCURVE",
"651 127 OFFCURVE",
"539 127 CURVE SMOOTH"
);
}
);
width = 1233;
},
{
layerId = "024CB45B-04BA-4429-B396-A6A8F0C0F775";
paths = (
{
closed = 1;
nodes = (
"404 59 OFFCURVE",
"505 -29 OFFCURVE",
"653 -29 CURVE SMOOTH",
"809 -29 OFFCURVE",
"957 72 OFFCURVE",
"1049 244 CURVE SMOOTH",
"1122 384 OFFCURVE",
"1165 564 OFFCURVE",
"1165 739 CURVE SMOOTH",
"1165 991 OFFCURVE",
"1043 1147 OFFCURVE",
"848 1147 CURVE SMOOTH",
"721 1147 OFFCURVE",
"608 1080 OFFCURVE",
"524 952 CURVE",
"587 1270 LINE",
"836 1270 LINE",
"868 1434 LINE",
"619 1434 LINE",
"643 1556 LINE",
"350 1556 LINE",
"326 1434 LINE",
"140 1434 LINE",
"108 1270 LINE",
"294 1270 LINE",
"47 0 LINE",
"340 0 LINE",
"381 207 LINE"
);
},
{
closed = 1;
nodes = (
"499 209 OFFCURVE",
"434 293 OFFCURVE",
"434 432 CURVE SMOOTH",
"434 696 OFFCURVE",
"561 907 OFFCURVE",
"713 907 CURVE SMOOTH",
"812 907 OFFCURVE",
"870 829 OFFCURVE",
"870 694 CURVE SMOOTH",
"870 425 OFFCURVE",
"748 209 OFFCURVE",
"600 209 CURVE SMOOTH"
);
}
);
width = 1233;
}
);
note = uni0180;
unicode = 0180;
},
{
glyphname = btopbar;
lastChange = "2018-03-04 05:27:23 +0000";
layers = (
{
layerId = "4E366C66-7BF6-431B-9C64-252368655686";
paths = (
{
closed = 1;
nodes = (
"1063 1372 LINE",
"1099 1556 LINE",
"347 1556 LINE",
"45 0 LINE",
"229 0 LINE",
"256 141 LINE",
"296 30 OFFCURVE",
"389 -29 OFFCURVE",
"522 -29 CURVE SMOOTH",
"793 -29 OFFCURVE",
"1001 194 OFFCURVE",
"1073 563 CURVE SMOOTH",
"1144 927 OFFCURVE",
"1022 1147 OFFCURVE",
"753 1147 CURVE SMOOTH",
"617 1147 OFFCURVE",
"498 1086 OFFCURVE",
"418 977 CURVE",
"495 1372 LINE"
);
},
{
closed = 1;
nodes = (
"688 163 OFFCURVE",
"614 127 OFFCURVE",
"525 127 CURVE SMOOTH",
"346 127 OFFCURVE",
"282 276 OFFCURVE",
"337 559 CURVE SMOOTH",
"393 843 OFFCURVE",
"514 991 OFFCURVE",
"693 991 CURVE SMOOTH",
"782 991 OFFCURVE",
"842 955 OFFCURVE",
"873 882 CURVE SMOOTH",
"936 737 OFFCURVE",
"867 381 OFFCURVE",
"748 236 CURVE SMOOTH"
);
}
);
width = 1233;
},
{
layerId = "024CB45B-04BA-4429-B396-A6A8F0C0F775";
paths = (
{
closed = 1;
nodes = (
"841 -29 OFFCURVE",
"1031 186 OFFCURVE",
"1103 559 CURVE SMOOTH",
"1176 935 OFFCURVE",
"1072 1147 OFFCURVE",
"804 1147 CURVE SMOOTH",
"685 1147 OFFCURVE",
"577 1085 OFFCURVE",
"480 961 CURVE",
"555 1347 LINE",
"1062 1347 LINE",
"1103 1556 LINE",
"304 1556 LINE",
"2 0 LINE",
"294 0 LINE",
"326 166 LINE",
"362 36 OFFCURVE",
"448 -29 OFFCURVE",
"585 -29 CURVE SMOOTH"
);
},
{
closed = 1;
nodes = (
"659 242 OFFCURVE",
"603 211 OFFCURVE",
"540 211 CURVE SMOOTH",
"413 211 OFFCURVE",
"360 341 OFFCURVE",
"402 557 CURVE SMOOTH",
"444 773 OFFCURVE",
"547 903 OFFCURVE",
"674 903 CURVE SMOOTH",
"737 903 OFFCURVE",
"781 872 OFFCURVE",
"805 811 CURVE SMOOTH",
"853 688 OFFCURVE",
"802 426 OFFCURVE",
"707 303 CURVE SMOOTH"
);
}
);
width = 1233;
}
);
note = uni0183;
unicode = 0183;
},
{
glyphname = c;
lastChange = "2018-03-04 05:27:23 +0000";
layers = (
{
layerId = "4E366C66-7BF6-431B-9C64-252368655686";
paths = (
{
closed = 1;
nodes = (
"868 168 OFFCURVE",
"751 127 OFFCURVE",
"623 127 CURVE SMOOTH",
"442 127 OFFCURVE",
"350 224 OFFCURVE",
"350 416 CURVE SMOOTH",
"350 555 OFFCURVE",
"394 704 OFFCURVE",
"469 813 CURVE SMOOTH",
"549 932 OFFCURVE",
"662 991 OFFCURVE",
"809 991 CURVE SMOOTH",
"922 991 OFFCURVE",
"1012 956 OFFCURVE",
"1100 879 CURVE",
"1137 1061 LINE",
"1032 1118 OFFCURVE",
"922 1147 OFFCURVE",
"803 1147 CURVE SMOOTH",
"626 1147 OFFCURVE",
"478 1082 OFFCURVE",
"354 950 CURVE SMOOTH",
"233 819 OFFCURVE",
"156 615 OFFCURVE",
"156 416 CURVE SMOOTH",
"156 123 OFFCURVE",
"311 -29 OFFCURVE",
"610 -29 CURVE SMOOTH",
"730 -29 OFFCURVE",
"843 -1 OFFCURVE",
"940 51 CURVE",
"979 252 LINE"
);
}
);
width = 1233;
},
{
layerId = "024CB45B-04BA-4429-B396-A6A8F0C0F775";
paths = (
{
closed = 1;
nodes = (
"891 244 OFFCURVE",
"785 209 OFFCURVE",
"692 209 CURVE SMOOTH",
"527 209 OFFCURVE",
"446 292 OFFCURVE",
"446 463 CURVE SMOOTH",
"446 727 OFFCURVE",
"602 909 OFFCURVE",
"829 909 CURVE SMOOTH",
"933 909 OFFCURVE",
"1023 872 OFFCURVE",
"1104 795 CURVE",
"1157 1063 LINE",
"1056 1120 OFFCURVE",
"944 1147 OFFCURVE",
"813 1147 CURVE SMOOTH",
"418 1147 OFFCURVE",
"150 857 OFFCURVE",
"150 434 CURVE SMOOTH",
"150 147 OFFCURVE",
"332 -29 OFFCURVE",
"633 -29 CURVE SMOOTH",
"744 -29 OFFCURVE",
"853 -7 OFFCURVE",
"956 37 CURVE",
"1012 313 LINE"
);
}
);
width = 1233;
}
);
note = c;
unicode = 0063;
},
{
glyphname = ccurl;
lastChange = "2018-03-04 05:27:23 +0000";
layers = (
{
layerId = "4E366C66-7BF6-431B-9C64-252368655686";
paths = (
{
closed = 1;
nodes = (
"587 217 OFFCURVE",
"644 255 OFFCURVE",
"711 255 CURVE SMOOTH",
"886 255 OFFCURVE",
"867 123 OFFCURVE",
"672 123 CURVE SMOOTH",
"622 123 OFFCURVE",
"578 129 OFFCURVE",
"541 142 CURVE"
);
},
{
closed = 1;
nodes = (
"518 -31 OFFCURVE",
"568 -37 OFFCURVE",
"623 -37 CURVE SMOOTH",
"1068 -37 OFFCURVE",
"1139 398 OFFCURVE",
"740 398 CURVE SMOOTH",
"609 398 OFFCURVE",
"505 339 OFFCURVE",
"426 222 CURVE",
"422 227 OFFCURVE",
"419 231 OFFCURVE",
"416 236 CURVE",
"365 312 OFFCURVE",
"352 418 OFFCURVE",
"379 555 CURVE SMOOTH",
"432 828 OFFCURVE",
"601 987 OFFCURVE",
"840 987 CURVE SMOOTH",
"947 987 OFFCURVE",
"1045 958 OFFCURVE",
"1138 901 CURVE",
"1171 1073 LINE",
"1079 1120 OFFCURVE",
"975 1143 OFFCURVE",
"862 1143 CURVE SMOOTH",
"687 1143 OFFCURVE",
"540 1091 OFFCURVE",
"419 986 CURVE SMOOTH",
"178 777 OFFCURVE",
"94 341 OFFCURVE",
"250 126 CURVE SMOOTH",
"275 92 OFFCURVE",
"305 63 OFFCURVE",
"338 40 CURVE",
"319 -16 OFFCURVE",
"302 -79 OFFCURVE",
"289 -148 CURVE",
"443 -145 LINE",
"452 -100 OFFCURVE",
"462 -58 OFFCURVE",
"473 -20 CURVE"
);
}
);
width = 1233;
},
{
layerId = "024CB45B-04BA-4429-B396-A6A8F0C0F775";
paths = (
{
closed = 1;
nodes = (
"654 303 OFFCURVE",
"705 339 OFFCURVE",
"760 339 CURVE SMOOTH",
"935 339 OFFCURVE",
"916 207 OFFCURVE",
"720 207 CURVE SMOOTH",
"715 207 LINE SMOOTH",
"679 208 OFFCURVE",
"644 216 OFFCURVE",
"609 232 CURVE"
);
},
{
closed = 1;
nodes = (
"451 381 OFFCURVE",
"450 456 OFFCURVE",
"470 559 CURVE SMOOTH",
"513 783 OFFCURVE",
"644 909 OFFCURVE",
"835 909 CURVE SMOOTH",
"944 909 OFFCURVE",
"1040 868 OFFCURVE",
"1112 795 CURVE",
"1164 1063 LINE",
"1065 1122 OFFCURVE",
"960 1149 OFFCURVE",
"840 1149 CURVE SMOOTH",
"668 1149 OFFCURVE",
"523 1097 OFFCURVE",
"404 992 CURVE SMOOTH",
"167 784 OFFCURVE",
"80 335 OFFCURVE",
"235 127 CURVE SMOOTH",
"267 84 OFFCURVE",
"308 49 OFFCURVE",
"357 24 CURVE",
"347 -23 OFFCURVE",
"336 -78 OFFCURVE",
"324 -140 CURVE",
"524 -141 LINE",
"546 -27 LINE",
"548 -28 OFFCURVE",
"550 -28 OFFCURVE",
"552 -28 CURVE",
"554 -29 OFFCURVE",
"589 -29 OFFCURVE",
"657 -29 CURVE SMOOTH",
"1077 -29 OFFCURVE",
"1167 525 OFFCURVE",
"787 532 CURVE SMOOTH",
"674 532 OFFCURVE",
"572 472 OFFCURVE",
"480 351 CURVE",
"474 334 LINE"
);
}
);
width = 1233;
}
);
note = uni0255;
unicode = 0255;
},
{
glyphname = chook;
lastChange = "2018-03-04 05:27:23 +0000";
layers = (
{
layerId = "4E366C66-7BF6-431B-9C64-252368655686";
paths = (
{
closed = 1;
nodes = (
"770 165 OFFCURVE",
"664 127 OFFCURVE",
"536 127 CURVE SMOOTH",
"307 127 OFFCURVE",
"208 283 OFFCURVE",
"261 559 CURVE SMOOTH",
"316 836 OFFCURVE",
"473 991 OFFCURVE",
"704 991 CURVE SMOOTH",
"828 991 OFFCURVE",
"913 955 OFFCURVE",
"993 868 CURVE",
"1022 1016 LINE SMOOTH",
"1055 1184 OFFCURVE",
"1130 1266 OFFCURVE",
"1250 1266 CURVE",
"1280 1422 LINE",
"1260 1422 LINE SMOOTH",
"1040 1422 OFFCURVE",
"924 1283 OFFCURVE",
"869 1131 CURVE",
"826 1142 OFFCURVE",
"782 1147 OFFCURVE",
"735 1147 CURVE SMOOTH",
"388 1147 OFFCURVE",
"139 927 OFFCURVE",
"68 559 CURVE SMOOTH",
"-4 191 OFFCURVE",
"159 -29 OFFCURVE",
"506 -29 CURVE SMOOTH",
"615 -29 OFFCURVE",
"725 0 OFFCURVE",
"836 57 CURVE",
"873 248 LINE"
);
}
);
width = 1233;
},
{
layerId = "024CB45B-04BA-4429-B396-A6A8F0C0F775";
paths = (
{
closed = 1;
nodes = (
"614 211 OFFCURVE",
"578 217 OFFCURVE",
"547 228 CURVE SMOOTH",
"431 270 OFFCURVE",
"390 380 OFFCURVE",
"425 559 CURVE SMOOTH",
"461 743 OFFCURVE",
"563 909 OFFCURVE",
"790 909 CURVE SMOOTH",
"901 909 OFFCURVE",
"994 871 OFFCURVE",
"1067 795 CURVE",
"1119 1063 LINE",
"1125 1089 LINE SMOOTH",
"1170 1281 OFFCURVE",
"1227 1331 OFFCURVE",
"1354 1331 CURVE SMOOTH",
"1393 1331 LINE",
"1437 1556 LINE",
"1316 1556 LINE SMOOTH",
"1036 1556 OFFCURVE",
"926 1434 OFFCURVE",
"849 1147 CURVE",
"832 1148 OFFCURVE",
"814 1149 OFFCURVE",
"796 1149 CURVE SMOOTH",
"451 1149 OFFCURVE",
"200 928 OFFCURVE",
"128 559 CURVE SMOOTH",
"57 191 OFFCURVE",
"220 -29 OFFCURVE",
"565 -29 CURVE SMOOTH",
"694 -29 OFFCURVE",
"814 0 OFFCURVE",
"924 57 CURVE",
"976 326 LINE",
"874 249 OFFCURVE",
"767 211 OFFCURVE",
"655 211 CURVE SMOOTH"
);
}
);
width = 1233;
}
);
note = uni0188;
unicode = 0188;
},
{
glyphname = cstretched;
lastChange = "2018-03-04 05:27:23 +0000";
layers = (
{
layerId = "4E366C66-7BF6-431B-9C64-252368655686";
paths = (
{
closed = 1;
nodes = (
"43 -218 OFFCURVE",
"155 -438 OFFCURVE",
"522 -438 CURVE SMOOTH",
"635 -438 OFFCURVE",
"748 -415 OFFCURVE",
"859 -368 CURVE",
"892 -196 LINE",
"777 -253 OFFCURVE",
"668 -282 OFFCURVE",
"561 -282 CURVE SMOOTH",
"322 -282 OFFCURVE",
"253 -147 OFFCURVE",
"285 30 CURVE SMOOTH",
"491 1086 LINE SMOOTH",
"526 1263 OFFCURVE",
"648 1398 OFFCURVE",
"887 1398 CURVE SMOOTH",
"994 1398 OFFCURVE",
"1093 1369 OFFCURVE",
"1186 1312 CURVE",
"1219 1484 LINE",
"1127 1531 OFFCURVE",
"1023 1554 OFFCURVE",
"910 1554 CURVE SMOOTH",
"543 1554 OFFCURVE",
"345 1334 OFFCURVE",
"297 1086 CURVE SMOOTH",
"91 30 LINE SMOOTH"
);
}
);
width = 1233;
},
{
layerId = "024CB45B-04BA-4429-B396-A6A8F0C0F775";
paths = (
{
closed = 1;
nodes = (
"590 1124 OFFCURVE",
"706 1273 OFFCURVE",
"921 1273 CURVE SMOOTH",
"1017 1273 OFFCURVE",
"1105 1244 OFFCURVE",
"1188 1187 CURVE",
"1246 1485 LINE",
"1165 1532 OFFCURVE",
"1100 1555 OFFCURVE",
"883 1555 CURVE SMOOTH",
"595 1556 OFFCURVE",
"306 1284 OFFCURVE",
"250 997 CURVE SMOOTH",
"82 132 LINE SMOOTH",
"26 -155 OFFCURVE",
"209 -427 OFFCURVE",
"497 -426 CURVE SMOOTH",
"714 -426 OFFCURVE",
"788 -403 OFFCURVE",
"888 -356 CURVE",
"946 -58 LINE",
"842 -115 OFFCURVE",
"741 -144 OFFCURVE",
"645 -144 CURVE SMOOTH",
"430 -144 OFFCURVE",
"373 4 OFFCURVE",
"397 132 CURVE SMOOTH",
"565 997 LINE SMOOTH"
);
}
);
width = 1233;
}
);
note = uni0297;
unicode = 0297;
},
{
glyphname = cstroke;
lastChange = "2018-03-04 05:27:23 +0000";
layers = (
{
layerId = "4E366C66-7BF6-431B-9C64-252368655686";
paths = (
{
closed = 1;
nodes = (
"375 453 OFFCURVE",
"379 504 OFFCURVE",
"390 559 CURVE SMOOTH",
"445 836 OFFCURVE",
"602 991 OFFCURVE",
"833 991 CURVE SMOOTH",
"881 991 OFFCURVE",
"924 985 OFFCURVE",
"962 973 CURVE",
"376 406 LINE"
);
},
{
closed = 1;
nodes = (
"899 165 OFFCURVE",
"793 127 OFFCURVE",
"665 127 CURVE SMOOTH",
"550 127 OFFCURVE",
"469 165 OFFCURVE",
"422 240 CURVE SMOOTH",
"414 252 OFFCURVE",
"407 265 OFFCURVE",
"401 279 CURVE",
"1065 920 LINE",
"1084 905 OFFCURVE",
"1103 888 OFFCURVE",
"1122 868 CURVE",
"1148 1001 LINE",
"1287 1135 LINE",
"1209 1212 LINE",
"1092 1098 LINE",
"1067 1109 OFFCURVE",
"1042 1119 OFFCURVE",
"1017 1126 CURVE SMOOTH",
"968 1140 OFFCURVE",
"917 1147 OFFCURVE",
"863 1147 CURVE SMOOTH",
"690 1147 OFFCURVE",
"544 1095 OFFCURVE",
"427 991 CURVE SMOOTH",
"191 783 OFFCURVE",
"146 414 OFFCURVE",
"202 238 CURVE",
"-64 -20 LINE",
"13 -96 LINE",
"253 136 LINE",
"259 127 LINE",
"336 23 OFFCURVE",
"462 -29 OFFCURVE",
"635 -29 CURVE SMOOTH",
"744 -29 OFFCURVE",
"854 0 OFFCURVE",
"965 57 CURVE",
"1002 248 LINE"
);
}
);
width = 1233;
},
{
layerId = "024CB45B-04BA-4429-B396-A6A8F0C0F775";
paths = (
{
closed = 1;
nodes = (
"334 13 OFFCURVE",
"451 -29 OFFCURVE",
"606 -29 CURVE SMOOTH",
"737 -29 OFFCURVE",
"855 0 OFFCURVE",
"964 57 CURVE",
"1017 326 LINE",
"913 249 OFFCURVE",
"808 211 OFFCURVE",
"695 211 CURVE SMOOTH",
"600 211 OFFCURVE",
"532 241 OFFCURVE",
"493 301 CURVE",
"490 306 OFFCURVE",
"487 312 OFFCURVE",
"484 317 CURVE",
"1038 851 LINE",
"1063 836 OFFCURVE",
"1087 817 OFFCURVE",
"1108 795 CURVE",
"1137 947 LINE",
"1311 1114 LINE",
"1195 1235 LINE",
"1065 1109 LINE",
"1046 1116 OFFCURVE",
"1026 1123 OFFCURVE",
"1006 1128 CURVE SMOOTH",
"953 1142 OFFCURVE",
"897 1149 OFFCURVE",
"837 1149 CURVE SMOOTH",
"664 1149 OFFCURVE",
"519 1097 OFFCURVE",
"401 993 CURVE SMOOTH",
"164 784 OFFCURVE",
"121 420 OFFCURVE",
"172 247 CURVE",
"-82 2 LINE",
"34 -117 LINE",
"256 97 LINE"
);
},
{
closed = 1;
nodes = (
"462 537 OFFCURVE",
"464 548 OFFCURVE",
"466 559 CURVE SMOOTH",
"510 783 OFFCURVE",
"640 909 OFFCURVE",
"831 909 CURVE SMOOTH",
"840 909 OFFCURVE",
"848 909 OFFCURVE",
"857 908 CURVE",
"460 526 LINE"
);
}
);
width = 1233;
}
);
note = uni023C;
unicode = 023C;
},
{
glyphname = d;
lastChange = "2018-03-04 05:27:23 +0000";
layers = (
{
layerId = "4E366C66-7BF6-431B-9C64-252368655686";
paths = (
{
closed = 1;
nodes = (
"817 991 OFFCURVE",
"893 897 OFFCURVE",
"893 737 CURVE SMOOTH",
"893 585 OFFCURVE",
"853 421 OFFCURVE",
"788 305 CURVE SMOOTH",
"724 188 OFFCURVE",
"631 127 OFFCURVE",
"518 127 CURVE SMOOTH",
"383 127 OFFCURVE",
"315 212 OFFCURVE",
"315 383 CURVE SMOOTH",
"315 536 OFFCURVE",
"353 697 OFFCURVE",
"418 817 CURVE SMOOTH",
"479 933 OFFCURVE",
"569 991 OFFCURVE",
"686 991 CURVE SMOOTH"
);
},
{
closed = 1;
nodes = (
"899 1088 OFFCURVE",
"799 1147 OFFCURVE",
"670 1147 CURVE SMOOTH",
"505 1147 OFFCURVE",
"368 1066 OFFCURVE",
"268 909 CURVE SMOOTH",
"176 765 OFFCURVE",
"119 560 OFFCURVE",
"119 369 CURVE SMOOTH",
"119 118 OFFCURVE",
"246 -29 OFFCURVE",
"463 -29 CURVE SMOOTH",
"596 -29 OFFCURVE",
"706 29 OFFCURVE",
"793 141 CURVE",
"766 0 LINE",
"950 0 LINE",
"1253 1556 LINE",
"1069 1556 LINE",
"954 977 LINE"
);
}
);
width = 1233;
},
{
layerId = "024CB45B-04BA-4429-B396-A6A8F0C0F775";
paths = (
{
closed = 1;
nodes = (
"734 909 OFFCURVE",
"799 825 OFFCURVE",
"799 686 CURVE SMOOTH",
"799 422 OFFCURVE",
"670 211 OFFCURVE",
"518 211 CURVE SMOOTH",
"421 211 OFFCURVE",
"362 289 OFFCURVE",
"362 424 CURVE SMOOTH",
"362 693 OFFCURVE",
"485 909 OFFCURVE",
"633 909 CURVE SMOOTH"
);
},
{
closed = 1;
nodes = (
"834 1059 OFFCURVE",
"729 1149 OFFCURVE",
"580 1149 CURVE SMOOTH",
"424 1149 OFFCURVE",
"276 1046 OFFCURVE",
"184 874 CURVE SMOOTH",
"109 731 OFFCURVE",
"66 553 OFFCURVE",
"66 381 CURVE SMOOTH",
"66 128 OFFCURVE",
"188 -29 OFFCURVE",
"383 -29 CURVE SMOOTH",
"510 -29 OFFCURVE",
"621 38 OFFCURVE",
"709 166 CURVE",
"678 0 LINE",
"969 0 LINE",
"1272 1556 LINE",
"979 1556 LINE",
"854 911 LINE"
);
}
);
width = 1233;
}
);
note = d;
unicode = 0064;
},
{
glyphname = eth;
lastChange = "2018-03-04 05:27:23 +0000";
layers = (
{
layerId = "4E366C66-7BF6-431B-9C64-252368655686";
paths = (
{
closed = 1;
nodes = (
"1102 1499 LINE",
"815 1411 LINE",
"711 1556 LINE",
"498 1556 LINE",
"639 1356 LINE",
"365 1270 LINE",
"395 1178 LINE",
"692 1272 LINE",
"747 1195 OFFCURVE",
"780 1141 OFFCURVE",
"805 1090 CURVE",
"772 1093 LINE SMOOTH",
"740 1096 OFFCURVE",
"718 1098 OFFCURVE",
"707 1098 CURVE SMOOTH",
"528 1098 OFFCURVE",
"367 1012 OFFCURVE",
"266 864 CURVE SMOOTH",
"171 724 OFFCURVE",
"119 557 OFFCURVE",
"119 389 CURVE SMOOTH",
"119 118 OFFCURVE",
"259 -29 OFFCURVE",
"516 -29 CURVE SMOOTH",
"704 -29 OFFCURVE",
"858 52 OFFCURVE",
"961 207 CURVE SMOOTH",
"1054 346 OFFCURVE",
"1106 522 OFFCURVE",
"1106 707 CURVE SMOOTH",
"1106 908 OFFCURVE",
"1034 1099 OFFCURVE",
"870 1327 CURVE",
"1130 1407 LINE"
);
},
{
closed = 1;
nodes = (
"899 858 OFFCURVE",
"911 790 OFFCURVE",
"911 705 CURVE SMOOTH",
"911 362 OFFCURVE",
"755 127 OFFCURVE",
"532 127 CURVE SMOOTH",
"393 127 OFFCURVE",
"313 219 OFFCURVE",
"313 379 CURVE SMOOTH",
"313 716 OFFCURVE",
"474 944 OFFCURVE",
"713 944 CURVE SMOOTH",
"772 944 OFFCURVE",
"825 932 OFFCURVE",
"874 907 CURVE"
);
}
);
width = 1233;
},
{
layerId = "024CB45B-04BA-4429-B396-A6A8F0C0F775";
paths = (
{
closed = 1;
nodes = (
"845 738 OFFCURVE",
"848 699 OFFCURVE",
"848 655 CURVE SMOOTH",
"848 392 OFFCURVE",
"727 207 OFFCURVE",
"559 207 CURVE SMOOTH",
"447 207 OFFCURVE",
"375 293 OFFCURVE",
"375 428 CURVE SMOOTH",
"375 655 OFFCURVE",
"502 819 OFFCURVE",
"674 819 CURVE SMOOTH",
"733 819 OFFCURVE",
"787 806 OFFCURVE",
"838 778 CURVE"
);
},
{
closed = 1;
nodes = (
"1165 1554 LINE",
"842 1436 LINE",
"768 1556 LINE",
"489 1556 LINE",
"614 1350 LINE",
"307 1235 LINE",
"348 1120 LINE",
"678 1243 LINE",
"715 1183 OFFCURVE",
"752 1112 OFFCURVE",
"788 1028 CURVE",
"749 1045 OFFCURVE",
"707 1053 OFFCURVE",
"651 1053 CURVE SMOOTH",
"319 1053 OFFCURVE",
"82 787 OFFCURVE",
"82 412 CURVE SMOOTH",
"82 132 OFFCURVE",
"248 -29 OFFCURVE",
"539 -29 CURVE SMOOTH",
"902 -29 OFFCURVE",
"1141 242 OFFCURVE",
"1141 653 CURVE SMOOTH",
"1141 865 OFFCURVE",
"1063 1086 OFFCURVE",
"903 1329 CURVE",
"1206 1442 LINE"
);
}
);
width = 1233;
}
);
note = eth;
unicode = 00F0;
},
{
glyphname = dbdigraph;
lastChange = "2018-03-04 05:27:23 +0000";
layers = (
{
layerId = "4E366C66-7BF6-431B-9C64-252368655686";
paths = (
{
closed = 1;
nodes = (
"342 955 OFFCURVE",
"390 991 OFFCURVE",
"443 991 CURVE SMOOTH",
"496 991 OFFCURVE",
"529 955 OFFCURVE",
"543 882 CURVE SMOOTH",
"570 736 OFFCURVE",
"501 384 OFFCURVE",
"417 237 CURVE SMOOTH",
"375 164 OFFCURVE",
"328 127 OFFCURVE",
"275 127 CURVE SMOOTH",
"222 127 OFFCURVE",
"188 163 OFFCURVE",
"175 236 CURVE SMOOTH",
"148 381 OFFCURVE",
"218 737 OFFCURVE",
"301 882 CURVE SMOOTH"
);
},
{
closed = 1;
nodes = (
"812 163 OFFCURVE",
"764 127 OFFCURVE",
"711 127 CURVE SMOOTH",
"658 127 OFFCURVE",
"624 164 OFFCURVE",
"611 237 CURVE SMOOTH",
"584 384 OFFCURVE",
"652 736 OFFCURVE",
"736 882 CURVE SMOOTH",
"778 955 OFFCURVE",
"826 991 OFFCURVE",
"879 991 CURVE SMOOTH",
"932 991 OFFCURVE",
"966 955 OFFCURVE",
"979 882 CURVE SMOOTH",
"1005 737 OFFCURVE",
"936 381 OFFCURVE",
"853 236 CURVE SMOOTH"
);
},
{
closed = 1;
nodes = (
"715 1556 LINE",
"603 977 LINE",
"590 1088 OFFCURVE",
"537 1147 OFFCURVE",
"456 1147 CURVE SMOOTH",
"375 1147 OFFCURVE",
"302 1095 OFFCURVE",
"235 992 CURVE SMOOTH",
"101 784 OFFCURVE",
"14 339 OFFCURVE",
"67 129 CURVE SMOOTH",
"93 24 OFFCURVE",
"147 -29 OFFCURVE",
"228 -29 CURVE SMOOTH",
"308 -29 OFFCURVE",
"383 30 OFFCURVE",
"440 141 CURVE",
"413 0 LINE",
"523 0 LINE",
"551 141 LINE",
"566 30 OFFCURVE",
"617 -29 OFFCURVE",
"697 -29 CURVE SMOOTH",
"778 -29 OFFCURVE",
"853 24 OFFCURVE",
"920 129 CURVE SMOOTH",
"1054 339 OFFCURVE",
"1140 784 OFFCURVE",
"1088 992 CURVE SMOOTH",
"1061 1095 OFFCURVE",
"1008 1147 OFFCURVE",
"927 1147 CURVE SMOOTH",
"846 1147 OFFCURVE",
"770 1086 OFFCURVE",
"713 977 CURVE",
"826 1556 LINE"
);
}
);
width = 1233;
},
{
layerId = "024CB45B-04BA-4429-B396-A6A8F0C0F775";
paths = (
{
closed = 1;
nodes = (
"314 872 OFFCURVE",
"354 903 OFFCURVE",
"399 903 CURVE SMOOTH",
"443 903 OFFCURVE",
"472 872 OFFCURVE",
"486 811 CURVE SMOOTH",
"514 688 OFFCURVE",
"463 426 OFFCURVE",
"388 303 CURVE SMOOTH",
"350 242 OFFCURVE",
"309 211 OFFCURVE",
"265 211 CURVE SMOOTH",
"220 211 OFFCURVE",
"191 242 OFFCURVE",
"178 303 CURVE SMOOTH",
"151 426 OFFCURVE",
"203 688 OFFCURVE",
"277 811 CURVE SMOOTH"
);
},
{
closed = 1;
nodes = (
"841 242 OFFCURVE",
"800 211 OFFCURVE",
"756 211 CURVE SMOOTH",
"711 211 OFFCURVE",
"682 242 OFFCURVE",
"669 303 CURVE SMOOTH",
"641 426 OFFCURVE",
"692 688 OFFCURVE",
"768 811 CURVE SMOOTH",
"805 872 OFFCURVE",
"846 903 OFFCURVE",
"891 903 CURVE SMOOTH",
"935 903 OFFCURVE",
"964 872 OFFCURVE",
"977 811 CURVE SMOOTH",
"1004 688 OFFCURVE",
"953 426 OFFCURVE",
"878 303 CURVE SMOOTH"
);
},
{
closed = 1;
nodes = (
"669 1556 LINE",
"554 961 LINE",
"527 1085 OFFCURVE",
"473 1147 OFFCURVE",
"389 1147 CURVE SMOOTH",
"296 1147 OFFCURVE",
"215 1096 OFFCURVE",
"145 995 CURVE SMOOTH",
"5 792 OFFCURVE",
"-85 330 OFFCURVE",
"-25 125 CURVE SMOOTH",
"4 22 OFFCURVE",
"64 -29 OFFCURVE",
"153 -29 CURVE SMOOTH",
"248 -29 OFFCURVE",
"330 37 OFFCURVE",
"399 166 CURVE",
"367 0 LINE",
"571 0 LINE",
"604 166 LINE",
"621 37 OFFCURVE",
"679 -29 OFFCURVE",
"774 -29 CURVE SMOOTH",
"863 -29 OFFCURVE",
"943 22 OFFCURVE",
"1012 125 CURVE SMOOTH",
"1151 330 OFFCURVE",
"1241 792 OFFCURVE",
"1180 995 CURVE SMOOTH",
"1149 1096 OFFCURVE",
"1088 1147 OFFCURVE",
"995 1147 CURVE SMOOTH",
"911 1147 OFFCURVE",
"833 1085 OFFCURVE",
"758 961 CURVE",
"874 1556 LINE"
);
}
);
width = 1233;
}
);
note = uni0238;
unicode = 0238;
},
{
glyphname = dcroat;
lastChange = "2018-03-04 05:27:23 +0000";
layers = (
{
layerId = "4E366C66-7BF6-431B-9C64-252368655686";
paths = (
{
closed = 1;
nodes = (
"817 991 OFFCURVE",
"893 897 OFFCURVE",
"893 737 CURVE SMOOTH",
"893 585 OFFCURVE",
"853 421 OFFCURVE",
"788 305 CURVE SMOOTH",
"724 188 OFFCURVE",
"631 127 OFFCURVE",
"518 127 CURVE SMOOTH",
"383 127 OFFCURVE",
"315 212 OFFCURVE",
"315 383 CURVE SMOOTH",
"315 536 OFFCURVE",
"353 697 OFFCURVE",
"418 817 CURVE SMOOTH",
"479 933 OFFCURVE",
"569 991 OFFCURVE",
"686 991 CURVE SMOOTH"
);
},
{
closed = 1;
nodes = (
"899 1088 OFFCURVE",
"799 1147 OFFCURVE",
"670 1147 CURVE SMOOTH",
"505 1147 OFFCURVE",
"368 1066 OFFCURVE",
"268 909 CURVE SMOOTH",
"176 765 OFFCURVE",
"119 560 OFFCURVE",
"119 369 CURVE SMOOTH",
"119 118 OFFCURVE",
"246 -29 OFFCURVE",
"463 -29 CURVE SMOOTH",
"596 -29 OFFCURVE",
"706 29 OFFCURVE",
"793 141 CURVE",
"766 0 LINE",
"950 0 LINE",
"1200 1286 LINE",
"1393 1286 LINE",
"1415 1407 LINE",
"1223 1407 LINE",
"1253 1556 LINE",
"1069 1556 LINE",
"1038 1407 LINE",
"709 1407 LINE",
"684 1286 LINE",
"1016 1286 LINE",
"954 977 LINE"
);
}
);
width = 1233;
},
{
layerId = "024CB45B-04BA-4429-B396-A6A8F0C0F775";
paths = (
{
closed = 1;
nodes = (
"834 1059 OFFCURVE",
"729 1149 OFFCURVE",
"580 1149 CURVE SMOOTH",
"424 1149 OFFCURVE",
"276 1046 OFFCURVE",
"184 874 CURVE SMOOTH",
"109 731 OFFCURVE",
"66 553 OFFCURVE",
"66 381 CURVE SMOOTH",
"66 128 OFFCURVE",
"188 -29 OFFCURVE",
"383 -29 CURVE SMOOTH",
"510 -29 OFFCURVE",
"621 38 OFFCURVE",
"709 166 CURVE",
"678 0 LINE",
"969 0 LINE",
"1212 1251 LINE",
"1358 1251 LINE",
"1395 1440 LINE",
"1249 1440 LINE",
"1272 1556 LINE",
"979 1556 LINE",
"956 1440 LINE",
"653 1440 LINE",
"616 1251 LINE",
"920 1251 LINE",
"854 911 LINE"
);
},
{
closed = 1;
nodes = (
"734 909 OFFCURVE",
"799 825 OFFCURVE",
"799 686 CURVE SMOOTH",
"799 422 OFFCURVE",
"670 211 OFFCURVE",
"518 211 CURVE SMOOTH",
"421 211 OFFCURVE",
"362 289 OFFCURVE",
"362 424 CURVE SMOOTH",
"362 693 OFFCURVE",
"485 909 OFFCURVE",
"633 909 CURVE SMOOTH"
);
}
);
width = 1233;
}
);
note = dcroat;
unicode = 0111;
},
{
glyphname = dcurl;
lastChange = "2018-03-04 05:27:23 +0000";
layers = (
{
layerId = "4E366C66-7BF6-431B-9C64-252368655686";
paths = (
{
closed = 1;
nodes = (
"848 277 OFFCURVE",
"909 344 OFFCURVE",
"952 344 CURVE SMOOTH",
"995 344 OFFCURVE",
"1011 323 OFFCURVE",
"1000 282 CURVE",
"978 179 OFFCURVE",
"926 127 OFFCURVE",
"844 127 CURVE SMOOTH",
"799 126 OFFCURVE",
"774 132 OFFCURVE",
"769 144 CURVE"
);
},
{
closed = 1;
nodes = (
"771 1556 LINE",
"658 977 LINE",
"633 1088 OFFCURVE",
"560 1147 OFFCURVE",
"453 1147 CURVE SMOOTH",
"238 1147 OFFCURVE",
"63 927 OFFCURVE",
"-8 563 CURVE SMOOTH",
"-80 194 OFFCURVE",
"8 -26 OFFCURVE",
"224 -29 CURVE SMOOTH",
"357 -30 OFFCURVE",
"467 65 OFFCURVE",
"527 185 CURVE",
"536 148 LINE SMOOTH",
"550 89 OFFCURVE",
"567 55 OFFCURVE",
"586 46 CURVE",
"481 -148 LINE",
"600 -148 LINE",
"620 -110 OFFCURVE",
"645 -65 OFFCURVE",
"675 -12 CURVE",
"706 -23 OFFCURVE",
"745 -29 OFFCURVE",
"792 -29 CURVE SMOOTH",
"959 -29 OFFCURVE",
"1062 75 OFFCURVE",
"1102 284 CURVE SMOOTH",
"1159 575 OFFCURVE",
"930 580 OFFCURVE",
"715 255 CURVE",
"710 278 OFFCURVE",
"716 329 OFFCURVE",
"731 406 CURVE SMOOTH",
"955 1556 LINE"
);
},
{
closed = 1;
nodes = (
"313 955 OFFCURVE",
"373 991 OFFCURVE",
"444 991 CURVE SMOOTH",
"515 991 OFFCURVE",
"561 955 OFFCURVE",
"584 882 CURVE SMOOTH",
"607 809 OFFCURVE",
"604 701 OFFCURVE",
"577 559 CURVE SMOOTH",
"522 276 OFFCURVE",
"417 127 OFFCURVE",
"276 127 CURVE SMOOTH",
"205 127 OFFCURVE",
"159 163 OFFCURVE",
"137 236 CURVE SMOOTH",
"93 381 OFFCURVE",
"162 737 OFFCURVE",
"263 882 CURVE SMOOTH"
);
}
);
width = 1233;
},
{
layerId = "024CB45B-04BA-4429-B396-A6A8F0C0F775";
paths = (
{
closed = 1;
nodes = (
"920 301 OFFCURVE",
"965 344 OFFCURVE",
"999 344 CURVE SMOOTH",
"1027 344 OFFCURVE",
"1037 322 OFFCURVE",
"1028 278 CURVE SMOOTH",
"1019 233 OFFCURVE",
"981 211 OFFCURVE",
"912 211 CURVE SMOOTH",
"882 210 OFFCURVE",
"866 212 OFFCURVE",
"863 216 CURVE"
);
},
{
closed = 1;
nodes = (
"732 1556 LINE",
"629 1028 LINE",
"608 1088 OFFCURVE",
"571 1147 OFFCURVE",
"490 1147 CURVE SMOOTH",
"249 1147 OFFCURVE",
"53 938 OFFCURVE",
"-20 559 CURVE SMOOTH",
"-92 186 OFFCURVE",
"19 -29 OFFCURVE",
"255 -29 CURVE SMOOTH",
"356 -29 OFFCURVE",
"431 33 OFFCURVE",
"499 177 CURVE",
"524 96 OFFCURVE",
"557 47 OFFCURVE",
"599 28 CURVE",
"574 -19 OFFCURVE",
"545 -75 OFFCURVE",
"512 -140 CURVE",
"655 -140 LINE",
"722 -19 LINE",
"723 -26 OFFCURVE",
"762 -29 OFFCURVE",
"839 -29 CURVE SMOOTH",
"1002 -29 OFFCURVE",
"1108 97 OFFCURVE",
"1156 348 CURVE SMOOTH",
"1186 508 OFFCURVE",
"1150 588 OFFCURVE",
"1048 588 CURVE SMOOTH",
"965 588 OFFCURVE",
"879 510 OFFCURVE",
"790 354 CURVE",
"1024 1556 LINE"
);
},
{
closed = 1;
nodes = (
"391 872 OFFCURVE",
"428 903 OFFCURVE",
"468 903 CURVE SMOOTH",
"508 903 OFFCURVE",
"534 872 OFFCURVE",
"545 811 CURVE SMOOTH",
"567 688 OFFCURVE",
"516 426 OFFCURVE",
"446 303 CURVE SMOOTH",
"411 242 OFFCURVE",
"373 211 OFFCURVE",
"334 211 CURVE SMOOTH",
"294 211 OFFCURVE",
"269 242 OFFCURVE",
"258 303 CURVE SMOOTH",
"236 426 OFFCURVE",
"287 688 OFFCURVE",
"356 811 CURVE SMOOTH"
);
}
);
width = 1233;
}
);
note = uni0221;
unicode = 0221;
},
